<mxfile host="app.diagrams.net" modified="2021-05-18T08:13:38.415Z" agent="5.0 (Windows NT 10.0; Win64; x64) AppleWebKit/537.36 (KHTML, like Gecko) Chrome/90.0.4430.212 Safari/537.36" etag="xl0P36_JQEYjjP4Eqphh" version="14.6.13" type="github">
  <diagram id="U2uObIby9yDkHx92UchZ" name="Page-1">
    <mxGraphModel dx="1182" dy="1844" grid="1" gridSize="10" guides="1" tooltips="1" connect="1" arrows="1" fold="1" page="1" pageScale="1" pageWidth="827" pageHeight="1169" background="none" math="0" shadow="0">
      <root>
        <mxCell id="0" />
        <mxCell id="1" parent="0" />
        <mxCell id="KMIFBZsHz-1hRJetGuWt-15" value="" style="ellipse;whiteSpace=wrap;html=1;align=center;dashed=1;fillColor=#bac8d3;strokeColor=#23445d;strokeWidth=3;perimeterSpacing=0;opacity=70;" vertex="1" parent="1">
          <mxGeometry x="14" y="-940" width="800" height="580" as="geometry" />
        </mxCell>
        <mxCell id="KMIFBZsHz-1hRJetGuWt-17" value="" style="rounded=0;whiteSpace=wrap;html=1;fillColor=#fad7ac;strokeColor=#b46504;" vertex="1" parent="1">
          <mxGeometry x="155" y="-620" width="519" height="160" as="geometry" />
        </mxCell>
        <mxCell id="KMIFBZsHz-1hRJetGuWt-32" value="&lt;font style=&quot;font-size: 16px&quot; color=&quot;#424242&quot;&gt;Frontend&lt;/font&gt;" style="ellipse;shape=cloud;whiteSpace=wrap;html=1;align=center;fillColor=#cce5ff;strokeColor=#36393d;" vertex="1" parent="1">
          <mxGeometry x="335" y="-930" width="140" height="60" as="geometry" />
        </mxCell>
        <mxCell id="KMIFBZsHz-1hRJetGuWt-38" value="" style="shape=singleArrow;direction=north;whiteSpace=wrap;html=1;gradientColor=#97d077;fillColor=#d5e8d4;strokeColor=#82b366;" vertex="1" parent="1">
          <mxGeometry x="340" y="-710" width="30" height="70" as="geometry" />
        </mxCell>
        <mxCell id="KMIFBZsHz-1hRJetGuWt-42" value="" style="shape=image;verticalLabelPosition=bottom;labelBackgroundColor=#ffffff;verticalAlign=top;aspect=fixed;imageAspect=0;image=data:image/png,iVBORw0KGgoAAAANSUhEUgAAAQMAAADCCAMAAAB6zFdcAAABBVBMVEX///8zMzNBiT5Bhz9Biz0rKysbGxtycnJBjztBiD5BjTwkJCRBkjlTnkNBkDpBlDjl5eVMmzpGmDPx8fFBmjV4sW1mqFjN4cmjyJxAnjOZwpG/2LonJydAozBAnTM/pS/Dw8MYGBj19fW1tbVypXDb29s/qiwAAACKioqnp6fX59RiYmJERETR0dGenp7V1dXp8udZokqHuX16enpLS0u6urqVlZUsfimCgoJmZmZHR0dVVVWvz6mYzZGUwIxxrWXN3cze6d5gmV5NjkuGsIWpxqiTt5K60bougymiwaIjhReXz481qB603K0ppwSLtoh8xXBXt0Zuv2HJ5sUolhNts2NOqUBlfGuUAAAJKElEQVR4nO2caUObSBiAgwY0RTQQc5igBqyJiRpJPGJr6tFr3Wq7R7v7/3/KznAzzACJpHThfT5UG5IwPLzzzomlEgAAAAAAAAAAAAAAAAAAAAAAAAAAAAAAAAAAAFAgut2sS5A51b725jDrQmRMVeB44byadTEyBTngOF680rMuSIaYDjhO5A+yLkl22A44TjjpZl2WrHAdcJx2XNDk6HPA8f3TrIuTCX4HHH+edXEyIehgLeviZAI4AAcYcAAOMOAAHGDAATjAgANwgAEH4AADDsABBhyAA8yv6UC/WuvO+5n7+7lPU61ZP5I7qB38rOnGA1XktZu5Zngf3k+nH+7nOkv1uK8d4XWV5A5GgjhnuRbk9MIsE69d15J+RP84rayurk5fG4nPoh9pPMep6kFyB90Tcc5yLUh1TXOKo6qDZJ/5VC6vmqxMPydcMBvwqnUS4eL0Ukzi4PBYm7dci6FfCbyvQGKShZ/7D9NKpWJJqJRXfktwGjvUbAt+BSwH+pG/YMtckDrgAuXBZ4tbFX94PV2pVFwJqEK8v485Cwo1nmNBdzDg1ODbtDfLWac+vREoZRKOIsJb/zwtr6xYEhwLlei0oF+JbAN0B4GwSVSuBamuCfSyqTyz+n16ZSoIW/ideZpwqMU5YBVM5NJep466O8Jbaqt8/+GxbCsgJKxOV+lp4YwWapEOosJGuEmzt3AZc3eEcPUzXiMDZU8CaeH9Q+gstXNGqLEdRIcNL6yl1U7G351w9fv8uP6qXKZYWHUrxEciLYwiEwHNwRklEZDlukpFwXVEmvZQ1a73kc7G4ytEmbBQISz400I3JtTCDvSo9sNF5HzlWpRLLUnZcPHcSGh+2VxfX6dIIHPjJ/csV/2EJ/Ec3CSSxnH9lzeTo4Sn4gS37rW2NrEEmoWghNfuWdT47ycc1JKWS3x5+7CAgzZysGmHAj0rVEgHSarbr+VAFCj3zR8HG7aE6FCIccBTXox2wNPS6lIciCeXh5Rm2R8HGxsbCUIh0gEvXL+h9P+iHAjHXUrzugQHqjrCL/sGkGEHCpawwQ4Fu5mMciDgLWjWcDihA2sEF27I03egnTuXevo2eMTnYHvLkUCEQrBCrDAduCNSstPAdKCKI/sA2aFL34G/+3kVOBR0sEWEAq1CMB2412N2HpM4UK2Zk47Z7xoFslX/LF0HYnB8dBPlYMuXFei5keWAD/RwGXMoAQfWlr1hQ5Fn+JeBd0xNIQyCDoRu4Niav+g+B3uKKyEqNzLjIHCSQ/pcWsCBeoRemSiSJCnjIRpGOMd47TqNIfRCDrbtSIgOhXKqDoZ7EkaeeA6ElGZYkztw+6Ttne3t7QShkLIDhXAgcpepGFjIwe0OCgTSAiUUluqAF9MZMi7qYHfPL4HeYyov1QEvrKU4ozhYxMHOzh47FNwKka4Do4ElyHIHdV36F6kuOC3g4N3+jiMhOjem5oDH7UKpIynKrdlDSHlWeSEHu7s79FAIVghW/yDQqxkk6B9wnFkwvTVM9+Jf5mCXFgpEbnzFigPBWy87C06VMB0Iy3zEZREHvV1LQkwoMB24E/ahaVb2mAmNM5f25NtCDvb3d51QiGgm2Q7sUdNAJOcposbOy1toXMTB8/6+zwK7mYycQxGOQyPnuDmURAugP8tBr+dJYFeI9Zh5JNprMXNp2vEyFhoXcPCEHPRCoRBuJjeXMJ/Ia0tYaAw4IOapRxrVwddvvV4vQSg8/jG3A/Xa+YTOfAt7ATQFB+H1Cv+yv+eg9Oe3515MKCALX+68OzZItJDDqaLXAnZV1oQ8YwE0BQfUQUjVm/f0OSh9/ysQCrQe09Zmx/9F1JV9AuLx99o1c30y5f0HtgPm4/ddZ9FPCBz/+vwcWSGUFvlFccvulHXkw2OWuHT3H1gOhBv2rJy9eSjooGQ8sSuE8mVC2YcR3FBDQt9PEJ55dt/Pp9dxxA5iZiOsTWQCGSfDv10LwVD40mB066tvNOZ9Zf39gwErLfS7818sgwEai4/i3oQLr4Xryvfet3Ao7OzN2F/UPaFGd1T9rlEXxoWLbqLLS8RZ/zzJRobTkxPajfoaCoUft9FfFO4fc8JJdJ739uV5FeFX+oMRhtVOOqHw45/YfZo6cV9VMb69D6YFXktvGi0dUFpwKsSPf5vk0U4r9FIg3SedHffSAq8lCtyfzPeeGQq93lfySEdWZGUctuDe1+TTAk6rstSJhJfw7hnxRFaDIZ4BlCVJqYcryAjf1/nGgai/pqaaClPGeHoi20MDrwvJ41tZlmSlHfpE7VzkYtsjgu7Rr5QK42kp+NpbjgupE3pHLed/EakzxnXA7i2adUJhdZxyyvCOuOiO5FNSBFDwy6Hgb+PX5NBAKqfM6EnQqJspMpwW8kdzrNAbQ+fQXXgjc74wyEQQxAqRSa7bg9kervQRw0b91mwxwx3H3NBU0PXFDBsfcFpQ8ttATGSZmgiCNMeSEhEq/3PqjCjXDcPw5YB2nttIvwOj1bKaweZkrCDkxq2TKQvjoLOnjEtmQyFLFm6qKI4DRWqgHw3cDMiNBooFlAotCQVzMEMthbV7Rm+iUZRiVoeCOaijlsJ5RUfVwexBF8xBw75sk5ai3OGfBXNQl6Wx23E2ZjOzqSiYgw7OhNKk1Rn6+k4Fc1CqW/sqcQehPrM9FM1BaYZaRdnsIsjOiLFwDkql4axdx/0DJEIuYk70MJpt/AQGPl4sB8N63TenZqA+Ix4wFstBB1UA3/FGER0MFUnxJlEN+3/FclAaozzYsppENGBA+QA3DAVzgJ/DkhVp3BiPZdxdMuePCuagNJTc+QMkw5pCK5oD9EtdUqyJpFZB+oluBvT3D4yHoX+8MMmzg7bsDZXJPpKLgcaSSn5X3AzZW2udydId5S26ufZKt5MPHtyNBkPrQUSSDmtrTp6wLnLcwP+GAt7ei5HjlTablt0YymRVsPbkRK1G5gfjFk+ZbJM1wdqfdJvrNWc/w2aTuFarjuR+70GIprv/yNqfRNmalnNmY0W2HuQwJuaoIb/9IiYG3m6B9+nOlILtSfNj1QA8oVq0vYl+zExI3aNaIPQ2SoXtwrSHDPRi5gEAAAAAAAAAAAAAAAAAAAAAAAAAAAAAAAAAAIDc8h/vAy08lBplawAAAABJRU5ErkJggg==;" vertex="1" parent="1">
          <mxGeometry x="200" y="-605.5" width="174.89" height="131" as="geometry" />
        </mxCell>
        <mxCell id="KMIFBZsHz-1hRJetGuWt-43" value="&lt;font style=&quot;font-size: 16px&quot; color=&quot;#424242&quot;&gt;Backend&lt;/font&gt;" style="ellipse;shape=cloud;whiteSpace=wrap;html=1;align=center;fillColor=#ffcc99;strokeColor=#36393d;" vertex="1" parent="1">
          <mxGeometry x="120" y="-680" width="140" height="60" as="geometry" />
        </mxCell>
        <mxCell id="KMIFBZsHz-1hRJetGuWt-44" value="" style="shape=image;verticalLabelPosition=bottom;labelBackgroundColor=#ffffff;verticalAlign=top;aspect=fixed;imageAspect=0;image=data:image/jpeg,/9j/4AAQSkZJRgABAQAAAQABAAD/2wCEAAoHCBUUFBgVFRQYGBgYGxsfGBgbGxgdIRgaHBgbGiMYGBsbIS0kGyEqHxoYJTclKi4xNDQ0GiM6PzozPi0zNDEBCwsLEA8QHxISHTYqJCs1NTUzPDMzMzMzMzMzMzMzMzMzMzMzMzMzMzMzMzMzMzMzMzMzMzMzMzMzMzMzMzMzM//AABEIAM4A9AMBIgACEQEDEQH/xAAbAAACAgMBAAAAAAAAAAAAAAAAAQIGBAUHA//EAEMQAAIABAMEBwQHBgYDAQEAAAECAAMREiExQQQFIlEGMmFxgZGhBxNC0RRSYnKxssEkgpLC0vAWIzNzorM0U5PhFf/EABkBAQADAQEAAAAAAAAAAAAAAAABAgMEBf/EACMRAAMBAAICAQQDAAAAAAAAAAABAhEDIRIxMgQiQWFRcYH/2gAMAwEAAhEDEQA/AOvs12AgRrcDAyW4iBRdifSAIhLTU5Q2W7EQg9xocobNbgPWAGzVFoz+UCG3AwMtBcM/nAouxOnKAIhaG7T5w3F2WkINU26ZeUNjblrzgB3YW65Qk4c9YduF2ucJeLPTlACtxu0zhvxZaQrsbdMobcOWvOAGGoLdcoSC3PWGFqLtc4Sm7PTlACK1N2nyiTm7AREtQ26fOJMLcR6wAK1Bac4SrbiYarUVOfyhK12B78IATJcajKJO12AhM9uAhstuI9YAEa3AwlS01MNVuxMJXuwMADLdiIbPcKDOEzW4DvxhstoqM4AENuBiIWhuOXziSi7E+kRDVNunygBuLstIZaot1yhMbctecO2gu1z84AScOesK3G7TOGvFnpyhXY26ZQB6e+EEL3A7YIAgqlTU5QMt2Iyhq92B9IGa3AesANmBFBnAhtwMDLbiIFW7E+kAJVINTlA4u6sINU26fKGxtwGvOAGWBFozhIbetDtoLtc/OEBdnpygBAGt2mfhDfi6ukF2NumUDcOWvOAHcKW65eMJOHraw7cLtc4S8WenKAEQa3aZ+ESc3dWFfQ26ZQEW5a84AYYAWnOEotxaGFqLtflCVrsD6QAMpJqMobtdgIRa3hGXzhstuI7sYAFYKKHOIopXE5RJUuxMJWuwPpACdS2IyiTMGFBnCZrcB6w2S3EQAI1uBzhKpBqcoardie7CEGuwOUADC7FYbMCKDOEzW4D1hlaC7X5wAIbetEQpBu0hqLsTpygDVNumXlAA/F1dIdwpbrl4wmNuWvOHbhdrnAEPdNDg9+eyCAJMwIouflApAwbPzgKW4iALdicIASqQanKBxXq5eUAe7hgLW4DHWAGzAigzgQ29b5wFbeL+8YQF2JwpAAFNanL+9IH4ur46QBq8Ph5QE25Y1gB3ClNf174ScPW8NYdvxeMIcWeFIALTWun6d0D8XV8dILvh8IDw5Y1gBhhSnxfr3wk4et84dteLx8oSm7PCkAIqSajL+9Ik5r1flCLU4f7xgK24jGAGrAChziKgjFsvOJBbuL+8IQN2Bw1gBMpJquUSYg4Ln5Qi9uEMrbiMYAFYDBs/OIqpBq2USCXYmEGuwMAJwTiuXlEmYEUGcItbgMdYZW3igAQ062fnCVSDU5QBbsThAGrw/wB4QAOLur8oZYUpr+vfCJtwGNYdtOLx84AScPW8NYLTWun6d0AF2eFILvh8IAn7xf7EER9wOZggCKAjrZdsDAnq5dmEMPdhlAXtwzgBsQRRc40G/ulmz7EQk5ZhZhVQqEgjEUDtRa4HCtY3xW3ijy2jZknIyzFVlYUKsAQR2gxDJX7KXub2gJP2iwyxKkqju0yY4rRQKCgwGfMxjb59o5FTsmzs6DOc4dUPaAoy7yD2RUvZzsEuftiJNQOols9rYi4W0JGRzOBjtpAUW0BFMtKZUpFZbaLUlL9FJ6K9Pk2pxJnIsqY3UYHhY52muKNnTEg860BN8+0SVLZpezyztLrmwPAvcwBL+Ap2xQunW7U2bbJiIoCMFdVGAUMKlRyFwanIUjte7tglSkCSpay0GSqKeJ5ntOMQm30KUrs55uv2oMXA2iSoQnFpZaqDnY1bgOwg8gco6UswOqshBVgCCMiCKgg6ikc09q+60T3e0IoVmYo5GF3CWVm+0LWFdajkIsvs32lju+VXEqXUdyuaDwBA8ImW9xiks1FqqKU1/Xvio7w6bS0mGRs0p9qnYi1DwKRnV6HLUgEDIkRH2lb1aRsgCMVee1lRgVShLEHnSi/vRjeyndqrsjTqC+Y7C77CcIXuuDHxiW+8RCXWsxN49L95bPxztgVJfexA7GdWIXxAjedGemUnbT7sKZU6lfdkg3ACpscUupyoDmaUxiyTACCjAMpFCDiCDgQRqMY4b0q3c2wbcyymKhSsyS2qg4jyYMvaFxziG2iUlXR2ree8ZezyWmza2oOKisxxIAwUE6jHTWKRtvtQlLX3Mh3OhmMqL3gC4n0i8bq2oT5MueMPeIj05VUGn6Ryf2o7NLTa0MtFS+WGe0AXNe4uIGtAMeyFN5qEpN4y07Z7QpUqTKNombQ8tHaUhoqMyhiGY1pn1cTzpnGgk+1DaL+ORJKV6qXqwHK8sQT+7F16D7vlSdjkMktQ02XLZ2pxMzKGNWzoK4DSNZ7UNzS22U7RaPeS2TiAALKzhCrHUcQI5U7TEPc3SVm5haNy70lbTJSdLNVauYxUjAq3Ig/3SMstYCzmigEkk4CmNTywrjHO/ZBOLLtMuuCtLcd7h1P/AFrGy9qm8GXYlRcBNmKrHmoVnt8Sq+FYsq60hz3h6zOmTz3aXu/Zn2kr1nLCWgzxBbOtNaVoaVjVbZ0623ZXC7XsSpdkUYio1tbiViOVfKNp7Lwq7CCoFzPMLntBtFf3QsZftE2FX2CaTmlrqeTBgDTvUsPGI7zdHW5hr09pmxBCzJOu+qVSvdddT1i27t2hpkuXMZCl6KxQmtpZQbT3VplHOvZTu6VOWeZspHsdCjOisVYhq2kjDJDFk9om+n2fYyJZteawRWGaihZmHI2qRXQsDBN5rDS3ELe/TWWk33Gyyn2mdiCkvBQRmGehy1oCBqRGo3j0v3lIF83d6pLGZqzW/edGIXvIEevso2JU2d51oudyoPJEA4Ry4ix8Byi+PLFCTiDmDkQcKHzgta3SHieYVbor01kbYfdMDLmnJGNwagqbGpidaEA99DFpoa1PV/TujhnTHdn0LbWEqqKbZkqnwVJwH3XVqdgEdl3HvH6Ts8qbSnvEBNNGpiB4gwl/hk1KXaM98er40wh1FKfF+vfCJs7awWfF40i5QVjdvnBD+kdkEANqfDn2QLT4s+2FbbjnBbdjlpACUGvFl2wP9nLsh33cOUaHpJ0r2fYeCazGYyFkRVNSMVGPVGIOZiG8JS05t7Kv/NFP/S9PNI7Qn2vWODdB99S9j2pJkwmwIyEriRUDGmoqI7FM6QbN9F+mNMpIw47WNavYOGl3WwyisNYXtPTl/tU/85v9pP547KdLfGkcH6bb5l7ZtTzJZNliopbAm0Z00xJjrnRvpVs+2AiSWLqql0ZSCtcM8VONcjCWtYtPxRofa5T6JJ5+/Ff/AJTc4zvZdT6Atf8A2TKV+9FU9pPSXZ9oVZEpyzS5rGYSCoVlDIVF1CxqTiBTCMv2e9K9mlSU2SYzK5mEIQpZXMxxaOGpU1NMRTthq8hj8TJ9r8kmXs7/AAh3Xsqyqw9JbRn+y3ar9iMtetLmMGHY1HB7uIj90xYeke6V2zZ32c4E0tb6rrirU5VwI5ExybdG8Np3PtRE2WQG4XQ4CYoODS3yYipIPaQaVwPqtIXc4duFKdvrWOQ+1k/tcuufuVr3e8mU/WLefaHsFt5mOGzs9291fq1pb43UjQbu3HO3pth2vaJZlbOCtiOMXVeqgBxtOJZjncQM6hT3pCVj1l36L7O8vY9mRgQRKS4ciVBIPdUiOd+1sj6XKp/6R/2PHUtu25ZEt5kw0RFLOaE0UCpIUCp7o4p0537K2zaRMlFrUlqgLChYhnYkCuA4gMeUK6WCdb0670RI+g7LWlfcSvyCka/2gg//AM7aK1yl58/fJGD0E6T7PNlSNlDMJySwtpU0Ni4kMMKUFcaRie0XpTIMmdsQJM6ssEUNq8STMWNAeGmVcTDV4kY/I1/sfrftdOUn8ZsXHppuP6ZsrS0t94rB5eguUEUJ0qrMK6VBjmvs+6TydimTfe3WzVQBlANpQv1hWtDfpXKOr7ZtTjZWn7MBMcy75SsCLqrcKjA5aYcsIicc4TWqtOXdFukkzdbvJ2qRMEtjcVIAdW6ty3UDqQBrTAEHnvN+77m70l/RtikTSjlTMmzBYgVSGC3VI6wBOtBQA1ipbv6WTU2v6VPHv3Cslrm2wEjqClJZFCMtWriaxc09qclhR9mmD7rK342wTWZpZp7uFm6L7iGxSBKVrmJumOMLnNAaDQABQOwRW/a9Krs8hxks0g0+1LY4/wAJjb7j6c7JtDCWpdHY8KzAFuP1QVLKT2VqY2vSDc6bVs7yXNAw4TTqMDVW8DTDUVGsW6axFdaesrPsl2tW2R5ZIuSYTT7LqpB8w3lF3ANccvSOIbv2nad07V/mSzQ8Lr8M1K9ZHyJGYOlaECpjoY9o2wFKmY6mnUMt7u7AW/8AKkRNLMYqXuoq/teK/SJFKV921e640/mi+dD5NmwbOpFG92ppqLuKnkYo+z7nm712z6VPltK2YWhFfBnlqSQgHJiSWbLiIBOY6iEpxen6Qn22KfSQJ9rwrCoa/Z9KQ6X9lIL/AIfCsXKE6r2eUEQ9x2+kEAC1+LLtgavw5dkF12GUF1uGesAN6U4c+yIe5Q4sqk6FgCaePjErLeLOCl2OWkAeXuhXiUU7QKRDaiiIcFCAYigtGOoyj2mzgFNxAAFSTkAManyij7730Z1UTCX6t2t2ch/Yy5eRQv2Z8nKoX7LudnSmCJX7q5wSZSrWqqCewCsV3opvsTFEqYf8xRhX41GoP1gMx486WWl3ZSLRaqfJExaqdR5iSteqKV5CB5KVBVVqNQBgdDHpf8PhWDq9tf0i5ceFPtetY8pkhJgKzVVlPwsAR5GPSz4vGkHX7KQBgbNubZ5bXy9mkpj1klopp3gRsH+z40hXU4fCvfBSztrACZFZSGANQQQQDXsIOceEvYpYzlIB9xflGRbXi9O6C67DKAPAbKitciIPtKqg01xAgm7HLY3CWhY5tapJwpiaV5R73W8Pr3wW2456QB4jYZRHHLlk9qr8o0fSrpImwSgStzvUSpeQNtKs3JVqMuYHdYrLscooPtS3RMny5c+Wpb3IYOoxNjWm4DkCMexq5AxWul0WnG+z33H0WTaVG2baonTZ6q9oFqS1YVVQq0qbSKlq+dSdptXQXd7ig2cKeaO6keAanpFZ6He0CVLkpI2kMtgCpMALBkAoAwWpBAoKgEGmkWOd053fLF30gN2Kjkn0oPGkQswlp6cx6adH/oE5VR2KMtyMcGWhoQSNQaEEUz7I7dsRYohetSq3V+taK+sUbZN1zd67Wu1z5bStmlgCTLfrTKG4FhoCcToQABUVMX8tdw+sJX5Ip+kQ2mSri0qrqc1IDA94OEYsjc2yyzdL2aSjfWSXLVvMCsZt1uGcFtOL074uVGn2vCsRFa49X0pDpdjlSC6vD4V7oAH+z40h4U+161hVs7awWfF40gCPH2w4l7/sggAYD4c+yBafFn2wgluOcBW7HKAEpNeLLtgeo6uXZziRa7CMHe+2/R5LvmQOH7xwHrjENpLWQ2ktZWulm9bm9ynVXrkfE31e4fj3RXlMeF5JJJqTiSdSdTHqpjyeTkdVrPKvkd1rMOXMKkMpIINQRmCNRHSej+9/pEsHJ1wcDnow7Dj4giOaVjY7h3kdnnq/wnhcc1OvgaHwi3ByeFfotwcnjX6Op4U+161jV7231L2YL7xWYtW1VArQZk1IwyEbML8VcM/OMTbN3SZ5q8tWIFKkY0zoCMefnHqPc6PVWb2aQdM5NepNpyomX8USbpnI+FJo58Kf1xgdJej0uXKM2VVbCLlJJBBNKiuINSNYqUYVdS8ZrMTS1F7/AMZSKf6c2vOiZ/xxEdNJXxS5h/g/qiW5ejkhpEt3S9mUMaswzxoACBGZ/hjZGylU7nf+qLrzaKvxMNOmcmvUmAdyH+aNhs/SHZplAswKx0YFfCrYHzjVbb0NlnCXMZW5NRl9KEesVbee65uztbMWgPVYYq3cf0OMQ6qfZKma9HVFoRU0rEUqetl2845nurfczZyLTcmqMcP3fqnu8jHQ937xTaZYeWcNQc1P1SOeMXi1RWocmSxNeHLsjUb36QytncJazNSpstwByBqRjrG5DW4Zxr9r3NIclpktWJzOIJwpmDXIRNbnRVZ+SobXtG65pLTNjJYmpZVVSTzJRxUxLd+17skMGl7GQwyYojMO0M7kjwjz6U7oSQUaXUK1wKkk2laZE40IOvKNLscoPMRDk7qp7mYD9Ywd0nhsplrS6N0zk/DLmjwT+qH/AIykaS5oPOif1xmHoxsi4GUT23v/AFRhbb0NllSZbsh0B4h41x9Y0fmU+wzti6SbLMwL2nS8W/8ALq+sbdSScer6U0xjk+27I8pzLmCjDyI0IOoMb3orvppbrJdqy2IC1+BicKdhOFO2vOsTyPcomuPrUXx8Or6QzSmGfrWEDZhnWC2nF40742MgTHreFYVTX7PpSGRf2Ugv+HwrAE7V7POCPP3B5w4ASknrZeUDEjq5dmMSL3YCANbgYACABVc4p3TrajSXL72Phwr+LRcLbcY530xnXbU32FVf5/5o5/qqyP7Of6qsj+zUKY9EMeKmPRDHmHmow4IVYKxIOmdE9sM3Zkqa28Lfu5VP3Ssbp8Or40xil+z6d/rS/usO/iB/BYui8OeNY9XhryhM9XhryhM1XSgD6JMOtF/Osc0jpXSdf2Wa3MD86xzWKcvyOzj9HUdxk/R5I093L8rRGe+HV8aYxg7kf9mkrzloPNBGcBbnjWN59GL9jAFKnOPDaNnWapSYtykZHDHmDoe2PYrXi/vCAtdgMIkg5fvvdjbNNKE1U4o31l+YyP8A+x6bg3odnmhq8DYOPs/W7xn5jWLZ0x2MPs9acUo3A/ZJow9Qf3Y5/HLS8a6OiX5T2dhShFTnEVJPWy7cI1PRiaZuzSyTiotP7poP+NsbgvdgI6U9WmDWPCpdPgLZVMrm/ARVt1f68r/cl/nEWjp6KJKH2n/BYrG6D+0Sf9yX+cRz38jePgdVUA9bPtwwhKSTQ5QMt2I7oZa7hjpOcqfT3ZlslzAMQxWvYQWp/wAfUxS1YggjMGo74t/TnbBwSQQSDc/ZhRQe2hY+XONT0Z3WZ00OR/loQXPMjEIOZJpXs8I5qW1iOiXkdnR0x62fbhEamtD1f074ZF2IwpDvrw65eUdJzifDq+NMYdBSvxfr3QgbM8awW/FpnACvbt8oIn78cjBACZQMVzgUA4nPyhKluJ9IGW7EesAJWJNDlHNulYptk3vT/rSOllq4COedNdnK7Td9ZVNe0VX8AvnHL9Wtj/Tl+rWx/polMeyGPBTHqhjzjzkYUEEESWLZ7P8A/Vm9iD8RF8Ti63hpFL9nkk/5szThUepP4rF0biy05x6f06+xHp/Tr7EanpST9FmjSi/nWOax0vpQ37JNXUBfzrHNIjl+R28fo6nuMD6LJOvuk/IIzU4ut8owdxofo8k6e7l+iiM4m7LTnG8+jF+wLEGgyhuLer84A1Bbr84QFuJ9Ikgxt4yg8iYDmZbj/iY5QI6tvM/5Ux9AjnyU/KOUiMOb2jbi9MvPQaYfcuBkJh9UX5RaGUDEZ+cV3oPw7OxNeKYxHcFVfxBiwqtuJ9I0j4ozv5MqXTw1SUTnc/4LFQkTSjq69ZSCO8Gowi4dPsVlH7T/AICKvugftEn/AHE/OIwv5G0fE3C9J9sGSr/82+cY07pRtJwvVD9lQD/yrSOihrcD34R5ztmVhxorryIB9DGriv5MvJfwcplTRffMUuK1YXkFu9qExfNx772dwspAJWgQ0AP3WGZr4mNfv3oupUzNnBBGLS866m3kezypFNjPahmuK0dgfh6vzhlRSuv690V3ohvgzUZHJLy6Y6spyJ5kUofCLCFobtM/OOiXq1GDWPATi63hpBca00/SBuLLTnDuwt1yiSCXu1/swR5+4PZBAArFjQ5Q2a3AQ2a7AQK1uBgAZQoqM4rXTTYTMkCaBxSjU/dNLvI0PcDFjVbTU5Qpku/QEUoQdez1inJKqWmU5JVS0zj6mPVTGbv3dZ2aaVxsbFDzH1T2jLyOsYAjyKly8Z5Dly8ZiQQqxu+iu5ztM2pH+WlCxOTHRPHXsHaIvMuniLzLp4i7dFNhMrZ0VhQtxMO1sge0KFHhG6fh6usBbCmuUC8OevKPVmVKSR6sypSSNV0pUfRJp1ov51jmkdI6VD9kmnQ2+rrHN4x5fkdPH6Oo7kY/R5I093L/ACiNg4ty1jX7hmA7LJH2FHjSkZ6i3PXlG8+jF+xhQRcc4SG7AwitTdp8oJrgjMADEk4AAakxJBpel21+72dlB69FHjifQHzjnYFcBidBzjb9I96/SJoC9RKhftVOLeOHgBGx6H7nLMNomDhU8A+s4+LuH490c1fdWI3n7Z7LZubYRKkS5ZzVeL7xxPqTGUrXYHKGy3YiG7XYCOlLDBlR6fCiygMqv+CxWN0H/Pk/7kv84iy9PRRZI7XPosVndTUnyjymJ+cRzX8joj4HVkW7EwlYk0OUDLdiO6GzXCgzjpOcTm3ARy7fkgS9omqMg5IHINxU9Y6iGCjHv8I5VvTaBMnTHGTOxHdXD0pGPN6Rrxezb9BxXaSNDLav8SRfbiTTTKKj0H3e1HnEYHgTtANWPdUAeBi4XVFuuXlFuNZJXkf3Cfhy1h2il2ucJeHPXlCtxu0zjQoL3rQ49PfDtggCLLbiIEW7ExFVtNTDZbsRACDXGhyhs1uAhs1woM4Ea3AwBh723Yk+WUcdobVW+sPOOdT92TJM5ZcwZnhYZOBjUfLSOnhSDU5fOMPfEkPLJp1aEdhB08Kxhy8Kvv8AKMeThmmn+Tmu7dxTZ00y1FApo7kYKOfaSMhr6x0zYNhXZpay5YoBmTmTqSeZiewKBKVRmR65xkIbc9Yni4lPf5J4+KY9Dtwu1zjw2jalRC8xgqrSp7zT8aR6hcbtM4xN67uTaUCMWABrwkA1oRqDhj+Eavc6Nl+ys9JukMqZKMmUSwYirUIACm6griTUDSKjF8PQ3Z8r5tfvJn/DCPQuQM5k0cqFP6IwqKp6zWbmViNJuLpGZC+7mIXQGqkHiWprShwYV7oscvpZszdZnXsKN/LWMf8AwXJz95Mp3pl/DCHQyScpk0+KD+SLSrXRDcs9Z/TCQool78qLT1an4RWt5b6nbUfdqpVTlLSrFvvEYt5ARapHRbZUwZGdvtM38tBG22TZUkiioqj7IA86ZxLmn7ZCqV6RVNx9ESaPtGAzEsHP75GnYPPSLfKANFoAAMAMKUwoOyGykm4ZRJ2uwEXmVPorVOvZFntNBlGHvDeknZzR3CsRUChJpzoBzEZysFFDnGk3h0alTnMyYzgmg4WWgoAMAVPKFbnRCz8lV6Ub4XaXSwG1AcSKVLEZDlgI0gNMRgRkeUXv/Bkg5PNp95P6Ij/gyQerMm17Sv8ATGNRTemyuUsI7B0wl2ATVZWpxEC5SeYoaivKkZjdKtlAqHYnlY36gCMQ9DJI60yZ4Wf0x6yuh0hcWaYw+8o/KoMXXmUfgaPfnSdp6mXLUohwYnrMPq4YAedYW4+jMyawaaCkvkcGbsA+Edp8IuOybnkysZUtQR8RqW/iapjPZqi0Z/KCjXtDzxYjzVBLAVAAoFAOQGgj0toLtc/OBDbnrEbaG7TONTMacWekK7G3TKG/FlpDuwt1ygCXuRBHl7kwQBJXuwPpAzW4D1hswYUGcCsFwOcADJaKjOBRdifSEqkGpygYXYrACDVNpy+UR2hOEroRHozAigzgQ29aAIpLtUHUCGouz05QBSDU5QPxdWAEHxt0yhtw5a84dwpbrl4wk4etrlADtwu1zhLxZ6coVDW7TPwhvxdXSAEXobdMobC3LXnDDCluuXjCQW9aAGFqLtflCVrsD6QFSTUZQ3N3VgCJa02jL5xJhbiO7GBWAFDnCUW4nKAGqXYmEr3YH0hMpJqMok7BsBnACZ7cB6wytuI9YEYLgc4iqlTU5QBJRdie7CIhrjacoGF2K5RJmBFBnACZrcB6wytBdr84ENuBhKpBqcoAFF2enKEGqbdMvKG4u6sMsKW6wAmNuWvOHbhdrnCTh62sKhrdpn4QAe/PZBHp71f7EEARZLcRAq3Yn0iMk1ME80OHKAGGu4TAzW4Dvxic0cMKRiMecAIrQXa/OEouxOnKFLPF5wT8CKQAw1Tbpl5QMbctecSYcPgIUg1rWAC3C7XOEvFnpyhA8XjD2jClO2AC7G3TKBuHLXnE6cNeyIbPjWsAO2ou1zhKbs9OUJjxU7REp5pSkAItQ26fOGy24j1hqOHwMQkYnGAJBa8WvyhK12B78IUw8XlE5+Aw5wBFmtwEMrbiPWJShhHnINTjygCQW7Ewla7Awp5ocI9JuAgCDNbgO/GGUtxEORiMecQlnigCSrdifSEGqbdPlCn4HCJuOHygCLG3Aa84dtBdrn5wSMQaxFTxU7TADAuz05QXY26ZQbRhSkSI4a9kAHuBzMEeNTzggD//2Q==;" vertex="1" parent="1">
          <mxGeometry x="470" y="-605.29" width="154.92" height="130.79" as="geometry" />
        </mxCell>
        <mxCell id="KMIFBZsHz-1hRJetGuWt-45" value="" style="shape=image;verticalLabelPosition=bottom;labelBackgroundColor=#ffffff;verticalAlign=top;aspect=fixed;imageAspect=0;image=data:image/png,iVBORw0KGgoAAAANSUhEUgAAAVAAAAEfCAMAAAAgOG5SAAAApVBMVEVHcEwGbaUGbaUGbaUHgcMGbaUGbaUGbaUGbaUGdK8GbaUGbaUGbaUGbaUGbaUGbaUGbaUGbaUHfLsJnOwGbaUJlOAIkNr////y8vIHhMkHebcJluMJmegIdK4Ii9MIk94HgMFNXGQGZ532+Pl8r8vA5vm41eWCzPRCkLkepO7V5e7j7fKPu9K3vsFhv/Imf7Clyd02re5dn8NHtfGGkJZmcnkZmuDmaju1AAAAE3RSTlMAEGCg4PCAQMDhMNAg4JBQsHDoUT5M+wAAD2RJREFUeNrtndliozoShgEGiTH7xI7jNe5JZ0+fTnefOe//aGPAGEloA0MiSP0XubGJrc8lqVSlkiwLBAKBQCAQCAQCgUAgEAgEAoFAIBAIBAKBQCAQCNSjZr5UAKit8FwqAARAAegEgf6Lp/8A0M5Ar3i6BqAAFIBOF+jtes38BaAXAb3m/QWgABSAAlAQAAWgABQEQAEoAAWgALQ/oJvVivkLQC8CCtEmAApARydFjp2rIMf2b64AqCKD2UUAFIACUMOBinPsXV4BoJIZu8srbT4+cW0A2iNQ25t7GID2B9TN3x/bUwQqyLF3eaX1jBjNvk7kqMsr+h0+qhwDB4D2ATSuXa0YgF4OdJa/ebcviboA9GKgfv7m66vtblJEPw9o8cn5THZ1mBLRzwNauEybq5poBkAvARrmbz2c/NeSaAJALwCa5W+9vSKJeiEA7Q40j1Lv6jXWOn/SB6CdgRY9fkWsWncTGUY/C6hTT0mlbotOb08GqCDH3uUV7Tl+RwVWVtNYMX1WtCki5niy04cAtBvQ/I17zsMIgHYCitkhtJrpvXFgm3XNsXd5RaeSPuH9JvvxePcD5DYvy4eixpyUazxLeiOBrhtA8/VSBED7A7ofzTw/QPb9soy9ywW6Hc0gOsBcftn87zMLT8IV9eNypiwU+DHCNgBVAuV3+TJE0lSAZgC0E9CVcPgNHCOB9ph9vyxj3xrofO6HBgLtMaZ0WRzK4ZtyAXS9Pqz2pVaHQz0KeBkAFQLlLj2PQNeH/YLV9WptnJEaB9TmBEfyIOCCr+vDyUhnAFQQeg6a4bujFkLti+BeBBYqAuryFvMbMdDFyqg9UOYBTcptI7oGuljsjIrtmQfU8pp9XmmgCICKgbrNeV7C07QUnoFAZ3PWRGUGejAsyWwg0GrzXR1qEuPcrOaGRUpNBFp8p91Wx0CLh+fYQKA9Zt8vz9inc3JBLzHQ251xuRHjok2Wlfjl4melNNCSZ2ADUDFQHFf1CoetykDLNZJnVkTUIKA4QX4dk9srR9BTRM+AAXQ2bPa9U8Y+okOch61qBL1em1N3k80N12qj8ukrnGaUL8ZG0zzsVT797TkMGpgxfvqmstytV7eKqMh+ddjVRWGGzO850PXhqJVB2l/fcmas0kDXlehUkjHTezFM5V/0ynRtyemcycwZtDwqvJJRAC27eTMnH8VGbcs5A92OwkD3DMw0M21zw2iAlgGlwkBRoQwbecrDWIBu6giy2XtDRwJ0S0SQ8TiAbkYwIy0KB94CoD11eMOSxAqgC/M7fJEkNn0zeFQ59gvzO/xqDIWe+dLzsDB7VtqQuxhsANpXhzdsF4NARV3AwuhZiUwamV+IjIwHuiF3MZhf5FlsEl4YPCttyW02I6j3KhJzt+YOouc00nokh7XZtSO6NXgALcNMgTUCeWdHdGPwAFoa6CgOEfXPs9LC4A5fuEzpGHgWac/dwsw+v6U3fo7jYAzH4FlpQXX4kZyLEdaz0sbQAdS8jZ/KWelwySD6/Ofxz/OQE9LtfDQzUq70skH01/0y1/2fwXiWHX48ZzURg2iHPv/XstJfA01I5Qwfjec0sfC816FDn/+Vo3x4ee2daM1zP64Ob5X1f+uOff7Y31/+9+3btx9HoK+D8Cx3Jo/q5Ku4e58/GuhNzvN/fXf6BT2ABmPiWdYCdevzj8vlj29noI8D8FyN8QzWqO7zm25Av/3940ePQBfMADq2U4KLPn/dxUTPQI9I+wPK8hzd6ZblydFdpqWj0/RyAtqfhbKlMiM8Itivfft2Jvp8t1z+XRno8rlnnovdyDxQ2rdfdTHRY59f/vj7OIT2NictmAneG+UlNVFXE716Oa+UXp6H4DnSY+tRZxN9vj/xvH/u1Z+veI70yh/b62yiV38e7u/vH3qJjTR5jvZsYNJEPy0s2uQ53qtUKBP9pMj9ZkI8TyZ60Oz0+xXw1DLRarkk7/R5JfVmyO5+OwGeJ190re70ZWH6YUieE7ncyyfmJRHRzaGqELodrLvvp3JZWhHFqzo9bxjdrM6lqrvv90OZ56m0awoXexXzUjXTM0S3e6Lwd/f9rs9o8qZx9NJUrvAsT4leH/bXBNHt9X613hHlgD9znMvl3XP/5llNR1O5CXlWzPTz/+aa73aNGupcv9+rtft9/+Z5Gj6DyVza69RAC6isnt5el7UeezbPqrunE7pW2hUT/fn7/W5J69L1+5ZnnuO/2ody7wOaaIn059P3h9dlU3e/+sNZmefULpIvF0w/39+/l3p74KLsIQS6WfDM07etiamcmJ4ebiotZepKlLHO24N5R6b3THRXE5Uive8B5/kcET+0rOkSfa+J3kmIPlyMs+rtkzRP0h39fqOFtGXqgz3Mar+etnmSRJ9etZC2GEe3QpxRYk1ZYek9kQPpEamI6f2vbjRrnB6yJi47PS00SSMVMr1TBkq2TZqLOnbl2tb0hU6BpbebGw2mjy1hnq/tyHGG1pcQPp3i+fRwc6OGyp+ajiy5R6iu1l8OJ9HteUgLqhTWu0eapAAlOXJ+LZykkc6f3m+Euqt0/6vAuJGd3L8g49Qesq0vJht5Vazp7eVGqcd/ZCyJs1MLv9OxvqJCtw4tv72qiL6KkZKmeTTOOLS+qgikxwDzSwek1ysK5txzE+tLK4w9Ms789iBn+v6LOtSXyaJ4rmNbX162E9CpkN/fHyRY7//6p7jJcNc8OzUBmNX6Po4ax04/HcEWMehSb3lE+vfT0xP3kGovzULASDNFQccTvyM3mwE/bt9P4pZQg9TIa6DN8vez2PfUVunHCINdtsCKEYqrC0Qqhke5CDkYjBIEAoFAIBAIBAKBQCAQCAQCgUAg0KcozNBHpnVtB007ixx/bBG1443yUEB9nfYnf9SxXXg+wTJOSlUW+INOjq227s6nmgzF58zvx3ze+eMwAAWgABSAAlAACkABKAAFoAAUgAJQAApAASgABaAAFIAC0LEoTFDq+2UBEdYFipFbPuMjRze1NnPQ6Zk4w62B2k7qu1inDYKgv51/OpEjs8/P+Mjprf4sZKsz07K2WgrUSdkSYjVTtrSWKYlXAs08Yc4pzPhtYN4VkUeLs9XT86iX0zjIowPogz7EQG0UcR7y5V0V+7zSREcbaOgLXxe3gZZPpAHrgz3IZy7O8NqxoAjTyywh0CQSPCQ5xjf0RdWeWA9oVrc/1W8D/R3mddYRCepQLySKJeWtfsIHaqfiZzxRxtmRfFBsq4HOyN+DvqEbR5I2hPxZdiaulr6o12ea1ddU0+SV2/xtCq68uNtWAUX0+6mfSvqvqavVaqCSn/cSF8Odtwc6U5Vscy6TsH1VkbctBcr+hm6bNjg8oPNBgGrznLfgybkP0lafRuBKgNqItbqwVRucdkC7762K5+2BavBs2miqfsQTA20MkeSFAEjn2ydtgHa/HpQde3yEEge5gQwoa2uRi7IEIbZHI9kP5/kI4Qy5UeMTeECbMzj5zxO2DTFymm04j6NcoOUz8akNUWcDDSlbC2o3OOQ4FFxb8+LaVBxfOA4ljOtQW7urtlCpeTJtiIRtCIRAiWdsx438Czx7X+zONgatOY8Ncz4q1XTiGlibbFqABb4pfwxtOGiMY+kLVgiNNiA+UK/HjZqO1B1nh8rTlySYNa86sF1uv4ylLlVGTjMs0MSTepXU78tpQ9CYaRigvV4vEEn9HHawbMwA3JtzCa/Ws9nFiWARUjjsJ1A0UJV5tmqDywHa62Vhjur/2lETqCfnSVkjaro1ov414y49G0urhg2q2xAwJooH42kF/FUH2cwGUEft/Prs6pAYQdU7vYl/31j5c9a0vtLVCZlPx83VWV8Bu/ofC4OAiAWaqn9cgl/C/Aga15XXQDOleZJt8ISuTkL/wLinFaZstHO1hlm6vZ6YDWIM0m0TxalbLwxIcduAdHyZGQ2059sWU52FVkYDxTqdtzbRgP5RojYpEEE0StQGie3XJprRQHsu3vEEkUUaDg0UaX0Zl3ompNrTDWiEFR0owBJRLcXKmaNrVFmvI6YUHFfL2BJqkMLqoVoJ1G9pz5I1OtYZJS5LZ0rbiSigvt7wQwHNqKVlxy7vqr0QzQAPHiqvqpkfxnygSG/FgMifxLcuGUPlX64LUNsAoN5cq67O7x8od2C6DKhlAFDN7jIEUB7R8QON9CbsvoD62VwaOmgL1DMAqNNlDPW4QIOWQPOVpiMl2haoOyTQmV73jSlHydfxXQnPE1NOVDug5UrTlS29w5anZttDArX0IhYB1WFjLRfIEaz1kjbfKuNk4BpEW+FEtjUo0EDHSQ9pNzjTgpMK1v9uG6C4GRRrdoyg/apnOKCuTp93aYIzncRgyLwp0AioSIBScW5XFHzFnw/U0YATsrtTIo0WpMziLm6z2OP8fyojhQSLXP/zgRJxj0wd+UpZkwjU3/i0qJ1pBF5lQOnslsP3J7SP8BhwB7GrymaQwTunsXqOlfHloBFUVYfIuT2AIpq0a8MHAsWqXIDD5Mxpm+VHqcgRz2n+H767ZWOMZUDF7miozGfMmEsxhtzjTsAJQinPeujC8sUgyTPixf15u0cL1z+aSYCKiabyNhS7WKlo6pBAZ7IEGLX/JeL+Cs17YDG/bzqibR+FkfmyvHxzPqdtMZQm8VBz7B60CiMW7yBwIsG2GmrrC73tgt6U7fP7AnNDJ7Ep25WGX0QOPrU7xKd+LRxwRpphy1rorQx+VcfBFhbEot6X1ymcWm4zFQyU00lvQJq7yelFTN5hF8jjWb7AwRe0ga5g+CigIZuq9fLiksaiTWwr5evHZxqby2byMEZEXwek2M4oc/C12vBRQLX2ejamT19j5exIZjjZrkzJwoHayIJatcH7MKDNzVhqnjq7kR2pzyDZEystWvD4w7qaaPxxQJXfhufe2WlrnmqirqXMCZDfNe3YhuFrLeUVHa6t9g+kVRcCn6qhzFIDJX8UKkYWSttA+b4fULxqi+mId6NKhgph5ZekECSSr5SUER1ZG7IPWynVH+K3Mk9pEyJZIM3h12cRBYSpItQXi0IJwjaEgphQag2ppPl1PFex94e6CPm8T18VNIxkOOvVG1KEdDjAeUg5bUDD7HNo4smoHfd6Fz0nVB2Hj3QiPjPqAtWIvZ9beWSwS6z85W1I+W2I+95aL2krRggh5OAW+9Js7BQPtbrpFCenD+K5EA5C0s+fIdkNtac2ZJI2hAg5cJsoCAQCgUAgEAgEAoFAIBAIBAKBQCAQCAQCgUCgyev/jain01nd9dkAAAAASUVORK5CYII=;" vertex="1" parent="1">
          <mxGeometry x="674" y="-858.64" width="116" height="99.08" as="geometry" />
        </mxCell>
        <mxCell id="KMIFBZsHz-1hRJetGuWt-46" value="" style="shape=image;verticalLabelPosition=bottom;labelBackgroundColor=#ffffff;verticalAlign=top;aspect=fixed;imageAspect=0;image=data:image/png,iVBORw0KGgoAAAANSUhEUgAAAggAAADfCAYAAACTWCvdAAAgAElEQVR4Xuy9CbStyVUeVufefj23WuqWepAEQliAQGIygjCECGSwDBgQJgwhGAQSiACCGCd2nIHlOMkiBLxsYBEPWCzAtgADMWEy4NgWXsILOUKEGQmBAM2tbrVaPQ/3nqyqvb+9v29X/fe1QFJ3v3fuWt3v3nP+v4Zde/j2UFW7/X6/b4efAwUeIxQAs+7ol33b5ej3re3pz9afw9/xTmv9czzX28JjeIRfw7dVUPat92yNPxwh6s/HYLrY7XKgQwr7n9GQfdDHiPGNjuSZ8/Q75ugTLe/1dkpXre1thL0Tedz/sO94oPnUfr8b04lnYhF8HjH2Pm//Y9Cgd+vvjnWw1dxnY8SZoOCuD9UI4z+2Ejn+GGcQlmnFM/E1GOMQNiqraq3njMsL/o2N29d2tKdvWQ/WivAtcRCmNkgI3hy8Yms51tQIR7yXTF7YPGk0huVUUga3VUWzwdDoa8XgyZhbvD/Li/MW+Mz5ZYzc58k8Pt6vfBvrPYt18gKNV1VDyhL69kGC1ltqcD0XfTpI6nycI0w+AHuMCfe1cHEY7+72QxaIqWP+fc1ND3S62xPE2imW/kXIMdiE6FhVTXJ27br3eQAIWzxx+PxRToHJwLGGYIFYAQQI2Eowl8JUNOrDUFTQusN4wViHdLtGHgofCo0NiwOYjUlWIeelAnBRg05PhNEhRRPz4XnqnOc+vQefgBmfsC4OnwggRAPZEhSZj8RHAVM/o5qZHAkazOjihwwoAAmjQjfR9nRFlAAT3P8MSsJIhyFnRgMt0DwsIACl0lloK2S3doKyZKmSdmy+lGYPx7DZigHYMCihVYEhXeDtlZqo/SZXkOCA9ADrzJfUH4v1UiXRe9Jv/ZyILBRbYL0tt3kpd6t2i85ZrYNCTuZBlaE6Z5UBJhR4i94AO4x/hZOE71frNZbnABAe5VbwMDylAOShyhNkCug67K9Lb3insxAN2dnyVNxRUgVHGrxGLFj/jcc6Ctc+R1QgMIG3BQF2zzn9zmq8YDBsRPBCU8Ddl8YH4m3aZEz5KQFjRvBiSKGkgmb1yEacVTh7QPuMBBQFNd4ObxsLwDCBvXUbb5r/MvYYPFtPV7/DUyQLEPQFBaqHD7Vt/+aMKaoS0Z9c/Bibz6nPbTcpZB/LmGYq9uQHMC/Ngzzd+NSjLsZb3pJiE/dEfVSBOwPJGLaRqAEBBB5eiWAR50vUTLzZhSxOamyQrljmAsy3gAfj6bO8aRlrMeLWdQHk0aHyuci+8JrLYqoYDempKJTpMN/lgyG2JVYXLDPWTfXP+M4jhfY+65QaHV1BAdJPCGlYoweAcLC/jw0KsLCvBZYEoWoxQdFuhFjxhXJNxaDh31WkMxMMIpQlulm/07HvR8h3fJb2ghaE0hALgMOYJjMWMAoZipzC2bAMBShIOkM8oCQolFM2YQMfAf5CZ/ublFXEkTlqUvjP31F4kKBIlCMgA1lOHmmG8gGI1ODDXPe+Ql1H3ilXaoR9kc4ojJh00MlXwMkmJ+2QAzZTxMYHg+7W1vgE5GMgyqCg6Ps5baEAk+kar1IbREoydj636mn7yg/awUiy7Yql79EXlYQqokHtLaB+RuRC0nMVY1XQMb5XVM9rI2wfslyeAJG4L8Ws2QWvX0D6CnYLUy0yOgJmoi+knIqcBeOAlwqokLwr8XnkHW08xtuHFMNjw0JexKOs4lN0Yupb/2LohOJRMbAm581VnEYQwqOblG96nSFARZhJtELBazrdtDvMag4AtqDmpnPhGZKYV5wuIBvOIdpIXTDfUCjX+vXR7pHBr0y2zpNrvj8NmubW3RQtCkIEOEiXST0dCY9DLZHl41MRjjoK5Othccm4g+5kgpN/Iq6Dbz01BOZh4z0aIiYD04URTeZRY6gmKPlgZjbxsAl/xJNUO4NJzMCqRmIyXCYysvJYFzpna7wyeh4X6lL8gTS1abkBplbYgE3zlgqs9jDeIdaYUgYVOJyhX2UM9Meq1knGMtXrWCc2rBzcNEcet7cREJZlHr/3Gh7WQxUk0dyUF3UcGB1AZgetB4BwBmMcvnrkKMCMnMqPQ/Nm1MMhIIMX8ke6+OEoGtiTUT9UvAf1XNMkQZZnwSu0I6dFisEgo2JYqjvCioVeEAXE4WsfvyuQzC9Xl8dHPXmGcwHVzAlOkQAiSYFSo2eUHAVZpcjPGyV9GGoz1wuWBXkZV69hkNPymKHpBY9czMfRfBQyJmNYP0YA46dMLQQuiNoKUqFIG40+fQzF6FhBmXvXWUXgjWRUIrx+aseK1RACB0N60SBZ4y2+ThBXqvFiId2rJ1abDOt4lr1dvMzvkqTMZJgFxZqUglDmrZxaQrgKHOKZInTjTw7BJ2vMBYDFaOaf1uiSFlPEwJ8iQ80ml/XWWZqUljNUF9RZgOkoaCY5K51lBLACfswJ3L5yQvyz4EHjmwNAeORs4KHn81LAGZtShSsvA9K8LCxagYRQ6uczxBWasKFeQZj8PsbJ1o8NYkUUkmtefCnGVM1CFkHCDVyNDQqA7NOwbYsBuppSZZ3aKNVPLUp07Y9Hyw4KKDvYds5JuNn3WaZxEOMxPKU0muMdBgqLCn8AE4cBUx2DKuekqxihaVoGVsYzskuCW5s5tdLTwsZpMQM+xY6FmCAZDm03V8/WQukI6tVok4/bm7KIiy8a55nwfSyCwuYcXfmcWYpIMhlCwnzJEwsZIt4fI611FySmy1oijmIUELdSQTLOIkomL1xElICHV+ZsY401X0c6ja98V0NECk1WESuINStETRlb1QiBZyOLlbUovKuG2jwAhBWHHD57RClQzdtUAFUVQhgk0iSk1JFyFNV6hhJbghAO4W1jg6AbhHx8UEBKEtcayiI1zgEoeFFIoMszvpvSB0Sk3sc03/wg9UFOzEemqRDq1vLODhCgtV2ZmXO9qt5Uz4UrAmqVB6lCiub4tjAofArThn0LU5r0S6Npn60TJ+Sx+oLo+DAlsjZhYOek8cqHS+YoO1cGj1i7sS21jHOrpgGsn0tTwVVaebEllckdqARoWRQR1vhPBVHBo8TvAaTmgaqsCG+t1U/wOb7GHDbWoQISbjXliXh+JdfOxqOLlRDq5o+J+7bkVnmSO/YU5CJiwEI83nc5w9ZIjfWA1zdUOUcKnNc0gWoLdgAIj6gpPHS+ogAbrGGECmCfamwYF1TEz/X6pdBLQrhuxbcEF/n/lcCzopz2MlNul3eSQV+Gma7eGmkkVXRk2FE74O+iKFxSL8V4o1+1Dz4rL4mX8HRR3FbfYBXo0YYbtixUY+NMhZgTaJhrC5i+vD9bnW1rU6vQF7UHU16dV3feFZEGqLdPNXpsnXGOwCCkblRLIJhbE3PtaNtjDdyHtsf4yMjLQumWAuWLWmiZaZ1YQsWciuF8DPOeDqKD4D4FIrFHHxEegLeot4Eg0vbTIvzJ2aVPDdTEl2O9tmocVih/K41HOkNADwMPgPAwzACFlprioqcEtznB6KLSw7/QnQmZUkqdYQ+O5xzMEYmzrNXHwrQEKLbRJHCQrdciYBj3ASAcLPSjkALB3BtbCLeGPN5bAYSVUK4aIaXCypd/Z08CBoUNv3h6bEFHpIC87iGrCjfGgUGB5lkTscIk0Q/l4qJfoghZbOnviKfFbp71pcYZlc8+DtralznzOVQZZM1tFfJRBsGp/1Cw2CxIaAnK0Ec3nijudB6qNBfk2cx5rmmoxbwjasChlkiR+AE2wz7DINA2PRp/siB7cMlBMh7ZLuk1JNSnAZCsAjCDyJEGMkC64aVYJkSQYFy4LmNtZFk8ki9W20UdTFUhodIMrv0MGcWylEJLBT06v1hG9nhZ3jfkXKVsnpl8X/XH1oD4UCNXCimZ6r1rAXFKQC00Ft0laRQIeg5OMGsJYNk4HOazHIL4iE4EL/MuHY9u+fuHCMKj0EBe9EMiwwcHeAqxgqehs8gGIP8H2wBwLLJOHiJv0Vo5Homny8oUuQ3jLuXN+k5WjpMm8rEvayim6LVqsFA+hFY42uG6YgpHivvPmnfj5D8oHUq++ymPPnj2uId+8lFM5yokhlPjbXQCRAijHsWDyD2Xhfd8vZxAR5MGfVJpAgylWcA4ajke69MwbIhcTCc38th5zZOjkv8UAMXnsbRe0BmnHpLXF1SaOXWz/VrNG3a+RiQWp1GSLC4yOrOrD14GUgIpNsD3JFsrA634zihAVp3lfRNgJEwNMGwGmTrkNqm8JdhJZLEM1NvX/jNCxtEw5XRC7Zin0y6iBWW7xCpCgcSZnuLhkQ06LGOMj1mHd/ggKkgMeQAIF701fvQQAHwJ/j3LWIf+0VNtbTLsKW9ZdykK9NfIQWIUrrquaqYzjjyNKGTJSLvHAa+dx8yrUVWQGSk/npiKl7I5ewPFTKkMmLKu00MZle0Vw3PJan/ToQjfJzFjRqjmj+LBnMGkjJbREVbQrlADMCGV4F4uH+ISVgEnHII2GXNWZQ0jy596NMENRexg8EiORYYIPgiQS5qqGQD7gYNgOZwpixHI+ICOj031kg9Ey2vxWTwP414WgusQB0vRgUXcL+9gCFnU5UpjQ5in8nM12uPR+vzC3pKdomI6misJy4zJLeoToJ1AcG2XsQPaEZmKSA4VgVIOasXnrHaylJc0GwNoEMy9/ajvkcIiHLueEDqVHckcy0h8nIwb0bbxESJjCOMUlG8Rsy2/5dFjOA4juQgowMVAPt2zAEKYabV94Z5OSiCK392Iev4yvCLo8fLvegypzUT5EXYwxVuC2xwCJa20OtxGzdhWHriW9rmXPV3eQPzDRVVFSYuXI+mdSmR489queJgRIs2GIoHgZ9BXrtatpGTdot4AbwDdkdceKQLAuTTIpuHSDSV8Voow0WcmnPPVDNOzQ5uGYMUpbPTFbcuCRMlPMbjKwhuuTOc4Ba8Ka/HicBKT0DbJxXBnQOWnbhKoiT636mnPCPNvAWGs2PjeO5AlQ+aw7l4QADRzkwDwDRU6+oHu4SLR1SJTBKGIOkOVSAr5nhtJe8qaycQJUmzKxyzvKplU0xNggwZNax5RxsqWscXbZngACBeB7X0sTVEMO+n16mCIovLnxjOsYPA+SZEBbG1NFeNMLQtn1hGQMivKZEpxDEXg75MXWn1GNW0cdSiAZJXfL3NfFUtGZKXEirfmn5/T3ONX+zbyqGG72XNju8yeD7vRHBydKWBDRYI9LUQqaMqre/Sk1hxo+JWNcF1rOg8BVfzDy1q0GG6wjS+rH5IZXMV6MSXbkHIJEngicMkqIK3jZpBj7OzvBNAudQdhuPmSJbMO1RaC5JJ58u5XvCK7jPgBPu9AjFPORXDKouaIpS7GxWPZADr8McRl0hmBSJB3j5BfFAJqnzoapZzmLK2v4rkTBggKrOhSiKIpBcgdgwWVJ5GiEJTFsdKy8PYg/o/xHwDCY8l6XsBjTYW/9oolbcAHGQ0mZ+Y2IoVSmDQasLPJb42fbRnLlFnTYqPgkML8WdtGHnPIrc8uNBRC17QTwDU+lIEW/NP7pWpb9ZCDCliPMGKuVEIh2GxSialWryHzdLFAV9w6xwf5uHJB6DTwUx66pHEQUBRGuYAGYYhUzHnY0lzRD49NjENknJL4yQEEWjzmjVMYw3SStUwYoG5XVdk69NzSaDnlCSEGr8ZNjRiLG5i6fa0GmRnvRbTEaz/GoVHApwHisDjzIUjEooHNZPeNRKHpwCRiBTF+pW9pn+1tBSDEkuPXIHnlp7rFyeVfdCXpB0czaJNrGQadvBDV5uwJF6QTfAy4TXME6mgOvO65Jh4X89QdPBjTTymHtkzGK8JncmjbWeAWXGjHdmcUKYtasSMsQTdyPeU8hjEU02MHgHABG93HzNSK57BwCqapTIqGlEjkWKtrRK2sdxtoN6y/qiKIJ6tWQHiQ7B+nMbCTQcCJXLSSY1A6uJIb/1DOMOARH3rkxCCgMBfxrRRp+toJUNw35nwJOVoGUBA1SFNZk9NbaRQoMwxVrsAOy5ZbXeNKaiEOFO1M9LQz+t3S6w0DACNu4HP2se17nq1Rk7PN9MxYLqfjgrnnvRcCRwvvM7ibJTzwDEWWS7kCjX2tIebxROmLXqUOIM59MT/SXCfgUbqOdeJUozq95Wrk1fXcC+cC/URKxAWWx1b1hDPjfOU48wIb66zaQXAydAfOCmFwyGPiaGYKgVwTlvGr8/FjuBfxfqgneDABUKlWS/KsTIwDQHjM2NALeaBiY1PzQueaQmO5ri8UpRvG/yyksfLESbmRDAsWiFo8GGo3DOwxxD0IpYDSnAQfvFgoVjZbSjs/Nz3iKjVuD4T7489lSEMiLIgc2GsWwQiSh3IuRjG0N26DlOso48ZGO+IYhhMGMlMlavaqUad5I7zPYEiMEKIH3EZlHLSXRluU9hgegFbSQPPGCcSQZuA6CdlxEcWjI3NrCpr41H6dPXYtaayQcH4jAMAYPwpKMjVSrT88ZQGpZyiTBFScu87LlsDuASDLHH1UYnIm+dalnkajc0xwsrXCFBPMfgvQKDtdJToCmuU40zXI9a4pP5up0KuC9cGmdJhYAEUGmDDUFXy4QxAVDeAfVVIJUrMuh+dj8+biDZ4l81uVV+fYQ5HiGdJy+Or9SoEqbNz5CC1T8U6wdnEaz9zyBA/RG17hh+0xuMCm7lDawO5ndK4cw0s+ddktwScQ1C1MUJajpgApDe4ZFr549QiVStVymRxUkH2shJQbDPNmt9jamNs1A3IQ1CgKkC2la2otSEzVH4YYBjARhyljQTSs1CybHsVXU5+pcDvazIOWYGjdnmPngvcTxipoPvdpCtnhAu5zALgZ3yVt+XKpABF9UvBa6xR9bRSMcBQpwU2Ag+guD5Oq92AkVCHQMsaMWoZSJ4H516MQpMCPTvSUeQtWymFy5NB5s67xastyVUpiJJkLpZBS60Rm2ffUIRMxCnqL8S5rOxWF4ipzDidQHghFp2PRQycBQrI8pcCiS+sr03J5CyjnflwZxdXu/k7l6dglAR6aldshxfB+NYGHzlYUOAsYVIiOSLdUbbPBdw9deJ+UTzGDpI6Lol1poWqMYdcYeBTAIna35oKpj8T13GjWUsQthVExl4YqmhHizN7NUD2CrBaTlN0AUmelpwumTQ+VyrUgoKZ1RwayBOLjnWG06VkmCO/bR28F7GlwmftTJStAyD06s8HQnm5uyPuz1mYzNBep0RZUYlwGGUb/xXkD03xmSYmZKLOYvXAaZ19cjFhw1SLnECCRIyHseBJbrvP2axCwpfHqFECuCQTqskzNTbqDQAfrgGHi+YZTvBhBGNTVZBcJoEnwKbWUvE26o5xuyqSOsZbDsIy0dSYZ+bLYgdF3ohunKACO5odMakL2Vw8wl+d8DwDhYLMfcQqQrE5iEorDmTvZmMLcFF0TD7TI3Fn9nAlSCoVEvAA+GBiwMmXwsuhEx0RhTCozUBNX4w2WKtAfOrcAFsNTClX9ZdUBeVAChFCM6V6Ue7qMFtJ0Dktb8vYrQwcKkkZzwznqGbgqbqq+ByO4FwXjTsVnGL4qXQqTjwd8nGMoWoE+lg+WSrbFKO2zSp3uUMDzDoyMXGu1bsBkFUKnGQzMod58HXIUzTLPbPA+rwZAwZT48LkH/aiYbgLs3GAYIDKY+N5JsDLoVOtLRcMwz1ygeAZoMhOY8JMBAI8Bv1dAxmhiCdYoijC6yRyG/Ul901iyPkdLdNNgO2FcrnJN/HnagjGf9UDSy1GxEZnQwq6MrKFmqC4c0y/jmAeA8Iibx4t7AFVhMMgNhxiOLIczU8e7BxVRWnGXhmDEVcPkVU8CpIXSEcpGshWGK3KCqA6m7iDrY5yuMMoEVYeyaYWrxEENVEDzNixvd+yiADhIg2tFkHz4jbULZR85dtH0eKYcigRwEYbMxwgFSie0oQ+rzIaBTS2tJpL+4jKAuFY5wQrO8OmtnvoRTlBlaYZ4jgyWyhbFILFVelvUgNYARkyKWNALFaK5dredLFpzEWOqaV96UlliVZdAOqEY1qBotE9AZ6yTV7Gz6xrgEHNdV0NIqtqHsLmFEfOOQ5YKLRdqTbYbkiwHQAgwWFb2Yew2isAaecqpP3ztiJaDFTgFUQEGQd3EF8H4GpLxnQeiiDjZBX4CCAZtN1S/8IeDkZp6lFclEgZhrdEGUU6hEWxGrHu0ouMAEC5u+/yIzZ6FIP0lLozSYpwQ5jpiVqC1Uf+b5VONSzYGWyiX9JxHkCW65w2EsMmkZu+Bp5HmfeFlpHaqxczFU7eoQXQrxj23Oml4O5VJljek8c5x0WmFbv3tOwUfNtQ8jCfBiFHdloMNeAmt0k4JriWwQi+uWqhG1Y1ktJ/ARAAARQ1EV4tGRiFmZTStbxB+iXFnQ2ZYCxxUZDC5xviawZS24IaTGcbBmF4ulQZ2FvBtQCJbfslm9IUzenEBwnqL8DTeOlYSQJBI+qUBMx0elowUoVoE1mpd59Sb9aM1BzyOapjZthLGWIOPlaNCSYMpZYUGIzXiAG866VNBMdc2gBPQ9kxH4lmRH4cOhyLFR8xGXpQdi7AB1MLjLEZ16JIF77Nh5pT8StGIfoIDUCg/F8wV4AClVrUf/h7RBTK2NS+44QHF61BIY7A1G8no3g1q2XI4Ph0DoHMVeI6L/tO/UFAyxlQslBXTueFEH24ho27Aia9+Ni/o2qhnuxiwg5lQ1LCjDgKiCLAqNnqf6G9eq9MU9RV4lBkm7ljwkH5oe6bPDG6WBpyMYLAOtR/d+y/pxa3nNGhKtQE2PUqxOOvRkCPUztCJYZMMkTdcOHLK9IIKS2yeISxf5xNvTB56plQWZRD8WmCrU4FRbiC3+NxbcDHKotbgZ5h/Ifxk86tiBhg0MFBD9xTejIgeK4xMfKTzMLeRkuLRMxfEEf3kygOX89CNslvJUw7Qc/WqS9p1wXwB0J7UzZqWQwThojTTj/ykYYSmYkLYQzogZOUdpVIqLspk/LV8zb6md/yegS1FT6lGKRASYEJNQjltKk1SYstV4KFNqgvGE1co04FFfsjK7LpAFVT0xYReRAhGNIIKtwJk0ABjyyao6jAJNw5SIDO9Ms7dWjoEefjwfIJGmlOaPbntbYNY5qGUBRgW9DPcY3rADXnlKhhX+5yjCYmoRlopmldka/iKjjrmosIFz9pHZVwE1IK/fGAMMmQI/v1MOzpMrPZfzh+Y6g58WBxQgAhMxlW2+vooiPVqEV8YLgcq2q6uCv/VfzfZ80LR7mVzYX+kvQJbiSZIaOa8zLmVRPJBtAAhgqg5ImZ8Z82shBo9ajGx7MLBHAKhZDpAd6EYlTKiN0Mcl0z6goBI3L5StFYn5SGC8Mgby4txBIrKkwKcS4ywd9UExZpX4RZ60rOr5858lzN1Kc/hUs7RDVg7mg8PZnPca8WXnrx9j/7k8iQn5KwAvOOwMTyBVLvi8S8jEzzo/H3Vn32m/SR9ldKp82ZoVj0t1FWYwq1jIENaFj4iH/jc60gG/eLZ9NDS4C3GOj1fDTiwAVWfgx3OYLLloUSTQtCK9mRAim6wtwjD6P1W8cEy4dTIlf7ZCvsXExKvyhR53nV5i9Fm8HGWLL6nsgvZiaLlkg8Ej6UnnYBuqy8puSE2Vx7PCJjStcqfycoqrSC6kSIEqm9yVfEby1/ChdLPeDivL6/BzlxQhyoHgHAxmudHZs5RF1bDk2IfqUhG9jHrS0MY6LRd1kNqbtd5/VXEIBQnZcpNKKHxyOiyLaShpRpQI6SKVdF+CHjV5OxeewFfqa2UI6UrDeBVqAJZqK0lwXgnRLqBa+XpMGOz8HPVAQ4TyjMAwmEOXY09+bbYTNEENhoZoX0glPbB9kNnmmL9bE41wmJ04u9EnVNhy5y715yO8aqmBLK3NFG6Mlufz7n/Gq7XNQKdc4rCD/xHARZj/kyWBYmWRn21PZJJz8EV0BhWMehE6TIYNWYQRCG2Vo5YztaHDHQIiqbzLJVjBcZR6EvjiygYQDcuY+PiyqBhlhUmCCBdxJfHjbkw8C2ELoctpckvW5k9msH9TdovCphRV4LWbAyjRYp0HSIIj4ytvKh6LTpo6XWEPLMtjuKoRcKzflSVF+voEkWoOm9t9GyYLnM5Zj+rHQWBbBziGGV/2kLO1ls1keo9zCAmX6DLj8oRy+p9zT1k9lNHULf/xXOB4CiugHsnYh41/qwxA+RLZ6+G9qKWtXP9H1uzzKDynj2EbouXJ0zDIXNaYS7w8jqKrFSb6y1yvQo9owaAmSnrMpgKYZAmgzqnRBBBYJsJe1aOtdDIlZzRrwWUNWwP5rWR53ZPAcn4g7ZdQi5SPviNjWJHyC/ZYxaAsNUwsj44GUvlj800BbxcB3Pk4guwEY2TWwBF7jPzVY459rA+0ZvbThhHKYVJcSjfyjvQFaJrWPFR1srlAkCGYY9qmOTdqF8IkMXc4HTzM0gGMCia6gAQLipT/chOdult0JDO+z3pbNMFxVgt95TznFXpn7e/Si6yWQNoT3XoC0O/DLkv4MJKobpmNYXERs//HvNlolCiNXYYrNfcusv/p4KekVX0HwSrdFz9HVpydMPn2mdu2Igo1fGoGRjDk4xsqS8vnnGMjfP8OYbcuZjzWxk++wzeK68w9eeeta2IXlhUwSDac1VMh0bNKr3aMUk/GGpaHKij68tGnRzlYB9eKQG3CzZZG9l8cJIfrb2TFrcKiFfcuZLLVV+D1nrqt9dvcqEfekgB25J7lQYYTxK9FJnwHFb3Ndhjibi2iqAtBYb2CSJyBIblO5ISzgexwAk5kp7eHgED2dwKfqpMMl7L7cEHgLDWn4dP30cU2DTKJUy3tL6cv1w0tDLYPA3e4avmEYaE5DWElCw3jXHI1VSkB9UwI/E0dauiSTf0fExvKD8ykrw/36MT3K5EYH3Y1WBIfWZReANsAIxEescDlmfcUa9QCcoKCgptGh7J2xLT4GYuHFGGzC3NRpzz8Wqsol8+BUUAACAASURBVEjLawwCUtli2QBwlPDAH/4EcrIT07Hnp3wQt/JJXgQmRv3hTZ6nyBI/IzaBvlgZ7E1jt7roaJDX4wjEyyu52ZKl6I+RRp2HoJAFaF5EKaoZB6AyUFRkJtIAFGJndov1ZFiGdjJRlLTziJkbU3uL2qYFmenNa67wUGQTxl12A/nuo2AzH6MXTm/XZ/goqO7EPilOBMvy+DopOe5hCTCQsoE+7cmeaolbX95HFuHQ7EVPARZwVZ2sBjTcS6wOeTUDkypO6bpouArz+QAE2ucbBaMTUnpT8aA/xMXw1XStFXkaHagZC3/PnlFlojEcjiCQsCftyKjxROjIWcMEVG9AHc0nAJbq/eLTcmFUhjaharBZwBMcbqxwlnwqZbUuDBCUWnnPQERCxGgl2IjCRgIKhheqIefIARRuroyCTc/YUlrmrKgSe2/FfpIQeJ0CD6sIwhhN4XWeRvA4GISDxqtNFlznQ20X0ogYrI25f0pCxni2Wnk2zmKM52aALNP+caCsPD9M9MPVBRHxKDznSGyxS9DsZwEMskToe0OG45r4qfbCwJtERsFQEg3MsarTgcShjQZSx0W9IWOeZVFaJejg4t4DQLjozff7hwBrA+mMzKHJOcWdCnRD+GfF7SajKlISneWsObQHKYPS5PDeYjKR3i6HrGQRAxcUqW+hRUVsoTH1dd5fbRwEPG9pnJRwlHSjugq6158kjxp5eq2yxtg4QqIgpPYpa2PaNapL40+xeKngog6hHF3DY+JQrjBKRAiSLjqnqBIjR00tM6CBsFHh1dEn7fdjQENqes1uw4szxc5UHHOimHxlty1ZYpYVVl/xdWzBIws7s56Mm/slHLCpQBJIOyUWRZB4+bxtC93JSFKN62ogSis3m1QtTfY82YePUfYjjEFPtJe8YS1UGZ7kwIc8/vEISNS7jCZQ6OurSFsW1imK2mfSxJOvhCQzvKLgiaIqIETZG3oACO8f+3jR9aJmQzVgGobkYVGQDMlJO1PhuCnUVTjChW1bYNdLsdr2LK485JZU+RDJciZ7fs1hckwoDaQaBHY3PAxetuebIeK8vOuzEGzPu5Z66Mxbm0Wwg1dSLZsxmvOsoki4+Cv2W9ddGq4ykRQmQGU5TV3UNDDU+QiBZug/lTebIyjkas0Y9CAiwjmh3BGhRtzWJPiFjAeMQDAaPHBPtyCeksWoPs5YpxWvlfHH1CivTDgqbtUsFrlGQJYGO4wSYvqr+gswzNn1DWJoiXlLijxEJjiMzzMhNcCUUSOe39AOP/KJ3YPH5VqLaEKQT3CWrzHkylc9CvMGe5KcCqgiHmXUI9c95zPKN26uEdL3uprJoQjxyEhASoxqC8zPKMX8VBSnv2a1Wln3GwdE4LZHBwWxS4Nrkw4phovOdr9fJsxCv7LjEpmtd4sIGKbKAfZAVo36zKqA1glvKiSWvFJfEF+xoHlEw+yaDZqNr30aFrxatIXX4UF6V0KK9sn4kFIMI1VK+HTO6YNoRIC33qEKO6/VjiumiS6zIUpqSw6U89LQhgQeDAiQJTRo4PTzQ27CvmetP8yY6OnUk0YFBxqhQKWduYbBZpAMNQ3Lh5kFcWR5/DUFHUwTrAT3S7UWwrPFgi534qQhX6UtZC41cuDzjKwysSaMcRUrWe8AHGtsHhHxhYZJXk452RJhls9V/5ybH0uzsItggbmKn0FAHqokQ3aAZ+Sqh4iBS9l82+88jGhvGfnwY9ERSQB/oT4kajRyrdnhYQ6I9Foc35X8ZiLlwKieSDfmuKrnsVmEJB4AwoKbDx/9mSkweRbcogAA+2IoBbalgX7pxaUE0vvLUVdkTw+x9uECSH4kI9HzDWkFLNTuFSxwFCG9ipVmWYYUqShRPJ0Q56pus78KiLj9CA7Aa5DLfjhqwaF0b3vQj+nLFsRVDIVKs7CP1SkpMSEgjOxsRjAf+8YVWtRCVqXPwI0pwYAgleJayWM7I+oOwLHUBg1zBqAlJZPuY/J+CIHzc4BmTTeUx9gOwR7ozdW0VCFiSsC5CLCISBXdFZ/H9KtMzYhS58ykXEUYao2Ed74CERjXOiS/KJaMyBYrJG8l9EFa+Lm2Qd9LWAh+mlcrM0cO7+g2sppaUsixKnzOGVfIZv34qvCdIC6PuixUCD3eIghyAAhLq3L48M9AgRAbkp/Br1VzRnSbQ7ypIDEEAHqE87WZlZDOg5+UNklI9UCgaa26nkJz+ANheVFWFL73ya5qC6oS8dlmVSI8awFLFeQsahK2TlBiZR8GvXgPgSVyZwFuBbSz8Cu4Ya3uMxpt26D5iBh27+zsiLw3gq/M9QpUYRFpZ/LwKezkIGX0TF6RjSwP3InoQ6hO/453b1B4NfbQ8UVTwUjdC3R8VFg7WcsXkXBTWMdBUqcXMSdzM+t4NgWTgaaBRN+Fv8WAk+0QsTwD5NC0FcgjUrQodly9M8kh86dX5wYNNnYt1eJHLdYzNVOLmUM8JDrHh0lY5MmOw2YhzAFi7ElafEJpuknn0UIgLUIRrUH/oDsLfUYqNGJgKwbdkkO1RuN8FhyfzHygb0W0LuMFc2ToUIPwZzCEh1e3KUCio7iAlGV4a6w12IWj31MpUMyu5Bj19kAVbDZxk4fB1cwwdBVA+Bjta8/3V6MsiAamH4cOpdKJLmCwQ8F7yA/5F9AKB5m4wdPQPEKIpNT8/WyeV8MVDM0vjE/kIl1lhEIzY+ipzFAsuWx+8twwPLR7wC8ZsufylkSHXX5Do68aKcm81jnVvFilsQ2M0ZnTLepBsFim7LFTgtlMDZV7fE4wDMXIyGmYue5lu821bLCRMbBAKANAY8OKjo/j0ifx8wii2O4OvkQrMjwFGMQOzcVQV0PY+sxAny8IYaIacyfbSUY8JbNGHbmangESYGiE/+UugexF+gu9k/JIpTXApwJXMhSTslx3XATgpZoI1NwgRWddowbCBxIRwZrcWoHxhHEBmiHcIHIUIMMPI7THAHZ8zN9RoWLMPr8/AISDlX+vUoCFkoVaOiGQUDuP99mAnaf6WUWqte718o+KSvlylactNYOrMVpwex32U/HLwInaZKJU2jMu3M+LYcJw5Sl4Sds6ewcAoTi49kpXx849YC+WPBhSYDp/VfMcMs0uMSG86QY4EsNkFHAyJUDE8iggsjpcbweMEBfz8D6+7JsrMABW5pK8+ZPxbDiZYZasYQavGpTFqKT2M2smVpXj8cpyi14WmqaFXxprOV3Rxig8V17awCFjMFvt1w0nUy3IxruiCxbyH/aOaFvqAXljB42RADgx6jaYKXNjVg3BhUlnyqdsrBwMu4UVEamqgErBMomZ1W0UZUfxjy34EOkIMviIeI71810RUdi8ceNd1kgt9KKlG2k/TdWEh78PFHgPKMBCuWmU2RiGgodK4mPR7Eu0WdtTM7Ue5KQkSDFFDSIq+90ajBAdntMIZAwG6gPGJkeaRT8CHmgS8q6Hw8NcroBQ2EZ7M+mQFJiVYSq4ShnzyuZ6AlQ68/3afFR0MY8EjzQOrCfLyRm5xeg4aIhVppn59j9TdDDGpKDdmoSHH553Vex6rK5FfnwZ2UgxPQSA+M4Pb58PdOILn7KEko0PnbBI1pGCRUYPYWQOb28YaTJCcY11iYiDUjC6dceDGOsto7ow4sxL1XhjcYMXo9BO5ZinzAWEVgDK62drn/Ji/NL/fxpRIS4KJikEf0SIxAtwhdcW4GmuPZ2tZr3Jk5bQ+BEXIcHL4B08dF6Xj4Vll/moRiqMbqzArGPIaPIC5MqBE3WgyT/jEugpaJeq2w4A4T0wgIdHz6ZA8OLWWQYABND5tAstpJ+cQFFIC8Rh/VlnWWxXQQVr4GwRn6qSpjwen2YGI10vhypjUkM9G/CtjARUm40lvW3Lp/NIvUP3GuJSGXJnM29PxMa0xaPk8mpS4gJI4L+Qu0yVpKh0jlx6aH/ryA6F8bap2DOj6nVjlZmAbDf/zqp0NxNSd0DHNSMEH54VBpVEYCWocSAz6lNNCie9x9SQUlG4NksHH+bk45CqdkoZbCBq46kEU5UjguScniB+XSFs4X0aNMsvZwyEgjVIQ0Ag5HFRs8K7bTAjkb0ayRPD5oMkGtWCwQmweD2D0CfoYrUGI8LCQhvtawVD55GkGekTD+uHFz7awq2rlHYj+RvjkWucc4SqPxIcCVjAQ86Htr4kn0iJCT+x/CqIdW4WsHAoUpwl+fDJ+4ACa4Yv99CvtFVVBLOOD08wTQyrAvt9VSSIaaZnqgAilNaQO6pgntT0TDBuqc49+hVVkyjeFEcqwml8JUFbjbMaad8mqJlp98Zr3JkURlZykaGGcvGx8dYsMgQwDpiRIwQytjS58OR5f6tCISmXCiWoJz5yhYJ4sMw/qj6piMBrC3h6FbBiyorL7FO3UGnA1aK5/Qn7rMsXKCxTCpsA2Lur5Q+UBqu8M3nzg5fn9BRzMPNriKSKht0cOqew83Ox/NXwAZbRynr7ogKK4Cifw4tmo5ietZCQ04QxUa8d4r9HbYzTWBYpOXpeGh8kAHzsEkhDzOd+GCB2kDHYTlHJvOsCsyZTHUSCAwHm5G1WvKIMtBNgruJSkmbggpVDiuF9YBUv0iZngzjnBqP2jhUN23UG5xugQB6vZxII7Re5ydlp1hCvN27hdmgNhxqew6v3L+jwi0blkKAns+XgGzk3ARbAKUnFaGNa5Xx5U1qsWtNrNzJwvoJCsdB2njONGP6YLrtx6scL2AKKCjsHJasQKR6rxmn0taqnsCSK6ekEFFGsRmGiCMfGHRELgDHGlzRCi2KQwDMMzkb36avDVICsAQ6K5ch2J7d66a1imsA/9rdD3tFELNZcmUHG1QALAYmsEzWQLHRTBVXldqaNG3aij9jbuW5TsyZFH0b7NdMFe1dBBtM4PP7C92QrzdijiJgaJV5A4WpskaUiQl1SdjJYOWXRLopyo4gXY0SEi7bfYp0z18aRiWRERAEpCBJzGlLv8mPr7uNy/ZDjhzzUy8sqiGABIH5zNHhIMVykBv29Nu1iE0PhVFuZcps3+SK3W1PiVWstlMZW5YwouBiDajcYrlpwBYHTyMM8kRnxzzDBPuFEbNF0JJcaLoU5Kp57TVdL7DiNQ65rjltyl6zdixFCK6GgeH2i/wQOAcHc67CRq5LRnSU+N9HC6d2sEg5h+3gZor/0xOVAm0WCfGKpuPO+oMwwQgnBVFaqCcG35D3G2ubOjaBMdUcpzM1jrI8pbavhU7+Q+SnIxuF0JlupXwh60y9p2GgRaIDgWBtV8i3mw45B1Tsir8Dk1f4TYaJN2bnA8kcSIKKb0QM6GbvUxaixVJ5B/UpG58K74NDfVGDIssl6KKME+gRtvYUs8U6a2CWUCjW2ZxbiCm1JX6AOKegwACVVTWVN5aFI8b1mKC/ihpTtJ0smKTIWwTTQVD7DdrEoBvlqET3gIqet5YA3OvRb6nQ2m1qh7oowQPtGGDr1qVgyyzeS3iyZAsmBVigi29Mmm7AAPeMZ/XycpCa3SKVB5hRK1HO5N2Ut6WJkrtWNJ0VZgp5jEuzBadgmlzTHKZ8VIkyGEaH9MFBzzQKXtiUfsG+14A5SivztGE7NVROVJRVS6gBihqXuoOwyy8DNpg7RcHHUQExGmhqoIIC+EsNRmU7m5qZLWNr+UOOpA4/v/L0ACM6fKC6tbUQKYxGVMH7Mgci7rCdG3Yvz+AJYLHdhFLmx15QwQTPcmeAUSC5G7QFHc5LSUfy8MYe4GG0M3UcQNy5y+jGLH6NeydvMlYGMr1apyEsoQWTNVH8dIggXsWF/r08dCkGBeBSsZbKvKDKA4VA9q8NK/HhSOddfBVkUX5Fx8WLYPSsgYYgUvndhlT3eUB4oJiSBh89p43BBRINsa8PY88E+nkaoW6XEleQ6ZCayDXqqcma4QAZwFbGw1uq2TVcwoTNK2D3CkLZeAb7KGe/edHyPvxEexaygmLFWETank+AsKsP1IXxyIitErEb1xTlam2cQjDd5usEDnvKQIH8FTs4yaS0sLy9bSMFXGlWwbmmM5C3Wkavqni0+z4HZn6myMhnKSSTEUQhaaEPmk+WFpm+kJGCEuaSh9QdwN8j0cs5vvOMgTcfPFFF6gB8HWHBUDr4Hn5mUhjkuwGduO4EOfSfFlW6iEVEYmTek0giYx1z9eSeU3pOU2szYPUGZ7VzAfIkXx2Q0NUhsnWrN14WgVBZHeyoUObEDQHivW8mLp8Fk4Y05FxmbnodCnnc3qnYIg1r9tblfFv7VqEKJBjDIQa4iCjyQVOQplFsKNz9PEDAM4XTJjPdPBYL2rvcBT9CVwuowqDCwpklcedCdBFIxx5qYQ9NEhymLzIep+Lii2j/RlJ2rwIuVdRBKp4rQqlKDcUdbK0OedQ98pS1olxtOlXls/dGe9xNTn/e5nX99rf2MDGWbY610+0XGd5YGb8HPix1B6pFT0S8PdlEGwa3j0Wl+xB7s0Zuh8UC0G6I5nbAwqpvq0Lb/TXauDGhFf9Uj2FZI6xy2075LbiJeLRGCjDox0HBtEhE4LaqNwk+27ADHLMPFw696JHRW2TqSxYzQBVl5GXrMuC+8mjk9OkcC7XEv0i1pjNCwTqoDQLh47Pl7faahS7aK/wjkiqBPf1B4Du/U7VT+uXpVRSFN47Dvt5R8yNZqnN502LwSZi66OAKgUJohwKxMYVtjjmqsoYIn3bII+0pxEnvVoSdtwBke96NkhzErHnBUWfN4coahdDxdMSiKI2k5peGeU74Jr2ltttFuBj3JnxPS0F4V5wvTcb62UnMA0MNIhT7DwkjluR7/XIrMA3DltrhKG2JWp+8YcQ0BcLQAwO8MqYxeiM3TMGSOTfg7beCUuliIXXr5qz6UTeoBfBJxkWmMtrLAL6WQvOlouxh4B1tb6cI6h7B1bPClcI+EW+pokjdzmXjCKY1Gc+xCmAsXTUfUzzkyxIvigDLsus9o/JNOgfFgVnMbL7G+SwHRmig8w0W7KgtDfHtsgyJ9jO0xtPHU4aCk97rdvHgahBFlEEsGPhVqnsA7KRLIBeeASbHOJnQmb83r8xPV24J42l7kDUReFDuUUNyMtkTsEHRUoRMwSZn1yB0fhRsj8sQEKZDwPEQt+gM4/IUUglsk81x9USJnP05Fs3elEE/759yrPU3hTClmylPjYABM6dAr4cXOYc9MZ5BiRF8onhxGxj1+jIUvktmcB3GAL16mX/wOhTAWfFufAYVBujGPXbNjn3lNlP94aTXNo4sOWtZQuZ7GGRS3ZQrAm0QFthO+XgIIjbYlB82hBQvHB2tMZwME22AYALoLtgzqDLYpu4GKnRQgRvddVFyVNYBsIH1NWPiJ59fgrCoqStk5qDE2K/UE3m7UTsB4gzVdl9g4FWRwZMK6CE4Yj/Jxz8ExGAv0a0QAFRTwHSkMByR1IKlOixwgFZicrHohAiJ9+Q4AYTY4h0/OpoAok/MRa6W8FgqGmRJGrLr+IX8rewmdPuuQMC1T5DwEnKuiYO5UwbLS4i5yKPCq+cIX0rpibFFjkf2GCS3hyixEgnJTsbZxza6q7qCAhcOWp3zetsHBbUPYEXOnhfLUiJgwKC7Su6l8VJnB/Mw7QGgxAWbIQGd9Ai86PC14/jMT8tNixH33glAsHkB9wBoSVLZb2cewHdUY8vItih7t60UlOZZujFHXmfDedLx4pQjGivEBBMUcNoo0uXi1shm/y3ZR6BIYPE8UxFQUIDig0AIguvqL02FAd55CyDKDKWoCOqQHTkbcUVbytNFXdvGUyWgIH8ElPRQpdvcgekmoc8UzFpCbw7CWkkyADB1h7Jpj1RTDCqSsaQskiNNPJZLn4zkAhPMZuMP3S+3L6TIRMNdAXLXLZ4SLq7IKnS8qm1h/r/IFKuDQqHlBYlVYoTQiFZeJXt0ytEYbaXD0+6XwD9ubtQeZ17V34emYSeIwpY0SBhUhTH8rQQHl003feRtpn2P9MhKPVtY1HRhFeEQoQKwYhZwlm5dm/s0Q5HkHodj4tEJvM45oppy95mqzvqEaFgUfDKD4TLjkC4QIomaCgclC3nO9GVjN7XHR5ZiWP153QWzxCeGsic1h2MMzJqyw2u0i0yDbk3OhJ9zbt7XyzzNoUZvSiIrYNZIH0gPDZEUgKnlvDs1wWsLNdLWb8bf3hX8WohqyFp46l8Nupx4z3oVoCx2bLek5Bi0smbrrhKNyIkKxwyiEgOoJIPvV4LP2qUDWAb5WO6peiSgL9AtkVLRiaOYDQDgAgPeIAqxgKEKvigWuOoX/ilyFzIz2XCml4vReKETNxjRNJwfZZg9jtEcOcl6y4N3z4UPwoqcQYWl3MuRrEDFEvihbeOrshaz3MGebs0K3Ru3/5Ka6NuR6Aa4YNMMCz9sGN7VB6inVHdjD4tBRdBcWkL0TG5karDTSub4chvWeOAmKMwrIfQ17WAyX0oc9bHhYTifQZ3UMeJyIV0JKwR9k0gcNUN9hhgDG2/RyDeHXbZiVn3icSWteHeElrH3Z5svqXbx+sj1znElBToAQ2jUgJohoj7aCxRkQrEADfwa9wCCHg3hsL8Nh8J5410O9/CtrYkNGSswlUgC0onK0axyE5ukuiRiIlw85BLQ3WuZqMpgE4VJeGU6kAuRqbW4/L4XRaGHKEUMf29qMwGA9H961p52SqAk01xGcEDwAhPfIPF7cD8/GqnigLHVsA6DUqi0tz6eHq3QWYSbRh0ILyWR9x8a51vfguXIZ01SoU4qWYZg3Fa1ERCjlQNfQ5JZJ/74qxsJiOndFHHYqY+VJtJs3NVqBFf8NVebKgiAHq7gouMSFVrBUfFiLAw2jCc6352A5AQyHJAFMnB8UqnisBHngDLl4Q3UrZsZdVOl7rQWRZ3RXQ+nk3lcAE5GU0sZE8cJrVKISUYQI9CyjZvZhBdFVHmJ8lQE3zmkQ457lNlrrBmN8Jt+tQHK+EONi+abSlQAvS8GBqawyz9oG4JQF12fnncOcxnXjG0etx3MrR6Aomq06hoyTsYFm7cC0MUJwsTCkTqJmEcXSLV0JJBJ+2Ps8Co7ccdRDvS8pCp7ORsnJi1o+1CBc3Eb/Tzt7rg2a7AspQQXd5L4tvBEeiyDsaZBrpSKKmW1gUVwo+t9U9Iv+kJesIIkzlpuKMhx3exqGaqgUUZra2qo8To0Y5WBDF1CYdlLISrdZX3PRVhaYWV0B7LOYnaAUPBs+Hng7N5oWVY2wev0DCnjFddRJkHJEpTsHY8MYjanmWGP9AiVATQPa5NkbdY2jTSkchLEi4+kemK6rz7V4yzAnaHt8TXy69btWE85nKvBYqzzpu4uDwij4Uce3+nt8FsxMSHUCB8x3Ocl1aoRSZOlwlwJ+OvtidJvoajvdwpymYw19ALBRZDJ3JhXQQoC3pteSNq6InE4J6p1IQA4ozB1oIhXoXPOgJYipTBIljmksDkeT49r5PhRR4FCcrgsOAOFPayIvrvfWopFKMvOJfqAReSxhX2a5jPCs6/3QtlPhbkUh7AnWaAUhds7/RpvQdmzr4JAULwLjmvPervRC32Vpks23nHkAIniINDC/u425TQpVB5xGsAFXZYGQv0VavUU/3AbkiuIsUhjp388ekOkNIqjXH5geJu9d9nt7/6TY2NSn0Srl8g4AuEA1AdP2HQJhh2MfPeBJDmAGUiSv1KGAMKdRBi2YsazFFXtkhAbGoKRvOOtQgAIO8jE2UICUwmBj92WWQcR4CtobnzMwLlE8fB+vncX/PO8q1/SeyVpxAmC/QX7JwDBQlIQYL5bqiNIOiGEt1fWa+TvkAlZYSvYpRUT9mOh6qsyfT2nEmmlkK7ZpMtLzlIiloTzCBfwY20Lz7AaJjcVa2pySGzP1lywwMZme0xHMQXrDW+W6n97KIcVArHj49WwKiL5ZhERZey5rDrz5VAvr445raj3VoyKBpbJGH/wleSLsiljYnXLzboYXcfuFYUivKNR6DflDCSwQUgIupsZ2KDcVvmp9uRkuPGby3ZEeEKVQwQcozG0rAUMhIRTKNA0EUEKdonQWFgv0LlYuj4auBl8KSuYLjOQkSBq//6oFfnNtQFy8s9gXsuI1+Uxy7LD1K8CSMlbbTJ5QJFLB8hbfb42RcfBYBRglimCNjxaV9CtQpLxAO3FWdRGrHRs4iruoG6Vn8mLoEtl1UFBL6JYVYzq/E3sHkDlLX1RDTONNAz0DE4lWga64hAzIwIeZ7gBTuhY52neIztn5H2BqAo7jsYIUox/mAtmvULg9Ac9Qj4cIwgEWnEUBNV9FuW1+6ef/V3tDykIPFlElE5vRJ5TBQeviISFiV0AIgXWJTgiYCRFxIYIXPtsYap0D3EVzVC8pvMN04wZpvGpcDIOMxb6RAqToKkOUkQJg7yYKttTj0Lr+/I4jGIhGRBEqQsaxfu5PDV1SIx6pMOccfirvnJPPniJCYywoRkM8A9ECUqxojek3jqTlqlcvHIyCrOlmQ1WoWgS2bcy1ZmB9lbLWHdR+qtRxpXxCYgHLXK9Ck2YxXIEOZhk42fHcw+BxpoJEXKJO5Dz3VcwO7QS4k1eIX8vYcG6Jygv8bDJsLKVl10M69Ml3Ep0LOwrZW1RP1iPJaTcC0mIoqg5V4qjMWiUDD1CP4cRdDwyoc4XztFLU6hSA4EAkDkEatFBdxTDeSMVAlvl0FDKuNw0dzOaBApUCivBLRG+2kfNFRBwAqBW0rrlE2RUwzBg7VSgbOfacM4Q3FAva1xRfyfdp0aUYHnJY8nNGQCWJPIWEVY1P6QKKB4vyxhbDiE5kjlbPjoBPg1CoC/74OIGG7Hxwr8ToU1ILHv7Pvfe52VyVOd+FACZI5SrBG+9lKKyoCHXFHncXeJg6+Mm/H/8kA2WltXrpjlmiJ2kGIXwOHG0By0EQV8IOtiR6Xosdwyjpro26xXE0a+iQE80RtOKdL9MuGCeBHMWP1V1F9MhQxPaiLAAAIABJREFUgiBT6s5lY2UFWN6ZQ3KnjEvhqpjXL02KS4joICQGHJnf97ai9IVSaiQQsWWa+HqlF6oXb2CNrkoe9LKG474E57Hg71HpP59RwLyXw3BoSWsbrXvKMSNUCfs5DzTxtCNMKS70yWInjU1A6w9wnLutqeuoSAlqJCGTFc63gWpRK3UACAckcAYF1KxxnlBfYlM5fudCpYflQWjbC2wwK/0ybgEw/N1KmRTLtfXu9Dl505LjFazgok5GHQlkKNqaL006A9+bX2M/1cyyoUz1WHdIuMp1ui3OBJiCMLSPOiwZF/shVJuTzTQNxmnjUbqlUjKlVWLRERWoMWqueaBto6X12FpIQ7BiMB8FDQYjn43fzHFQ8FILULbSgc0eHv/U0C6bSlofHm/QZi2km/PhLzLlPZ9zcF4Q7v2WFArsoIGmPARJ8uYIV6zSDJpFockxMNA9qSk7eDxlpfI6/z34jQCBbPeNNJcCzUrtdWQpKg1EN8Xy1Qioi0E1uZt6a5Eyk93AQjX6A2BaomVbwKDONMOfpscPAOEAEB4mBbYZeXFhzIYBlh1y8GzrHT+sPAq4GDaghA3TRBZU4AJKoJgUJFU+x2s8Q2zZq0ijpBbqnu4hh1SJ7UZL8r4b9BZA4Ao+sQ1pfL4HITCEK0G20xQHD28pgFt67hwlQMLAQqWkVMK7Iu9nWXCWqtl6YIvKR9hC3dvxzHaYFEAA3zNQFdsagBid6DAliaU77dyLmivOtcBsipBE3p7PryfDeYb8MMgIHkBEwt9zlgnYs8I2ZwGQiJokbhQgICxawNLM3VoHIwAkeE24xEN1FL0rtQw6dgaXsxm2daSJlD8DJIxfVMlIVC6KKSFIFj2IPQBm/ZxO1l+0jcgB5Hg6/yCfr5AvokxBq4xE5c6C5Lca7k/q1IgeCkApyhk04NEz0ClnOVNpo+rRsg6hGg8phodpGg+PhaFiuSRjNCkSOUXJlQe8oQWYlfcX5CZzkv4jFS25ufPIBZ0PAImtBUepN4aisDAjBI0VRhqCdT5YFZ4eHmXfcZY+LhjCHMNgs2pIAohydaUWbbIBjzMIqO5Stptp+6EMJ1rz9bQ+/k4f7G4Ia7Z1LDF7dUybssJUMSjxhnouQdiAsj4OBsSgTLUHWDsea1J0jIi3l/Ga0Hb0YCF/1fQyAFk5X2LL4yfyw2DHSGiRa41Zqv55XcX5Bz/XOgUiQUS8eB6Ys9QHMUigen03HEwPDB2sWNMfCedS+ONZl4whfTVFEimcIhfYKZHbpqYc+xJ2kLxrCL7KfFp2kb1FNE/UBeoQYrg2gdAAsZ2RwymznjERp1RIMAAu/3I6Bv/5A5FvpJoMiezk5xqZZA7zi9yAOC0tc6hBOJh/pUBR5fGlKCQontXJdKFovSUCBCp0WgCUCnseD+kxMrjq7dgztA+r5JfHt+ycnMc4q+jUMbHiyj5DaUChuNeCocUYo+aiKEBSREIrTkjX45SHwfKpR7+ufCaC5wjqWDLgkEpSijnllCGOsLDR5VRGenj2BA+GDH5J1OeZExxaUqBlY1/sRMg6UDwiGYKkk9abqJlg743LKUkCwshqKmNF7vqZrivV8gigS37j8HbhOn5oOmgpvqR2Y2UXqZINVpFVkygIaLB2VN1DV4HT2hvlfbZEJqdc6FGMKQGxqeA5dJPqnxGlclnROgqYzFRUmlLwz8MhYfnwguyq8zAGKjNW2FW1qZYJa+Egik/mgpNVGlJ3RrDcuRvlipZ8J9kVgWus+9MHgKB6//AXUWBTGYUw+C81MkA8OUSJipgATiMCvKWVQsDyfIEVQEFucVSvj305aZRYZvld6VKUG1B/BCIpWlHO1mftC2MVyKpsnySvZ5rDVDyUitG8SZuTKbc8qZBPjBtvEAhL8pfe4qz9DXBj7ktM1O7T4MKuotClsLIuZFGqRBs9e8AZZEx1Ps8gDbcCBCnc8rZjBGy4KPNgOyMoGjLtGAEwyEKTNFSqGiwNkGNapiVIPCSSFAW6RDO3XJ0GW3IXJCxaavn5oogS/JQpFsEXESDL9ub11kuCUJOieoCHx1yByAlPEPeURPROIjp69LDwDQFs43JSQg4u5KTRcBZmT3xVSGlNpPHPqAntzYmbEWWh6UhzvkwMAIfAhehaojXkMPSKHvmax52bfJ7CP5gqYh0Q4HtSxqFV+ebK6djwA0A4AIKHQQFRvGx/qWAvTFHxKqx5KjxaWnm/WAnvbozpPFhCIguw7GxkxRuG41YKqDaVcJwnAK82PaO0ff4bb5OMA1DmqqxUCUmf9FeLQZJAH50HMOjpYX1ZhFrARavANQyBQYqHFnoMB7fUwkOsLMbJ3ny6d1I1z+mD+F3TQRxi51x8TdWM4QXhvb/iFa/XshaWZQGb4bE0gVo+wSkFgAPw9hyNSPyIGzQjVa+1k6jjQKTJ13mVagjAmwiQIkcUiYiaCY3Q8Wtue8xJPx/gCNACEO6gDsCsNBB/MtishbbOGKlb8uROt82xwFnxMKc+2OHgWE+eB2B1L5H6INCdc7dRpFuAMttUdnreCKJ1BRgh7D9ScjOgpYQDUdzl1BkawHPwHmpqQlFUXrVUlz3mOqRUh6vUshdBoyFB0azloQbhYZjHi/uRyShXI64gP4lVgADAq7jkZWvjitLsw2As8RlnExbAfCoYmhQht072JrW7al3/nGsK1iFTa/esimM1UwUMQHMtjmHl2xG5SAsqDoo/iyITKMwG09/yxQl/g08apDEE6Cr5Xx59VUi5nTGIN9l1NVyKQG2Ea1TJHmXqUleCtR6BGFnpkEozPNwcqqIgCoronNcjFNmhHLvMBka2Wm+6BbP2JUBhZdzrTps6H3pnkm+AC3HIfVXHWEEEJU2M6WEdtpRyx1GF0BFEi2H2qN4j009VW3j0z6MHdFuRX67FVEvPWmWIqZGAOQp2IzKBqKiCcIw1a5mSd7Nl9I2tJZQHRVF1RASMEKFH4AxMZ3nMMoIIQcgPKSPHIpNcqayZYj+kGC5u+785+9mY5KPxHUW+dE9+2tXxrJx5MHepgrX6fv1ZqHYerFTW+3srsIIm2QWR44xJiXGamCcPgMPt0+9ptNnopReUj6r1UKXtYIMNiI857nGftpExhGHakbcCA8oXSY0+4NFnuqVuQF3NaxUYxw4GVsfZhXtYPtkwDjF5KGh84GkWGE5yhmzIpYgROxY8DIzIANWqB2HSSGWfrovlZDpNK4C3QHyth4hpED1FptiIY203+DQ5ccMoA2R4pwz0OPAkEeiHsfWwAiYBKjQZEb9Ip6VHvtIl63TDDLuY11IuPE0UW6LyKWxp5BsSR0geZ1qMLrR+hhOKcZdIACRElDJiBdCbUQI4F3l9u5t2MsIERPWopFzU8YgtjJ5zgMgWH0BnDKTAQyMsvJV6yGcsxLydeOzo8L75XIUDQLhIAcKD+9buPNm3u09aO/Ho3qW71q4+3rUrjlo75shvoRF75lCky51AoQQRcnNZKFvUSddHT6f71u7f79tdJ63dd4ox7ttlR7v2uONdu6y34aH8YuNdR2TtAgSDQ3E27rkIiu0wm3I12qTRSXsHModyWfKWG/yVG+nirrlWb4RvN1xGXnBgESrsFTVZ7r1s3cQBSeNRVWCjnIOyIhK+lXmRR0TqKou8GDFpuD0VFiitFlKVH4yAPSMnJkZIPRmrll4vjdRQx3xoUwVTUKq0N5ytNSnoPqqeC3YV75RQtEgbN7L+jhhu5rEcTwIOwnBckFkc0gjycLoBrCSFc/KhXhiF7svA5iI4tXH8uBmmVCY8j/PVIa36qTQKaMDAFrmhwG5UU4I5hdIg487bM8a6ZOpuLHsUKXKxoK24QnLjcwMQs0YpONDf9+cwwRDHOX1oj+CByiOFKSt/SVTS+XUCiynTB4BwkQGEB/atvfaeffute07bH97X2h0nrT3oxWFXHO3aEy9p7QMv37UPvry1p122a0+4xBmRw/lgT/Zc2Eqzd1fpu/RcUuved7pvb3mgtT+4b9/+6L59e/uDbYCEh/b7drRr7aqjXbv50tY+7Mpde9aVR+26Y+qADDNqFUOhqK4+76qz5zJkjA1D6FSS5kmJrrtY1xjgU+Q+08yY51sKBSNf7dLvKI09LCgQhyOR8lC94m8MnUJnD3h7STIkDvBJKieddtIjFCbvvogITT3OsgIEKCg1tysDaoo7vffxDC++K0StSkekhBMiiFDQWQxYZw/pAgxrkV1ZZ4oMrIyh2cu1+741v8pJNueshZP3Ckuuth2qyUrjbrYs18Z4gms9kpvSHeX3ITXGH1bgWnmlGGufCPMa8262bu0kX2VNB9tgW38+qC0Lhse7tIgTT4ThzXsP0puGoebCqwz/c6qxggWmK9TIGOf4g7cV+wxr2nZMPSNVoH2NEw5dMSIBujoRGUi2j0CLFKBEMXTK4wEgnNdUXDgPvP3BffuxW0/bb9y9H1GDlUKCSu7G+IZzu/YJ1+zaf/a4o/b4S8IqxvYlSStMgBYhK6IfGfBhkiJcvGsPnLb2G3eftv9w57697t59e+g0PbLVCvTx3XRu1z73+qP2sVcRiDHNRCHnfJttfCoLqCBXapRmYDBvzoPPyb2iqZCM5zcdJVlrHKqrQDfhxcqgKMmLonAeQdlTnS3NHovNzisepqrsDDv2+cEgxM4FaFtUN1P+GZRArYUpXj2oiCusx3PVdYq/i6FmjR8hV3Bmmjd2+FBcFfaNAWGJWBl5Ec3AlwwQ6GXy5Bi+qeyoeQPHbclXscPBoPy8GBIVvVTuLBglZVEjKEm1sEwZryqV7LGmleS1CJSzUbFmxLMSIoKBZ31AgIKBTUFWkD0bObefc4ndPv4RcEDinYW80TVFWdVvAC78HUCS2AFk+mU8Hzp01XbVWnQoU0TuYNBzTikSon2Muv5lbCT2ddPixwTXhr1SNw7+lZ1J1KjrCeNxbuNwDsKFgwA2ZtJZ7Xfu2bcfvfW0ven+s9TW3EA3xD2q8EmPO2qfcPWuPencbqQfZvblHF1GwAZ7FjAC5ddDsj068Np7T9u/v2Pf/vC+fesRjvfk5/Kj1v7SE47ap1971C47giEtRz2jQTLgEMTlPGgAY6yuZcJLCEPrM+Exo49qDClcP89vEUGAEYPiJU/MDIyLMacGEG2IDhbeW5lb5mwdwIy1Uihlr8weVE5bqWg0o/Q9tLWEfDkMqwRkuAAX1p6gApPwqAjolvoTrl4PO+/zrwY+1CJbZnL0w/Gs0SRqaPxaLTvJSny9AOcrcLBqTmwn5lLAedKfwgwL/luYoBBcfBdtDWfXjZwc0pOjXMuSEWQFWHhJ83fmPaytfoYeRY44b8/jC0uvHGAtMqAuAIbQZ64N1Zskgohh1DajCQAbyDIl7+pppUYnHiuMNSuUOhd8x0CVZaWeUKrKqbIsJuS6b3Pp3hM9fXj2UUyBP75/3172ttP25gdU9YIVYfB7VGHrpwOFp166a598za59yrVHo06hKkOpb/OGNqKp49XfvWffXnHHafu9e/ftXiRwFwPoXfUx9vGtHutj+ZzrjtpfePzRGFOwvwuxVD6TbCzsuvbu2jGNU1q+2IIXRVkLD2mlEKSHasDnyceKxX7BAs4kWl2sGxuFomMzZYLcEWABH2BERvkMA8MKxX5X5RQ1IPGdqfjQhe4anaWo1BjYX7VSO2tKsn2jcC0gtP3jSFVLkaLXteSZDGVNVkWwlTY+kTTUeRS5jSxfiDD3Bl/i0dkEJPCu/B6nPC4AcbaXMaBYPxeI2DKHpaTxJjXm9yvV4UXYOnuh4BR1cHrIPkTuhTtHJAzplYQkYzSIgvm4kRcUsONN22f+zXR0eVI7zxzgu0BYbjlRUY04RRyj4MJqn8K7d+Yz3uW6HwCDkCiJ+AYPxVCyiNcCnKTd4owYb591wQRWGWQcdjEU6b/w/uwFft/x5pP2hvvU+nc2eNaVu/bsq6zOoIf0b3lw317vuf+7zzDYH3bFrn3ZE4/aUy6nUNxCwcHrggKGDrjntLX/512n7edvP20PbYCSDghuvnTXnnFZa0+9/KhdddSLFfdjHq+524oX+efcrrVvuPl41CZo6M8L81wfYJhm4FnBpHCm/NhvOcT0yMLL3lDCdWdekclAV6Go6MCA/BX3FLBC9MOL3PBl2BBFl6EdKcepNU2YVXgrcVgT3nWF7jSTXG050jU8fK7AG0or0xf2K1kGeOFc9+BDTFovigcnxZYncCXYkNUq9eKpdFmVi7ItNzjWHH6CmKJIF6c6ct3KVMPC+nuhdlZiwcBiUXA+R/WINwPNE3gJG0kOaeyDZ2TiEavcc28D1jF63l7OAKFnAMiCgGlkE1gk/1V5GX/XI4g9HG5+gL8hegjHvKpEG2/6g6ARp+3Avu5gZE1EXRXwk86FITxzo82hpLYo72bPeptxHwSYI3VVpgGYckg8qEKKPoHS4z4SDVSgdSrttjcORy1feKAAM+oedzfEPbWAn84+T7t81z7nCUft2Vfu2qVHWg/bQ/y3PLBvv3vvvr3mrn174/371g16/XnSudae//ij9p9cc9Su4ELBikhddrr89p0Jf3j/vv2r20/bb9+zH3/zT6+H7HUPH37lrn30Vbv2lEttVwUEGrL01gf27Rfeddp+9a5967sx8PMhl+/ai246ateWLRgrZQsVp9X22VYY7qiIJgE1yaELccijEC+AhVqFWcIvkiv0kxNjKD4S19yh/0ipZ26czd7sYWefPpZipNRobik9tDvXTEx0puLBpKxmTNUQ6FXJkumoBiv0ZhKCgQwrWw3ZzsYtx53hmPGZknNhFKuR9EGF/dHtZGjT2ccf5gLLnH/tWmo9Ue7B6QufBNd5nJ/vnRZ8IyPAHZ3jUXdfYCnYdOUsiG/gycYOHF7EQAqe81ZdsB471TVFPcRZBa/an+4OAh+69AAZOSjgAk2bP9+5gRiLRqbGrofYsIGxWoFx7iDymQmQSaCbeklTIODteE22z6aOnGRcNH8pQOUQ8GD9meEPAGG2fRfMJ7c+uG//8G19t0KK2+OOW/uam47bh19h3il+hDU8lP/uk337/fta+7fvOm2/f++cnuih/Y+66qh9wfW7dv0589xhT2sFZC9C/A93nrZfeNe+3fbg3NZ1l7T2nz7uqP35q3ftied2rUcExEYCaDj6f9fJvv3oO07br92dc+v1CF/2pKP2nKuPfG44BXCdyxQQEOq/Gkb2gnDiI4UOF/lYPso2qwvUmODzVJNUP1HD0Ngy5VEPKzyyN80x2wr34jEyw2PSuivCCpe2aOTvxl5yrgpYeVCJELUKnqrXaXulUbsoWilMTKPLqVnT57T9sFotKrSyFjBWcn2DpyhdxrRfAISVcQwkgWyN25NIgQiY2wAVhd2FLxZ21ZdRQUsZbzWy8Q7SKFuaLnikFFDQUvCr3E8mqnKe47MxIa7EZzo4L8dZhov0x2KsSQNIMhvarKQRAEhjic85ksg0hN2dlKSuDoBH9uPmnMQughbMQKP9jCgwZJqjFtAqngIcS2M9Ar+Mpr0IccgU0gxEfq0HS5nIabNQHCIIFwwYWE3k1+7at5e9/UQiAC+47qh93vU9q28/YcCqcSc72esDeiSi/9fPTaiK5xlX7NpX3HDUntytugiVoe77Tlr72dtP279516l4/L3/PpIeMfiiJx61J19acowsYDWM2Fp743379nffcjLOSYCgfOI1u/YlTzpqlzn6mT0RvdsA33dZOiUDnEgdoMfPEQDd0kZHTjntgN5gNY8hzHteqewWOg4/Qpaednoo4VOp5uwz+Eiqw4FEekBaBY15oSYgS9V1Gxjv9eZ0jFd48A4JNmjj97q9jDVucqGEZmm7HZc0cAjcztp36mpRCNWng88R3kV+w+dD68ghg9heKqF0WWEVOY6chY6tFiajEhUAxN+V51NQFXyTHhf84UWmlvyDESmAkoxL3FdQmFT/TDiLz2EU07CkAkE+fQy46oM4mEvOoKKxhsmLGpMAkKyjzBqGFgsZKBeZzSCpbm7ME0/jWRL++pmB3kWY1PlfTa7qWMMheV7JVCQp15E7wIk581xpbZkGq4hSZBJUflMqSD6c1xEsGf8eUgwXJkbofPUj7zCjDia/8dLW/sZTjuNsgwJw14SgQuh+fkIP7f/W3XZBCP889bJd+8InHrVnXr5r4+gEF7Iexfip2/ft1XfO4OCmS1v7tGuP2qdcczRSHVXjorjQk2EZivQJ9TH0bZu90BFz/IDLdu2/uvm4PeFYgvjLuU2GexAEhrdU4vsWoWiIhB2hRak+I3e3hjYjN4HLXkSZQ0GaIQtFHMWQqUDNcFbFkcChf2MXuZSDXMYj2FpFWheKTwofM6WQBofGgPRIIC2cGVG9xpwXQrZqJNV14xhTFhHWsP9ib7pzQrZNxpFyFlw+hnx0vEMknXhk4lL6AMWW5ChH7x6VG00X+rrZkJYrgOC0eTxIJJPo8KKQUubBhpaUALF/sGh+rV79SnbkM3IwGOuNsZdriNUXBjU4FTVvm9JouPUsESsKn6eHXzSeg0renTTakUDESr6qkwRYQHCpLshoxmSCQUbouOkUV6zyfEKnnBpaeZXFyJsw6qyAzTqaxemsA0BYm8XH/KfdMHzHm07aa+8N9mjPvbZ7+lww4AxCyl0qnUAFl6ve5h0PtfZLdxjwqDsPnnBJa5933VH7xGuO2iVHrb35ftta2YEFA4rOwz1q8PnXHbUPuKzvUIC/UxjWNVZgfskTmiC/7p59+0dvyyhJT3t0gPAhV7hnEMo4DT+ZNxKhdMlgwIYg0n49VUAc2wOiT4IlKGCFR3X3MNIgeJzaxoZV300Pd2X0VNOLp+3qk0PycEdHRTWUK5xrKmjKqMWcBrDlma+7jYOAXK8b5uKjkF1JUvYZLJigUG/dywN3KIWxqQzXyhXTCkMWfF9qDzaMeCoFpwUBAqEt1cCxIpmM/hlgY2WAK5DYam/9eQnbF5BQVcCyjQImgq2GV0zFvKMxfxhiRROa5iaRjnw1miGBhRQj0qaJBI1nGHkVaISHz+mgEOX0zBesRbtm2Cr7+R4hx1n8l8c2e2sODkKSGOCVghcm4ZLvIuVnFBmznIBnlVlluJS5UqVDi38ACI95KLCewLtPWvs7f3LS3unbBHr0/4U3HI3zDAqONjGiSAG8lRAD5yTbB21c3Q80+onbTgdg4J9rjlv7L5501D74iqP2j996IvUP/bkeXfj4q3ftS590bFslI+fLt7nRYKY0qKsIf7zvZvh7bz4ZWzjx09MV/VwE+UmbCiDvXydwYF+BHBANk4pQZ2Z7fYUuh9Z5rjjsD7UAqD/gjfc5mmE03RCjWnt1OIrRkoLLBELSKLqK9MIp9ZY0g6yeF+fpofDo9MXwUFhJ2/dZ/BTqeWJapAvC0cIJiDTOgI8wzFMrc9EYErQJmLJig4HC+H0Mjys6/Hdflllucj7VoPDm8XyP+l5EESqYiL+LMa9AYaUBQvlrtgvBODcmLHO0E0AatJa4mLdm9wP2kkde718BfW3nkO4MItic9ShUGck7htLAO8WDjlx06BRCIZ/HzM3oetHg4mwGrhdCVCPHNiuQLEj0SF7oKt+ySKckyrHuHvlbme8EaqBRWuu6BsJzJWIRQKowR2pJktPBBhRRzEEcUgwXKD4Yhrlvb7zfXfdrL2ntm5583J7eLzGgnxWaXz5QDHXfIdFTDT/5ztOx04F/el+PP961fv4C/1x93Nrzrj1qn3btrvXfE7duhLoqUqnM7vc19DMefvOe7KuDgw4SQucHFNCAXhYCZaGPyQm5F5KDroRL7TveoSIsqFV7IyMMk2ci+XnOy7qIs16Cgov0hbWe8pwGHgYqqALLG7syIuIZLczKA+o4r0BOsOLz8o5YkbIJtllUZZej5j6n0lViH/uVAMZ0wMYqFMuGjdcOXh8MSU1nM8hRppvGUQNJWYuZPmFNWcuaURTPRdMMmfdLWCxGojtI+WP5XQDvgnWlPgDlAoXmE/BBOwUtcaZrW6dwFINNmI6Uo2/xFF/DHazHW/tyYPX9FBKXD0/t5V0JVBsSaTaNKtkIGdhkYiT0GHZtUKV2HqvNBJ6hwcpwQ3fgLEPDr2ASRAzqCmXb+CbaDnVFOSiIgJgFMN2hBkGl/wL66z/euW//5O0ncc5AP1PgpU8+GscTQ/8gajAZLVICQP5V83S70L97x0P79s9uOW2/d8+8M4HJ2Y9q/sInHrc/f1XZobBRgT+Fg904hpA6Q/cASd/N8MvvzjqEvkXyJTcdL4J2KQWsxFTX1ZJff6d4B5HDD7sFVRZiXQrlipGMbVMEjsJZ8F/gfVN4Z0VlnovsoHBLM460lrgRAsCusMMipQJMgKPcEQVMMNiLm+cyLaGeJ2bKRhbUCnU7pp5AQCJbfrGSfTubv2qYZI39nPpgozAyzKUrYEBwB2fdUwqh4pQBlPw8fK4bWMlY5cFJ/QxaOF8VkGHGApEnRbGTgS7txHajiN7V2g7Kw3veXFIInhIQ4OcIQfgs7YzAE8B0HScDhhCqDOv7w+t3rXk5d4JKHJUfK+dAvl2yROGpTHsvLklIM/lY622IvvhgZ0T+Un6Z1/J3NurJ58xwDOzrNlrnvaAVoEupQYL81OLhJIXz1ohccjDsArKQF/lU+tbEl996GmcN9IuXvuHmo7GFEAABJDqf8uqSZ0ZG5NwFZd/e8WBrP/SO03Ey4uqng4Mvuv64fdw1u7FrIQBKEer8woN9nPaQvrETobWTtm//9zv37d/cfhp1Dh96xa5985MNINSf2VCywnA/gXPIVQljL2fMg1zGMMMwcKAsARNFI0FDWRMcRkTGIU16XT3Qk/ui4sYKwEbhYypgrTTH+qWBttaZQ8z7CMXnw5FUha9rVXuBfxZtJucQBNIXlP+osFMUaWkb7VbejXQCV6Q/nLA/rx8bWE+xiDblXX0ygHV/5/JiAAAgAElEQVRuGHa80xKYjRMeQWMSXPR3XhlGhojZVca/3mGxMuIhUwEOs/BS/VfnzcByyV+83gH6CX1mSogILiCJeTV1SoLQyrPGqNYuRwdSbvrYx06m4N8alfKIRaQuXCo5jeZznQozSYaSraGLM3kwaIFzKUBofyHei+MMWE5nDhDx4ZqLAXQzAlLbHZTy5g4AYWnSHvsf9lMK/wUdkPTnLu/V/UdjB4Oaku25ssIK470yurvWfuOuffvet51Mhx/1xz/12l370ice69kGYWBLg8HIbMgISZAA9jdP9/uxhfLnb89CyA+6bNf+2lN6f6lc1tAlPS9THAtlVEOvVBxk3iPDEOuFc4UmhvQMu+C0RS9TruzVk22ejBcypuT5hOcdGlnSOKE8Kb9bdFBAHKNEjVcQuGTmCI+ZlFTkX8ma6c7ttDPCAqro5IAgAW4JVCpLrqILWF0N3Z8V6mWjoxAJsiBLT4OoLheDlC3ZAyAAq6yAxgoExLxCnpDsWctVjD24lPl3nerjPthLt7ZIZgCmJeml41BgYMZ6BiH2uQUvvP2yfTFbZZmzkUaUgYkYUbQ52pLSkquDVlk+hAsklZQFuIpp10abKbLUSwEI8v3B02U++FvbAGjIvUsLlR0AlANx2Q7QwSHFsKLdBfFZN5o/QQDhGZfv2tfdfNSuw/XNLCck4zPzEsvjpDDOge5a61sZf+jtdqfCiuF7TcJ/fv1xe87VdtETVK89C4uPX2GabIAhIo54scUHn/cSi34y48+9MyMIPVry159y3C7hLYtk/usYV2OWz5gEHLoUa1PC9jHL2XxZc+leMjgZdwBEitCUJ1PV5s2eB6UuomrK1dv4pz7LKsyPoXY6Q7li7qzeMiOSCplUcUQl8g6DHKnNAWNhynJhGcZcrl4Mo6Pn7MweGuiM0C+1AztGNQyjKAuUxdaz6fSEhcEM5V3wZD3VN7zdVLbTmEnuJDzO8ujkilXbQAmgaho2AnNRhGwIy+4CyLUfZlXIXhQCATOuNQhzLEV3yY9sosCzMXzK5GnYPY08xAsQm/UFc3HeIsoGXsOPWa/ob4KvSnU2+/IARgy3I/rA9poe0PeJx0IN8GcQ9Pws0r5j+PR58DBAlUV1cyu0arH4q4h7nh3isSnir9RU3q+dC3NIMVwQiKBMohvNH7818/IffPmufb1HEAaLlVBjxfm53azcykdeduecfkjjP73lpP2/d55dg3DDuda++sbj9vTLTZpSlFUJp19sI2KFMgmsX+D0c+880QjC5bv2LU/uACFnpYozTWBNOYw3xte+fY+s5ZC1WoVdt0GWXL+5QXkE66jdiKgElJX9a8aVg8p6RbKqgPSubC29aMl3PBj+cCMxiGh9iMqiWiX1uotnDSUidVZkiMfV3RkWz+I3tmaLNkvhK5E+1l3C6omcgmmSJlwamcZbDQnwkoKD6JdOjJD3COyJ3GAtzyhCBAeu2gteczpEaJlC2NVxZDuz0tzMI8avqwOJEB1SEFGKdiQOEPyhGTVKNSVy2jL4au7W0YpImXBUKoyxywkTriiFBFo58UGTMVVEJcqqSM3eIgW3dKboqPWRXsIukNRaWaAIo454Ce4ZEWSB4UkKhFdK22P6FTkDEqVxhwpIMpgDVmSw8tQBIFyI6KC19m/vOG0vv0W96g4Q+nXNqRDXk69hXbbU7Fv0Oxr6LoZ/f4deutSPTb7+kt24+IkV1gdetmtfdaOdmHjmT6DawsEhT+5T7Fp7aL9vP3XbfpzSiLMW+hkI3/zko3YU3nPtjRRNcZbsSTfq8po+WI21QwoK6bNV5TSDQxU5XNAVDOutIcjsBZVUxVZxJ/xiHiC8JZlPKifZIeWLrfPjmgZThIManGN35Zt0SEXJBjhzxBq2T/iCSCqfGz9zy4r+W3wdz4ZxI8/NmX1ub6NOgC29kzCMEjWy5g+dhzxD7BJPLYDH9hwVAI7mZB9e9l1BxDwqCvsT23N2TMaIVJ51Ot2tcF5a0AJllb734JatthGeOq0HH0Eu6QmaoN74CWryWmu8wKdkcs2nnUZ4wyMyA4P7tl5vls0207hu6xSZ8fmg32xjFY1IGWO21PUs73Hkpqxtvke9HiIIs/K5ED75lTv37ftpF0M3yn0Xw4245GCrAJCMVNlaa0bBGawff9DrHH72nQoOrurnIDzxqPWIxcveftr+oNwi2Y33V9143K6/pMT8YcTiuGNnflEA8+mGD+537cduPWmvfHeCkX4J1dffnAdCrY2JNRwRC5HIsr8fQ4liTQvRVkVbPaRBSrXxXiRFkgkyjOfUSmCE1gwrLgZ50CiJODQ3bp6OHfpkkQR4IqurgdhTjDMM4mQ5zNjdDrkF0hCDGUsALHt+FS3SXLaHSssWLsS9me/QoNn1VGSTAaGh2kKRoqStB2veMCHg8xv4XPswKzPOiCHpzGfjTGTyXHsBXDSwCuC2DW7yVRo2NrR0K2jhXyTI0u6lpbL+UKicHnawq3+vm4gJgDIXRGrD2wuWZ5nS6J0aWnU6bJ7+BD0Yu0n8OzWgtUWOVNLBR+OllXdO/M8xv0J09vhlzWKZiO8p/1TTOJiipVdrEoR3RxGfqYrx5c26nZgVgdxp57BFIw8phgsBENQ5/M49+/bdbzlpOD/oieda+6abj1s/EvlspUgyIR6iK03vqN+k+PJbTlo/kAk/PaT/2U84an/pCUcjvN8vePqBW07GLgf89F0Mn/y4fvfCcRvZBgommNIsp7L5ixF6jMyxWa37T3cjxdFvnsS8PumaXfurfmLklELw44vNFtUCQjNu6RH64GDwcI+7hxTNSyHFXhRl9s2m3sP9PG+uSvZx5SKxAsiXoLSzhsOhDkKzOEEuUiJUvObPmILf2ALFdKYz5NjcMxgAdyRvZbuz70MFhrgzA+kV3ddY1kgpWnleQAOnPOD9kZeX+W20ojCG1bAYF/pD5EiMk46MnxMvnL8ggBxvb0QQAFD435rZCltVxoU/gZl4Ewc8ACuIK8gus1QkH2SFJA0AbvBDuwL8ouYE4XnIl0WlYqdURHV4TSikDnTF52vEhADKA3mYVDo45lyYPWFj4MQeR7lUDhVmWMBgls9ViiXXSi3ykFrcejq+4uJMMvg0VrSVmtxGb6Pz9AU7FBUEeAORvlO85FrMKHMACFXLXCB/v+WBffu2N52My5X6T/fsv/Hm49a3AK5+1KOryStVFv1gpO9722nrfbB6/dRrj9oLrtu1ay4xT7KH/F9z12n74XectjsJSPRbFz/3uqP2vMf3bY82npVC4+shUVglynbX2n2n+/YP33raXudHSve2OkDpRz5Dy8k7oRIIHISeS4UnsJmBUjRGz4p/CnOYyg26CTKe4/ExbBB/XY1P9KqWJDx4gJC8+U3TJhhBBRxsclZgBArVT0ckMBPKthS3rCtTKKRLi5ORDymOCB0tBrkwsZBQbcOiXqEqXhi07doY5tEwE0WxrsZXP1MTk0YvmsLYN/RQ5eVYEW94CxhoGGdOA0AIOfrEfJqFM2SoJYRQgSbLgU+m1C/goi0bsz8fhEji6tkHNqrVZ1bHw7EiL5oZ4kBgZlH2O0Wjgodm6yn3nwDYSTxrzV/4VHhixasQPWIW5SPQNuVxtX7wXuSgJeKraHM0x/TOhw4A4QIBBHUaHRj8nTd2793YoHv0X3nDUfvka47Ea2dPQQrC2PJTMVY/uvl733rS/uR+LTLq1zR/9Q3H7TI+PnlsQ2ztV+48bT9862mc6tib7gc6fvVNR+1jrtIXuD4rkYP3FYLjkrNr7a6HWvt7bzkJsNIf+dInHbVP9SOl0xWCEbB3UwZJs9JWKlELXoCkxykzQGCDmwqMqrxsKggPImwJbTxt4WJPObelpmdDLgFHAAKT2NhCKZIhl1A7wu61Uonc6wFS8H4N6YN0sQsiTySkOimKWM3h0FDoRHB478OjdItXDWsxAwIiApCdYcDBBQAwsZq4fpcV6RgDyvwRFiYQnfZv0ibgDB7/BAYCi61qX9TYsKc74Uoe0ugQCTT2qrlQj3iY7SdqcMbSA0xkse0wz5yiICM5GyqaExs+J2nWO3FaKhiZQD5n7gmMqPiynfMMFRcdqomeja4DCXEI6DAiGlYAMS37pfWn9GUQZXUdM4hHAAlOU/VS6Lgz5t/QPqXw3KJV866eBFEz+LEJ2OfjordDiuHCRAjdYf/2N56MQsH+083wX77uqH0+rnquGgshRPDHsGiaAuiXM/Wtk/2yJhauXm/wVTcct35bZGW5/lw/7fAnbztt/64UM9506a69+MZ+YZNpDjEC1SLUdIcLw1se3LfvectJ3AnRm/q6m4/bh41ICSk3KzPOS2VcgSKkB7kI08wTlJ0KABrMNzzrdQrHhJLAA884wrNbCizpk70rxAnBplxM5tBT6BkeWVhyvV86i8By/1uyA4cxc6FgR7cVEAEE4i29thkzpFPhQocWQpFxYHJGe76G0VW8zh6Y0WaiRG3b+SexwlzEqAZH+WTJTgAW9GVuNyy7aGY8IkcQQH5mQbJvzEFk3rQJEkSwOheeN2RECKi7IpJuLG0qD4Y3smFcEDaBWOzGCdGq4fskVIKjtNqRpohbUANqRousESRqEFY2aTI+Khn4HEHOcXvdFRGFpNTirhrRiGuf6bRMqnVg0GZjxG4ElY+pG382xrvABzyXoRsOAOHCBAh9ofsth/3IZfz0S5L6TYfKBBlQiM8Lx4OxX/nu0/Zjt51G2qK32w9e6pGJfjsjn5Ko6nHX3vVQaz9y60n7NaoV6M8/55pd+y+flJGHKfdJW/jy/vdcs1+72+ocHvAtDL348aVPPm43LHZrhA4QZRti61F4zr/md+ZJGyrJ8CaXZeWYrJ8C52EM8K8XYw4lOQlqzbXPBs26wNZGTIiAhI8187qacKk59lCWaaE87eNKLvQwe4SWakhTif5z1zupdDdodbJzuoFWJOzdSkrPMshkEWweZ0QT8Cz3K2NIK5rLWgZUZYq/nsZZJoj1X81HDH/hoRw31ZdQI9oNuFI30hpmVrOph3/pCBBRShCI751HR6fEhyVElHznkTFKU2RKDdqDJ5O7BZBKwJpGGosjYbLtkGVTGYHHcyYYGGohi0JEl0gELqQ/E4/xMKfOsGdYUzaQp7rulTeWvEK1DGOWzPgFW4MKVdaiJsm/OACECxMfDKX4f91mBwiBmfo2w7/11ON26UjPV2+67KpjuW92dfN3vaXfDpkEO9q19pefcNSefWWvBdi1HrXoKQW+2rk/0/cT9D7vOd23f37Lvt3uN0z2lvrBSb0eodcNcMgCoeWovqfxQKl1y9oPhPqZd2aP/ZyFr73puD1Ob7XeMDTInTCcIWvgN7/1flKgGB6w5YG3wMoNlXLpQYV64muSPUQ/QnrEj1p3keFirGfoHXho41+pzqPWFiFP7kuS1BlqxRkOqGGwGz0zVBrV4mN9cvRce2AUpdA8aT/Yk/4vPFi+NdReq1GOGh3K9as1jqFIueAvFmHbC1yCD6RSfEyRQy8PV6AhkThiufCCV1vPaOAwnFOdBdkbBMjgqcfZGJEiWt/WKDUifl7H8Eg9/hbGvoAkMWDTjZ2mX/jabwhgRqzokK7Y9aKwSow3hTY6m0UVhTNQ3nWQY6+XhClPiqS56ikyEgXNCa5wzLgRSCMlUnDoqmG8ybuIADJw0qg3MRtqaMME3UGCen6BoBUAjukI2DgrJZUhxyIqcLK1OACECxAggNn6VscfvCVvdLz6qLX/5qnHEdIfvLu3FECvN+wFf/32x7v3bXj8dzy4b3eetnbnyb697t7W3kpFif3dbvx7CUF/p4ODoeSrZt1ZeqOzX69PePDU+uKf7ux/zNW7cQNkvy66G/d+f8M1x7vWj0zo4OLyo1275Ki1Izr/vffZoyT9Vkn8fNzVu/ZlTzpuvRCSkxZh1h0YmbA5pXA/AaqSq9BG8CDvgCCT5PKW0YRUntY+Qp9QLmZUvQWMI9C+va1FWO69QNnsCIRJ0YZYsOmyKLTsoh80g/rLzzlvizmAXiBruiS8nKuUhSg//qMWf7KXszgljvWgGKhcRp5C6m9X5ulp0kFhi9B9GDPYEBrzFO2hOVB2x2RhVbhGxIpfmRfcsFAZyKShCDt47aCvkbK8RAqrNCC1FvNBcSldUcwe+v70tN1/333tgfvuldRE7/nSK65s5y49146O+97l5F+RMYX/DgYrnyvFzLgicuCGMi1uiGDlv1mlg8MzsmEHnrkxjegYB/4AaP2qdYkgogd+0edNETip96F6I1wpDmYdsxb6Ew3LKnLSBIARVBtvCQl9fNOx56m9MJNJRp13DwBh5qYL5pN+BsE/eGt6/d1mvvDG49aNaC827NsPb3mw/9u9egMFd5/s231uxHt9Y7/Wudjz9yl9ekShq5lzR1bIeGUHDUetXXuutSdeshsHPT3pXGvXn2vt/pPW/v5bT9ptvo2yv/sXH3/UPusJR3mkMwABPCLx0VNriWCF42/unmab1zUGYrBS9fi2JVVQGMLkEbpTIsor8sTs/9iIfvkV/649cN/9GT6PcRPCcYMDMlxz7ePbB37Q09uTbrwxFH0Ml8O9q/3fsvLk2YzP69/5sM1eURcbOW5Wea1Wxhde9IdN95KVDb2NWolZIbJiZA8/QAhliAJTFkGocrH19+rU0snIb8jZdh+8EyHDEojov/WP39D++PdfO6Z5/c1Pbs949kdN4L2OQSIdztD33Xdv+/1ff037o9/5rXbHrbe0u++8c5L/q699fLvimmvaTU97evvAZz6r3fDUD3CwwKarGlAqlhzrFZT31JZ3g9C+CA2JFdbeU5HpB0t5JUG1NZ9K3QoFF7iOp/LmVOMUNUaChjiH4Nuo58hDlQH151N+ZAw1i8lfFhVQc2z5aPYE7MUq8gAQ3qfm7pFrvC92N/j/51tP5LCip1y6G558jwb0yEEPa/e0wPsTBPxpqNLZuP/Xoxb9vx5teMIldtYCEgw9avAVNxy1jx47I1Q5rZh/CLhX+trvibgBxa0VM86zUJEm8UmNUKcrrUy/clwZXgusG6ihmXx4CtInpYX609/8ohe2d91++3tEzqPdrh1fckm74eYnty//mpe0Z3zYh7ejo76zBcVZXLXOXnCclmR4IvSKBKkdBqTrbWmDvF9CUgbRhv0iPBjh8wRk5Yk8AMpj4h3K9YQa7A3vgpgBnHr41ZSN53mJirNYDUfOOMGIKHnvQICRR7Bq1C0rUCrImtg6D6ZCgaFHn179iz/bfvIHvq/tT/ftkz7jM9vnvPgbwaEaAfD0lKWAMkt0cnLSXvuaV7efedk/aHe/+13t5KGHfFfMNrsdHR+3S85d2p7/FS9qz/mMzyICZ5FkvL0ozM2DhdK6Bb1450/UA7D81aiXpawAE4J3EHHzBY7TF8f6YJukPz2GQbsYgoLgVz5qLMGodeERiGHbKXWxKnoURpmLX7mIJsGwUSb02viryGg+Eb9xV8aSEDSfU+hAm+wBILxH6vXR/3Bf9B7yv+Nk397yQGs/ddtp++P733vmv7NRBxjdBKO+oMuuGfDcPsgFfWZczRgDkPR/e6qhRyjeWz99XM9//FF79lW7du3xrl1pdi99cIomQI1n6iG9kvAxpgsGUvnXMadZLUqLFYy3N9QPez4oKCQVjvYlZxseign1S1/4V9u7bn/nn5p8586da5/wqc9tn/8lX9ZuuPEmOuURilFsSqxhdrjyhFDkSQpsaLIEAVomUcEBg4v11KrnS1iFt+tPi1XTA0NBklGs3hl0rtsSUbKhnCdDt+ARahhAhMeyEgGOLgVgiJfnPkYbwLdt3179Cz/Tfvxl/2gY9U/9zOe3z/7abwpiGoglSIPaFX/injvvbK/4yR9rr/pXP90eevCBeO/aa69t/b9LLrlkgMoHHnhg/HfHHXe0e+/tqQfbVvcFX/2S9tHP/1wDHB4+l4I55vNIJWECjswGG7kBpjQaaAXbHaBGFjMpykDbyEMRQW/XjCyffU5wdQKxyfNe5U+lN9hSaKAABMjsQu7KcDxCt8Em/F3vKyIHhWpFOE1qPKmVF/NnGBcfEe0L4izB0dQDQPhTq9dH34u3PbRvv3dP96pP2xvu7xGE/dhxwEWDD2fUPe/f8/93nu5jdwDE9yOu3LVPuMZOSuzXKZ/b7cbvw7P37ZSwfYhMJCjYtwdOdq3XOfb0xVvu37dfevdp69sn+afvjHjgdN/ufk8H3nqtgo39pkvbOO75Qy/fjZqLnn6wKmQyQKEkMzyQgqs+5RaOySwqRxjs3clb9B0Q6rumNzLHcQBVEi7kOHbtpV/55QEQvviLv7g99alPXS7v3Xff3fp/t956a3v961/f3vCGN7TuIeLnQz7iWe0rXvIN7alPe1q+TzgnnR415uahMxBQwIAITURUJLE+e2GchdCJ1HBxfrsy6vMlObp6xc5KY2FoHQHUded3+TvxzPwhcQzZ2ytkuuvd725/8vrXjXE882OfI1NfjjV29mSYPgymj/tXf+GnlwAhV4t4C5GpfWt33XF7+7kf/CftN175ihjH05/+9Pbc5z63Pe0ZH9quvO76dnzJubY7Pm4P3X/f+O/ud76zvf0tb2q//du/3V71qle1L3jRS9pH/8XPHe9nQC1TInkpmQ3WxsSGlxAE74iIEWlxsdX2KLVZTkoyRtc77aXdcCmRQgYas2ipfNscDKcgAkGAIV5fAWLoi03OjJoNnibzX6UhjzZ3h6zlQOesUYkDQFiq1MfWhz1S8Io7Ttur7rQtiA/XrnZW7V5397ZvuLS1fk3yUy7btSefa+3Wh1p72dtOWr+QCT9PPNd3CBy1p1+eW2gKwFbCEb+b7LF62rV7Tlp7+TtO2qtp62N/6nnXHrVPe/xRu+3BHgXZt35y45sfaGP3Q3/nPZlfL4DsQOG51+7aM688amP3I9l+EfIh4xgjaY4FO2QYuJ4qmJY1diFg7r4NCXEW9B3DibsNoKiqefLP/Vjib3xhAoRv/bZvbx/yER+ZR8qS0u1v9U0dxx3QtX37/d/9nfY93/M97U1velPM7KM+7uPb137LX29XXX2NfeaWMuY5yGGhYuTUt7yVVJX+G3aDiNZKo0/dhdepCo4NBun3ok/Hn7SJYxEdtqnx+s/OtHXAy49leBjRgpWKBw2Tbt7FrrW3v+mN7Xv/x7/R7r37rvaJz31e+yvf8F+X8wgS1BK2DYLkhlIFqL9aIgifNSIIMKxFAJxmPY3wiy//wfbKn/6XIasveMEL2pe+8EXtzQ/tHMjbuuXam1G8/Gjfnnjc2tEdt7a3nx63+66+jowloU053jypBQNnBna+lyRLEFAovOI+BtvgKu872sTCmreNn7pjKLUVmKEqgQJsIk2r6E/vV6kGegvUEI/nAKOoOuAQLae0nFNkVpYJaDFj4Xea/AEgLJT/Y+GjXl/QixD7Uca/ec++3UVHGZ9v/NddsmufeM1u3Mtw0yj4242jmPFz50Ot/fN3nLR+3wIYr0cIvuC6o/aZj6cCQJedOYcqdXOmlGv61AXqj/zY5h79wE+/DfIrbzwe3j84vEccbn9w3255sLW3P7hvv3n3XuoPzjfnHuXoAOijr9q1Z17RAZFFPkavZAAQFl21lyNMxI+A3lCbbqGGAONQmupG1sp9p86cSigHtoCKCNXvNILQAcIznvXsKQihnpW12ed9es9d7Uf/2Q+1f/2LvzjCxP3nxd/8Le1TnvcZDqBsgXLOFpLkfGjorsVhS9EvrDZqPKhaG4CDiw9UhS4UKBvrWCQHG7ClpZaE52Aea10UaygAW14kGfy34osK37iNGJo/lLsFIvI8HnnbH7y2feff/Jbx+6c+7y+0z/t6+x1t8UgnXt2ISvTnegThJyjF0AEC0ilSG+O06DR5x5ve2H7wf/uf2rtufUfr6afP+ytf2D79C7+03T7KhmFMbUJsXGMd225EFXt9RpdXq8zPcz4G5TejTtm+bG8MI5jAAItS6c9Beqag0Y3ByLwF0ObEEm7jSfpj3lSXQAsOgIN+Y7txPWSNrkBNLRJLLnwo/Y8OPCLBtyoFGND1OS8vSpcU1Sh5uANA0LV51P/VIwT/39379qq7Ttsf3Xc2MOhh9adc2j3HXfvj+7KYrxcqfuOTj8ZhQqFvSfe/8o79ONSo72bAT8/rv/jG47GtUezpWteyzleFF/2Y5Pcufvndp+1Hb81bIXuTH3u1nc7YjRkrzP57T138+G0n7ZfuSJG+9pJdu/lcG/UWNWXBi9rb6/Pu8/mEq/vtllAcFPiPOeV3Q+DqXOksgyyGiiDE9DypmFA9qbZmQqoSTpPhukJSDAYQPlIAgipQqCOo91174K472vd993e1//iqXxkk6jsb/ue//73tiiuvKDR3BVKtXBgXPM7qVFUrTpLgMUVe2qMTqdTwbiouoU4AAVfHXhQWBaIwyhtKcNlWkhdHhEiRYr5DylQMCEyDGxXKZsmFSBLCbu2WP3ht+z8WAEHWzpmECv01Csbz9YFWgPDZX/tSClObUEUf/ssvvvz72y/95E+M7z7o6R/cXvI//O128rgeCcjnc6lyM35GmRwQIERHNkvWPUxdCneOBQWtfKui03yHLYdsOiuPsMKYz3oJGSRhntMTqyoATXPFzhYoBhyi5rUHhgvyoIoAZcSTCaKdvh69tBlRuIoYto9/fBcXx80mqwInWWuGPFhC+newGtUtHgDCox4SpOJ50/12GuHv3VPruXMSnZd6Hr4bwE++ZteecflRe/OD+/Zdbz4Jw9mN5ItuOmoff7VdlcQM1S9V+l/+pG+NzE8ff8mufctTjoYBRlEfk41xd5YEzhl1NvTmcfthKa21f/zWk9ZPRWRT0wHCx1+TF64MRu9nNpy29h1vPmlvpgMVnnvtUfvC649GSqIDqFffuR9zOCsd0XdBfNZ1R+0TBx20moAPHMoqsesAACAASURBVLJQNSvVAhwIMlUzrMVPXs1NhJCiKT76dhFmjeNq/X2uQfjWb/vf2zN6iiHqo7j631cljBYKCVu7861vai/9uq8Nuv93/+u3tQ/9yI8qi1ejB6ZyEty4woaXFvUeXvgZldKZuohbM71nAZ2hdN3fjyI6glhASeT3DV6mHIM9vQE2ooBurhqXeXHomCz9bPAoGlWEioZaAjD7dssfvG4NEHgQFOnqTZ8O40D8yP25cl9FEAL5ODzgExN7d9/+NV/W7rzjjvHtl7/oa9ozn/8Cifzliqf0R8GjgBiiTtyn4WYq7B4Z8kg9kmUa7fl6R+0OlpOIQ/d1APXEzoTMS/ixD2mwmXljtFIwmbyjWok4FbUg2D0Qhr2MM25YpZqMCtCCHMSP3lWkllSBBkjM4Ah4AswNMS4IYzym4IXrf4SdDkctP7oRQueRdz7Y2ivvPG2vuGPf7iDDjZH38H+vI3jaZa31IsL+X7/nANva+yaG73zzSftDv5ehv9dTDC++6Vg8kW54/8WtvZ80qx1M9HMF+omJvR/obg09zJ5AMJnaUnufEKu32F5/X2s/cMtpu9Uvl+qf92LFb775eNRHMNP+xt2n7WVvPx1hzP7TAdFX3dhPdOxPmTa963Q/7qH47Xv27Q33tVHPUA9o6u/2KMuzrtyNuoeegjjGKZOrc+qDVXJSVviYyW/eJbQKWcpEFlu9aM+FAyiGX6pUX/qVuYthRBA+4tm0PuS+yZXOrqh9Csdt177zW/9W+/Vf//Xx7hd9+Ve0z/qiLxG+QKNknoUSWB0JDcMIeXehbrm6u4geG13WhfY7Cr7yboi6HFxMuT3W7DTMDBRxDaQXe1I1RR3v+BuGskxAQAc1tIogSLsUiYi2ueAehtRTWvCnew2Cphhe6hERAtxu4Lq/fPs73ta+8xteFCP77//ud7crPuDP6ZRjLMT/NGkDQhzeIYPla6jAMHlUd20AESVIgIzVQuPchExtcTokwIVTlcLzM7+BetVtYhDpc+Lryce6A0TnVsOoPZnSFyBr9oNts3m5UoloukFndcrjn6IgVFvDfBniSDgHuhxqjNNphwhClfpH2d+9zqBfdPTae+3cgvrT6weec/WufcxVu9ZTB1xLAKXctxL+y9tO28+/63SE5/vPtcet/c0POG43dATgivC37tm373/7iVzN3I1mL0wcdxsMfjYWPUuZjype3iHggzZG1S1+6LvPrR+Z/K/7GGmSn37trn3+9cfjRMXefX+u373Q6yPw04+Q/pqbjluvXRg/ofANFNz2UBsnQb7m7tMBkmrNRH/lhnOt9euqn/s4BxnhYqA5BgVpEnOoLOzwIOo9C0q12aBqHpRtTOxT7+NyXTgDhI8sqmgFEjwKRAVOP/sj/7T92I/88OjuU577ae3Ff+2/zfCokpSoIqQOMBMsgpRM2Ax2g/OWRuMp0C63gfHcsaSitovF3a5izxUK6v//7H13uF1F1f465yY3vfcEpCO9EzoK0hVQ4ScqRUTpihRRUbEAAgJ+KILSFBQEEUS60psGASEoHaSH9J6bnnvO71kzs9Z61+w5IZ+flD/ueZ7knrL37CmrvLPaiBIvCEm17FqXWhcYAjp14EAtKTLJeYVR46FpBReDE/ygEXTIeIGA9ixuomRB0D4GGoKjwJtEcydNoHO+dqSO6Js//SX1Hf0hN3lmwULoKx2oWgy960Gsjxbc58z0LsjD176IT/AyJ7P3xd8FLKXrhUKdKyvJIHXfZVYhrGwQuBG1ZrIQaBBlhQZF4loWg2Y0+HMx07x6ICJkI+6FHKaI7b+UrisbI3eENtCn4yfsdwsQrKzRZUEozOIH4CteIA7EY4U9txCAyDn+2/Sv0+6D6jS0m6BNYxuTIZEaOJDx8smdLpjxU0Pq9PHB8Yglzg74bVK8KDcPG1GnrbmUISiKnHD5qY1mLWQ8vLm4SVOWNMPunsslc4ohVz8MR0Rlh6nk2y0OVGRLB1d1lBcHVHIfOBOBhTenRvLxzhyLIey4ff8a7T9U4hUsqQnwTHgU14cYv6BJd89qhAqSOcjh7u3YP1pL2usYJY0qSsWO7TcB9NgRy8aFUTDL4TQSpIbOBQlItL4jCUoqoeZWJ0F1HKQ5sgVhjfUiQLD1AdCSBZmJrZuF/vOPP0bnnPHD8MiVVlmVTvvZRZbHHTCd7ARlvwaWDJHybPpuNEL65NIli2nCG69rT9gcPmjYUOo/cBC1tbVRjQsz6epJZoTs0tDXWxGRugsONNfZGZ7XMW8OzZgyTSm03lanISNGUu8+fanerVsIjJOWUIeEdUk/4Puc/XM6WdbZGZ49f95cmjF1irt80LAR1Ld//5AGyGNFRMVT1Wwm+JsMT9NefYnO/dZJoY3td9qZ9j76BCEwlflxqiJwxfg05frkckCer1oQYhaDKjxJbUy9nzdxAv0YAMLJ5/+C+o+xtFcDFzHDIOctfbamJbIbJE6w/QbFyETxYoqiFOuSNEGJfZCHucGbRSl6KiGrALJmlttPIQZ0I4FU0DgAAGHKRioQEwEFRZvzsUnSirRJKTaWhZKucG5AQ30Oy2ZuNM8lwD/pJikjETAY1lKS31vE0oTV6wIIuTh4/z/zjv/xjiZdN92OMZZeMTDgkxPZJL5WrxiJ75RJi+6zm+KiyZ0hsFFea/WMpzv270b0z/lNumKKBxBsleDARE6FzJ8ihN3ZbNLLi4gen9eg5xdScIFIeWZ2SbD5n60QW/Sp0YZ96tS/W6peqME2vn74Yx0NunqquQ/40dv2r9Fnh7OwbdJ9c5p043SzMXA55kNGtAULir1A0SY9jQKOLQrj5jXoyY5mcD3kG7Lt+sdyzX0LBz6hPaHi39aKKKKrPEzT/jm/KWxVJcJesEW4IY1F8UZ8w4+qAgR2MaDVIFu1JJRTCzruR+67hy792fnh4q223Y6O/Oa309HAUUBFIWvzG0dlAKjR2aDJEyfQU489Ss+Of5JefOZfRSocs+pqtPEWY2mTrbelVdZY04Wq4RroWiEOUYFMNG3KZHrlhefotRdfoJeffZqmvv02NRoeRXfr3p1WWevDtMWOH6UNt9yKBgwaXOkTWpIUIKSh5aCAv549Ywa98vyz9OJTT9KrLzxL0ydNLI5z6KjRtNo669Ma629I620+lvr06xcmcc7MGfTkww/SogXz9b75M2fQI/fdHT6vvMqqtPaWW+vs8huhjjGrrUHrbj4WzjvwXO8CWqlJOUDYAwolhSGmAYrOXTZ3Fv3gywdpo4d8/du05tjt0vONIFWniishaeC4q/U0gvDUWwASBQlIQDed27XHjrp0xIoNK10jFksF62j2x5lES0fUlvmx6LLNKkV6KV0IL1UIxd9lffcXFm5TQ1opRLJEj8AS6W2qS5LpBAEGjrCctKwiBFnxLoBQZPH398vnFzTpiqmdND2dMSC94aOM9x5Sp836tFJe8coSMbHSvnlmg26Hkw/ZHcEAYO1etXBS40sL7U421x81qo1WYw0MbSKI5x35XbMbxMdAc9rl8oiYgcKHe9WIrRacWmlboajsoimuRjzkKyb7gEUGRceMbguWkiumRHeLvEa11+jYUfUQr2AqS6Q8uEUSwg/31WIFR87suHN2g55b4HvO3pSPDqjRJwaXjoSsRkbHgYsg83AjfCsVFBHqa80DMb3KLMt8w1HKcohU6LuljiFAOPWss2mt9TZKhgFLScmVuU+njM+86aor6eYbrg9Ts98Bn6WPf/5gJSQzZ8pOCc434IDRpUvo/jtuo4fu/gtNmzw57KyX9+IKfIOHDacdd9+TdtnnU8TleStmXZR8snsjCucA3H/7LTT+kb/RtEkTadnSjEEKD+ay0utsvCl99uiv0sDBQyKNgJtcdJSaofOSz2lln37sUbrvTzfQxDdeoyWLF62QgOBnH37K92mtTTYLCnnSa6/Qb845g6ZPm7pC9+NFW39sN9r7sKOprUd75Mc0EE2n1YsjHT6ZpTkqQIBdJPJ1vdakX554NL311luhpTU32oQOOuU0qtfbsvx7c00YxVvMgFK/i0XIZUOkJbFmhHbkqGKBRFh1VJg2SSIPhsAtZzgmPDBG+2duUf1sfFfdIoA1Ajjb4mBwJ27mBQWZzmWWOA5dq+IItBu01Dn6s7wrwcMtpI1s2J620o8WyKhhWhWBLWvnxZTaL//XNNt1w7swA3xw0k8mNmgqRNTxgnHNgkOHc5GibFuFH0PN+2TSA20pJiauOfDjtzo1WI9357sMjAGNv51qu3IO3NuJswKG1kMGdE6M/JkDH2+d2aC7Zq1o2aLYykrtnEHRRqzYW5m8XljYpCundNIc0DUMYnYZWA/1GeaAC4J3+h8flLIxnK0NK+CgEPFBRAsbNbppRic91hEtH/Ji68dnh7bR2LD5s115wgLmLkkR+0HAwemQOQAyxveAC3VhfG9+azUh63ZP4geiaD7OFUo6m9ZYb6PYRBYopr7gBOEwvarRbNCZ3ziBXnn55XDriad8mzbYervYk0paY2hcxTS7FG75/TX0lz/dEJQ1K/+ePXvSWmutRVtsuSUNGTIk0OPUqVPpkUceoddfe40WL14cqi+29+hBnz7kMPrInntRrRZNVCro0Mwa+tGkeXNn02XnnEX/fu4ZXaMePXrQ4MGDaaONN6Z11lknPHvZsmX05htv0iOPjKNJkyZpxciV11iLTjzzXGrrzuhUxhGBlMrpNGY1V9dqwV3y+AP30R8u/rk+t729nYYOHUqbbroZrbnWmjR8xAiaOmUKzZ+/gJ588gl66cUXadGiRaEvR3/rVFpji2gVmPrma3TdBefRjOnTtS12kUiZYi5hzGMovbbYcSfa9aDDqK17OxSrMpGuwCdh7zwGYY/Dv6qWJwlj4XvinEd6evW+2+jKSy4O892zTx/a98jjaL2ttgOAK9qmaqiytqobBaM/ca9B8KFYEiEDJrIABjt6ukPLncYdCNJTFrK+5vRvEUTeOC8TiwGTQiuRBaFIE2ZjhPd5FIzMg7cQGr9bxoYClGyHVVLY2h/lmCQ1/O5IN2t5tXiTX6kn8Mzs8UmUdAGEIkO+H1/yjvzaaQ16aK4pXRad6/ep0QFD6zSaleryXhjxbJSo/MTlcLg6IlculBdXR+RWGZjYd0RHjGjzYCSzIoyb2wgZDxILsKLzxeOJRzLXqVdIi8gDGrlaYo2un96gv/NZ0+nF9zFI4tRGUeQDuhF9dVQCG7ZRqHZFz3XPhFf6nt0kd89p0n2zG672A1tRONODgz/lyGYn7JTH0tzpH/AVy44lPwjGgQ5cV+T0LHLf+UqpNUDIy9eq8MyqPhLRs+PH03k/+G4YSZ8+fej8S39F3fr089aYJOPi8GJfGRDcc+tNdMNvrwifWbHtuttu9JFddqWVVlsjHOsdV68Zsl9qnZ306vPP0c1/vJ6eeuqpoLgHDBpEXzz+67TORpskgRYfJCIVdcaMyZPosnPPojdefYX69etHm2yyCe2488dC7YduPXvR0obtA7vVarR43my697Zb6U83/lELQX3sU/vTJz5/iMUGiFUcwXRaU+7DwgULiAM4H779lvAtFw/adNNNQ6zAhltsRc329jBOxrFsa2Jh3KNWo/mzZtD4v4+jv//tr7TL//scjVlv43B/vbGM2hfM5WANpdE3X32FzjnjtPB56223pQO/bIGCSMid3XvQ4p59NY0z0wdppo2Hn8yyGPY4XM5iQJO9wIP4pOacaXT5Gd+nN994I3weNGIU7XnoEbTO5mMhONkfRuaZDdvzbSMUifeIFSHRfgauVSErj+GTDKTGQI3C2SZwubnHMkClMi1+b/RtaYL6vfC26vv43NI6yKNdewrGqmmM8Rm5tdPPrIEaHBiEQUlHMzwS+mBGjrxRGLf9JGMKt3bFIBTn7H358sUFTbp0ig/SG9VOdMTINuJI/SI8wA1nKyUJ1zw1v0GXTfaKMB8sH5n8qaH1KPR0j2G4nYMR/+ftzhCQ+J+82N1w4LBU40A3Coks086B3QgXTerUVMbSc8b2q9HBw9vCGRDmN8QrVaPG+g1ZFUNE6AsaTbptZpMezsDZTgNrtOfAOnVPOZ4IEJwI1EC+1GpyaeAeJZZzFdMmuiTATBlukCIxGde7lLflWBDA3aHme+B6GffcOXPoorPPpJfSrvz/HXAA7fn5LyRjB4oJNMLGEf3t3rvp6osvoqVLl1KvXr3opK9/nVbfeDNqdmunTomEkh152mExPS2ZPYOu/OWF9Nhjj4WFGrPKqnTKuT8ljhkI1JasJRpYlQTrzCmTggVh6aKFdPiRR9FKH16fmj160rJ0T06J3MtunUtp3O0302+ujCBmyPARdMS3v0+jVl7FDu0JUw/CPtEIj/jB226hO675bXApMDg48MADaewue1Cjd79Al7jTtOBUonoznlNS65hNS9t70bLuPVWR4BlJ/GROc/wxFEralyspVtJf47MEVthYvcKL1BIBVg4QdudKiqIEtQFvSq83G/T2Yw/Tby6+KJzdwa8+AwbRVnvuTVvvsQ/16NULrGRGm9GNhpka1WyUuLZg3Qrz7uMLvMUs9VZdg0iPYhFMQEEAgl4CGjGrw+BOb0yiwu/9jWORpuIjMishbJpy+ZTTozzD2SxCf1sdSV7uhz3HaFYBgIu4xR6V+y36BIFMDni6AMJ/ouHehXt4V8zpjH+GVEQOQDxyZFvYcZdeohTlt6K6zix17L6/YGJnKFNcenHmwSkrt9Fg9jO0ULwPzmnQNdP4YN3//MUug6+MaotnIyTTXXgnyQ4Not9M66RH55Wf0qtOdCjWPkBmRc0vZnU0l6v8QHaohRMwL5zUSVPsALsAzPg5nE2R9jxx0OnW6GGMHRdGs1ZNqOFambrNhQDA/5QqGgEFVK3TeA22IFgdBI5BWDO4GLxHtRS0yH1e0NFBt95wHd19y01hN7/yyivTN35wOvUZMkyLYUlpZcy34KFOmTSJLjn3LOLdL5vFjzrmWNp8591pmc51oguQQLgkjTkz6PijjghmeH594bgTaZudPlbcjcl9c6ZNpaf/+gDtvc++NK9bj7Bz9zUnbFmUKvm00A52TZwZDhLq3t5OBxxxDI3daVdFu+WUMaKZ06bSOSccQ4sWLgyuk30++Sna7bMH0eK2dgk5yWNUQ39Cf/U/DIIr8woDhHMBIHziaCu1rE0B+2NgpedPiDupEY3PYhB2DxYEK0DCilLqpAjF8Dr3byN64YE76crLLtX14TiR9bfennY98IvUb9DgEDciO/wwVMxOAjN8RDoRFBg2EKUOe2K5P5C/p9/IQY7zzPpQscJ5fo5KPVkowQmPx0ojxOL3Jm0A8bgCSstX3FVgEAE/l52W9i27wxeEyZVzXF8HKYCI/JzoOEQuZY25cVWKnFmzel26vwsg/Oc67r96J5c15h0zF/aRF0fmHzPKlxsuA4WSGjAlpoImpKIR3TmnEY6BBq9CaJYxwaeH1IktCPLKBSgbDS6Z1ElcM+H/8mIrwgmjo2VEX8ALzE6cbXD+21zVsfokDnjk8xq4noNwtQVRWyCfQzGp/WJlsvSIf3Q0gptH5oYzGQ4a1hYyR/yIM/NilJShFfOfFhivhVHS4gKSwHWARwIjUw/SoniAwIWSOM0xvlDMKoihZogBeOXFF+nuW2+m8Y/FEstsATj86GNo4+0/SsRBadCKtSfvanTv7TfTH359eQAWbBY/9Njjqa1Pn/Rc7YDqh7zmNFPXuNv/RFdcfnm4ePV11qWvfu906tkLSjxnAo5pk7Np2HoVK3BC/EBGHqakiZqdy+iOq6+gO2+9OVgndvnk/vTxAw+htnpIvDV3hixfk2jp0iV08Wmn0ivJsrLV1lvTQV89kZb17AMAQDEilnEIX0L33FxWg+uIuA6CAwjpLAYHBFRx4kYh231naYtlgCC0YeN2U5fSA/u31ejVcQ/QLX+8nt544w216gwZsxJt+tFdaeMddgpAIb5sI2HvIwXib/nZJP4QI6RZQ5VVhYk8CLxQyESoAuUSVcduVuQBkHCw5gXQY4eUxWFLLQ8Za5yLHJ7bRsKzlVjIEEvm4A9bzkg88hoIJH3rzQIVThawn7ddAidhRF0uhtLUv/ffsS//RxM6aXIKTuSd9YHD6rTjgEqOoefy3MwFFgPYj0ahla7l0xF/Manh4g64UVbWx45qo8Fs7RX+y6aCT1T88YSy0v7fztoXR7TR2JJ1RBk+Fni6Z7a3VrCy4GyIjw6wEsmwpQe0BPENXp7YDhJcKDxBvA5clpoPhOIXW3E4OJLdDCpI1MyRpkmARyV2K7Yh7o0gjNI3zgdrWzmQ3EkYhp2H7cRQG2GQ4qmpkmJs3/ICWClOentCMBlPeP11evyvD9Fbb7xB8+bMDldy3MHRxx5L64/dlpps5pfob+hnEHpBgsSBnnb8V+jN118LV3zntDNotY02TeZvMc2kXaPUfqhAqxp1TJtMPz3te+FEySHDhtPRp5xKnMoXdpAojB1o9P5UR9+gktwuiIjGP3gv/e6SiwI42nL7HemAY4+n7u09spUw6n328UfpsrNjXAAHQX7/3POpMWCo9+W22NU7QZsXoUF8lx5XAQhHn5jNFhCVKgVUvp7rZKNcBAjgYrP6QGbbknnjvz2pQfXpb9O1l19KTz75pD6EMzOGrbwKfexzh9Kam2xmSQLQDVWSqZvxT6Tn8F7qFKhQErCNrgmri6ECT11vqc8KiuxB6sarlNzGecotEmC5TPwTgYO5BDV7yNsY0ieJFTIeUZcEACU9BhXWQZV8sugIGInfe2tFKf1R+LJ8DkkVbOXAoPJZiCDd2gUQ/rda7V26nk9j/P6bHH8QV4hT+1hZ88619ALwKCRdFSxiso9WLn2xO+OqqTE9UV5SUpkLJ/GxwBE5V18MYM6aYOc6/F+mgwMvWcnnLxN/FCof/npKg/C0Rz4w6usrtcXqjmou87sLtyN3M1TIfdYAQvbzNunCiY1Qpplf3LvN+tboIK7DELjJsiNUGcg2AFOzMrOrKW70n3ofsArC8BgprCTpYCJdLaUMAcL/dh0YGKy51lp02Je/TEM+tDotbuQZ25kpNWVpPP/UU/Q/P/hOeNyYMWPozF9cRku4PGcW31H5nDoo87B4wXy65sLz6dFHxlGPnj3p4GOPo823/4gDKKIiDJjZKFvteHKa5c9T/v0iXXDGD2je3Lm02VZb0+ePP5m6t6dsAbQqNWPw5RXnnUnP/iPGSPy/z36Otv/MQRoYK7MCiSUVPinxjQJDiVVJDU17tepiAL0ZSa7V4sLuNype27c/eZc/zZFjEMpVUONMerdXpHOuZ7Vye40evO0muv2WW0I2Csa0b7bLnrTt3p+mISNHgTXGw7YIbnMXmbjNZHA5MPAW0QAHNEsIJyPxf2bmNLM80jAgTQSTGPibn6olJn4F8DY2b6HjPhWeJYDQjIJZVU4848SPq+KGhLVWGkxrHmjED6+sC5YjJFzmBjBXF0D430rWd+l6BginvcW1DyJVsQmeywdv6goAeQHZsisYd+CtkuEWrsx42eROeh7iEFgRbtmvTgcNr5NmUhaCpbgC4dkTfEGl/3RKOJNhh/4IEKq7mcfmNekP0zuDaVlebGo+fASDJwwUg92rMgwUrYeDX0z8iPi1GgpLmk36+cRGOBWSX2yt4HMr/h8fdq/SGmohmFlAdxNgfC46FBAARWwh9fElywBhvJSGVkiv6YdfgxiEFV2DlVZaKWQAbLTpprT2BhtTrVdv4iwOGZspo/g8FFT8/g+XX0x333Zr+O1LRxxJW++1D5wSmEy2LTqDiq7Z2Ul/+s2v6K5bbw5X7/P5Q2iP/T5DtXqWppvayk3uFpdW3Q3K4+V5U994lS74wXeJgzJXX3MtOvL7PwppfLB02mPOlmCAMOG1V0O2xJHf/A6NWXdDF5BYnSs/YDfObC5yZc8xCHjcM8cgZJtH8Bi34v+k5KHx8TlAOPw4C10F8FqOh/Fmm/71Js1749/0+EP30/333UcdHR3akRGrrEZj99qX1t96O2rv2TtzLXhAreZ8BdTCv4Yu0ZYgkNU58xKvuHlUi0TqVuh+iS78jtr4OYs9gMOVcksq6mEBu5ZFkcUMABtDCITOXWsgWV1np/+z1NwcDUi7FTkjvFTgTwd4QWd0AYQVlazv8nWsAM+b0Elcq4BfvEZ7DY4nFOYv4a9wHQZGwW5ICQrQoLTDpx1y1cT5WQkDLpx0zKg6rc3oRIkJvVZE8zq51HGDJvyHGQzSLvfvK6PbaL1eovjQpxYVcKPJQYONcHolvviOoLSH1SmUjXG79ajUYlwR+FWSsrOzghA5Wes8rl9OtvMoOESC60GM5XLTlhTh511yKJJrBCO6rede6fMTc9eB+mU1GlmUdLwa91X8CQEC1x7o37+/DoSF+KuvvhqyDPC1ymqr0VEnnESjV1k9uAU0a8DtgdC8iylfNTrpiwfSnFmzQpM/ufhS6jdypSRdPaGFTxnAdDaKJtGdN15HN19zdSjRvNu+n6Z9Dz40lCiWoeqMGX6JMl03cqmWRrpB98Hp+vnz59GMqVNpwr9foluuvpLmd3TQKqutTkf/8Czq1bcvynWVsf9+5l905XlnUse8ebT2h9ehg0/6FvUNgZv+1dpfnJQ1zifGJWRk510MO9PHj45ll/ElLfL8CYTW/sC0K7CgZshiuPFXl4T13WHX3Wm3wyGLoWR1k6DYROSSdifP6UZN6t1cRkvfeoWu/s2V9MwzzyjtdO/RgzbY9iO08+e/QH36D4hrlP7jOhjBwFThDeAMzVTIvfio5BMvhPEmG4GUNg6XpZNSgfDsCT4Xy68lwA+xmqolAawCTtDm3BhXqyJq8UFoYZNsHRNGBQuMUYCCYZHvQeaJgG4dj1MCIFVJYn0PzQL4iFPdVQehwpDvxxccevCbKZ30CETtswn95DFtIRefdQAAIABJREFUNERqu0jHcgQJ32MuZMVsxGlmTQqljB+ZV85C4MBIzpzgUw3RNS6PYPcE7+jvn9OK/FZs9oZ1j0GKXAHRsnN8CM2T8ymcRSEHTGHLfD9bEUazBkfOBGSkB0aBblVwhQgqvV/WrNGNMzrpr3NtbEO7E/Gx02MkmBLbAg0WXAIFiwuKEmeWxFRAV4pJGB9dGVnkW9ohoYvhR2f/mNbdIB73LPKDrR/Tpkyhu+78C917zz00Y8aM8NsGm25OR574DerTr69eLb5P2b6C+NZr5syaSd855vAQ2c+vU887PwU1mtYzBWaLkpt85ZcXxz9Jt1x3TahTsMsn9qF9D/kSdevOqsgmEqkMpj50c8nixbRwwXxaOH8+LV60iCa8/irNmjYtnAMx+c3XafrkSRViVIDQp6+bK3nOEw8/QFf99Nxw3yZjt6IDv3YydevB6X1gKcdJThI3N/GKIMYOmCpKQrlJxC4GsSBsv/PHaO9jTiwHnwlZWIImBGTYDlgwcR6DsFsqlISiItKJBDtm7i7w7wffd5I5XIplWGMR3X3T9XTPnXfS7NmzFShs/NFdaPcvHEE9evWJYijbvBgYTbwi8Qg6SQII3H4ZSi0nqKRuPinbngcHloC1jdNhbXThJIQl2TuyhsbXJauErSXK3vAtbCjU01J0GeEqmJXD05ChAzzSXFMcM3RSlM65HAQDj8pFWYv0uC6AsGL67F2/iheIYwI4gp4zGuS144AafWZoW4hJUIJVYaFRP8aNib4cgcCHiUubdMFEf6wyDo719ZdG1mnzPqk6YUYw/PG1RU36+aT/3M3AQ9l5YD1kTAjzGetF3/vMZU26YFIjHPxUenE/OV5iV8i4CPODcBvkTLWV+E2UCVEA8jHSv5vWCIc6JflGG/WJ889xD6C30gU+ItTvKlFpytphPoGxv1o61AabCVfraXoX2/4aVFLkIEU5rEkrwoUYihq1NZfRS//6J11y0YU0ZUo8XGjL7XagLx//9ZDfj44Emet8vvjznOnT6LtfOUrT3/6bTDF2+x3pwK9Y8KAGccpKQNYCH5D0zBOP0xsvv0RTJ70dzmJY0DFvhbpTAgg45gduuoFuvirWTdjyIzvR5796khYnMiDrH1Waq7wzFfpLyiMHCJ/gLIZ0cQ4okIqEJJSKNf4l0tX4u6oWBGm4mk1hmiNuxrMMicQMouDrtRoNbCOa+vy/6M9/uoGefOIJHe66W29Pex12NPXuPzDtchPwgECSEmA0jksgoGA3F6uGpv6Kdy6Ll6pkEuhR4bAqafcu61LiXYAUemMOUnGdy24EDyoQ+rRqq0QrKpAQdKSHlyWkWXHQkIr7okApHo94SRNTqkvGshXita6L/sszwGcvcKqj+L+5efa37zM4ph6m0gT21KzGgaLJ5fSL0xu5RHIrouJb+RCoIzmFMJ0SiQ8MJ5bViK6Z2kkPz62y4opMyYh2omNHthFbAXw4UiRf1s/3zm6GDAbsp99XxKyL40a3hXgN5ytMJkfJTQpqWYUuqAM4I+GtRQ26elqDJkMNBAYhnx/WRpv2xWLLy+fKCDgkzbLKzQb0ZTQ+QEsCusJ1IqgDE4PZKJ3jgC4GAwjxWomCjqbdOMtvPfcvOvP000JpXy51/KXjTqAtt9vR4gwqvmnY0TWbNGcGA4SjadGiaEH4b77GbrsdHXTcSdStRw8LVARQwKbqpUuW0N0330gP3XELLeyYT8uWtT6LYdSoUaHk8xprrEG9e/emq666iubOnasuhp59+7roP6Gzh2++gW5M1SG3/OjO9LmvnuTsyRCuUclQx7V3iqM0UQIQOAbhW7H2wfY770yhDoJLoXPsblkDbiMAQcWJVsZXXAyp1LJzJcW2nWKDAGXbOScY4lL9+KC4JvVfOJfuvv4auu2222JjtVoIXNzps4dSneNJ0KyWgZhIqXEg3gaASjW9Fwtd6nDgDy0yhLzkJVv8BOkkiZXCHAtPZcWKXICt/6CCRkCOq1OQrIJm4PCj0p65ecCxVy0UUQ7IhgGtCGm69QwLP8wKaM3QiAADBxiEpuTmLoDw3xRx/522xs1thmOXcePMufgMEviUQVaGuaLERc5zeiO/RwHCZxvwccqToPEN+9SIiw5xMKC8+BmfGxaPebZ9cBImicEmLW3SlVMb7nTIFZkBtoTsO6RO2/erEe9ERPqiiZYDIflQJgRKPAfb9KsHK8vCtMNnwPSF4SmQMx35GthNuUpNBFEQOuEY9wdcJnfSYj45s+EqQ3LPNuidSkJnyEyr5kmLED5eOr8gzw9QoZVQjeX1S7Bi6i3kYCMAirNWa2FBkHsziwff1NlJN/z6MvrzHbcHv/8mY7emL33tBOrNylImKFFXpY98muH0qXRqAAixwNE3vnUK8dHKdm+igJxAV4Aweg8cREPWWJtqtTbd1dgBPhSOVb7mlz+nF/45PrTGRykPGjQoxF0wGFh7nXVo5Q+tQkOGDqMRo0ZRvXs7cULQ4maTZs6YQWecfALNmjGjCBCQLhAgbPGRnYMFAc24YWjgbkAz8vJAt/tNwGqtSdNeecm5GKIFIfYoqWUF0eGzKgt5k/5qJmxM7WUXg8QgbL/r7hQLJcUGvAVBwCy0DRMiPTF6sMXkllhCcLXXGy75Od17112BroavvCrtf+IpNGTUmEq8iPTApJjFB/AzxMZmY/eMG69J4AA5WtNzUROmp0EQsBnpDDQ4Wk88V00prLoxxFop1VEVceauxkosjozeGMXJJhiCrjkPxfBBRQfIqlSAAfIetmsnSRt+ytNyuwDCCkiu9/gS1t03z2jQ3bMbQcDJiy0JrCB3H1iL6X2mW/Uai+yGjbnQVZPo0Y5mOItBPBjsT/zMsDZas2csnczZDUKHa/euBR8/V1bLaYw/c1wApwL+ccaKgwRua9dBDA4i0MlfYlLlEyL51EkpVsSX8imW6/euBeCAAGejPnX6wvA6aSiCMJHsusMOKbF7FszIrpwnOxp0zxx2ufjerNozlnHmEzRFqGC5eBG24iNBEBD5sJom6gEKimtTBuaEAMM/oD4UABUXw7qxUJIeGqXaJCmFWpMm/vsl+tnZZ9K0adOoN9dAOPkUWm/TTcXXUnE32PNqCSCYi+FXf7yFOC9erBtaxjaTVl5oVXdJgZ6I4npDOpd0n1MPL/vxmfTc+H9EBTR8OO222+607sab0NDRY6hHn77USbXAL0yXXFdLn9kk6pg1g8755gnhuGZxMfTsE0FRLlArAOG4aEEoKX/87p1+l4fpdQl5c5AixiBIFgNirKKrwWUqpfUFBDHupuvoz9deFdwFu31yP9rh84fBeKUXsRM4VyVFI79LnIo/eTHS6bK3X6Pf/s+P6e0JE0Klxb2PPoE23H6n2LoqHlOyuZujrOASTHDdFYsChGDIUQw6FhkXrko5lTNuTPDUR+XsNDe59RD6lO2eAn/ntNISHJQVi851skaIGAuskSw4kcfT/RhD7Oi5Ok+mKKr0XJJNQRd0uRjKC/V+fssZDb+bGssMY6IBK8qVe9RCVD0ry1xz59YD2240aXGzRpdO7qR/zjem4eBHPuyID4FitwP/kxfjgv2H1eljLeoUyE5kXifRrTM66e/zms7qgX3jnq7Ss0afGlynNXvVQm0BfalZK5Ioxx785G1/HgW7EjigkQXNH6f7+g0cG8BHQceKjBDMlyKkkPAtFCimevJ4+WwKiTmQPnFg4sHD2kKfvcaKEsCC6DIQ4BC+7dR8KplsgWLPVPiDcA/9CIJFhGupRErJgrABbDMkxxp2KTU+MKhJF519Bj3+aKyiuNX2O9IRX/+WWXJgaSTgMEaI12j+nFn0raO+rEGKP/3dH6hX7z5SP6mgREsmVr9NccF9VuLBScM7rv893XHt1WE+uHDR6WedTd2GjqJltXp4Zpy6fIdnTUybOIF+duq3aO7sWQEgHPXDs6h3n76Ot2TYCBA23nZ7OvC4r1O3bt19nrnrp6m2im/fV9KNCgcTaypBitHF4C1OoMSDMsA4FngAuCX4mj/94qf05AP3hGfue/AXaYtP7O/OUQhFgBz9Ga05n0pSk+oqUIVn8ofnv50adMP5Z9E//z4u3LHtnvvQzl+IB08llZpcAvEb4UvhASiVkCbUa8AYf5B4JuOVMCeFAGGdx0S/KA+tX7gzz8slxq6YxLQ+VQAhBo6nH53SLYAkmIQyAE0CHcs0Fy/MQJ66DzKwbdk/YJUJG6hMHsPnLoCAyuoD9J7LC/9+WlToeUlkNiCwu4EDGEd1r1F78sHnkdTKNDWiNxbF9D3cKbNF4uDhfBBRk6YuqdHFkzuJqyzKa2C3Gh0/mgGEMUrJesz944JG4zua4bRFBjgMNVhn8xkGDGY26FOjfmKNgHMGojKM+f/cDgdp4imObGngYEYeL7+eXtAMNRzkREe2/n9icAQyrC5c5kLYvVhJVI5o4KOiuUw0xzgwGMEXj437ywBs3V6pcKAz9QonZnULRASGami23UFgkIMEPNzH+iACEAWe7LjRZBSfkccgrL7ehqlKndqbozrJqhO+9cKzdPp3vx2OI+bXD356Ia286upZsZwo8SximsKpjF8/7GCaNTNmQ5x8+lm05gYbgRsqHTIFEsd2nz7axO22MqKK90RhPHvmdDr1yC9So7OT+JjlH555Fg1YY51gKdDVK1gdgmAPF9TozRefpUvOOi2kLgaAcNpZ1Ku3ZTEgDTwz7iH69f+cE8DIOhtvSged8E3q3Teebqkvm14FDhWFocBF/MdV1yDfMz2zIHwczmKoKs3Eh6Ag7bkCOPnBDbrhwp/QPx9+INywzyFfoi0+8WkYAChadY9h/QmbUByXU3io3VLLz999K11/+cXh01Yf/RjtehTHU1gMjG9L4AlkIWXQIQ4TRljI6TZ+N8gRAAhutwslkGPbGeEBwMfFxkgrdx+6mkJ70UViFRiFjgXWxbHkc4qkFV2kqKHhhiII8ncj7NMHYYqliScfe5KayY0pXQDBz+8H6hMrMzZ/PzCneqwyq8th3WvhKGg+zGm1HhEoVBR4EqR8hDT72ZckIwGDjKNHthHHIPCLlTOXNOZdNQKS7frzUdMxEBBoq0jkTNhc8IlN9+ytYLdI73otAIWcMeLnxNQJIHB9Bo6/wB09n7nAIIbTIfnq+eFApYYDMgxADhnOmR5QsU28uDU2O9dCWennFjRp/Pwmvb24au1goLFmzxrtPageUhpjeIRvT82lLugRxWZ1FxtHXvheK8NF7rWdZb49xZoERp781OPzLIZ1N0imR9h9hXnGBWhSrdGgi878If3jH/8IDW6w2eb0lVO+S926JyQIZ3i63WyT6Lc/PZcefjApns8cQB//3CGJ6MBSUQg8E6UfRqOGngR+wmSn3XFmov3X38fRZeedFVwL662/Ph13xjmOPhEkFNPMakRPPHAv/f6Si0JapFgQxMWQM/ybLzxLV5x3Fs2eNYuGjxpFXzj5uzRylVWdVM/BwDt9FtpH3pTAwFYAoTguMSdn6YPxgCPb0fPpk9dfcC49/3i0EnGg5bo77KxDFSgRLWEQ3JaUOUoRWbcK/2oknunwieP/Tr/68enhOWutux4d8INz9UefuSBWH8GBueIUsJJbSMxxbnNeBc5FUOPRTWUjnv0Mc4V0DfwHJ0yHuQkPhRUGZZ7ThwjD3OJbuQ7dBwXwUmrXjSO3amRTVcpgyNe5CyB8oCCB7wwvNu+Un+ho0rXTLEYAr+I1Z+W9Tq9aOLdhvd41Yq9wWOgkM5Y1iC6f0kn/6DCSYh/7t1ZqIz6yRlAnWy1+PrGTJkAkPwcHHjqcgURkAAdAEI2CGow1ARLTC0qvoP/Ux9RXBkNXTO2kl7JTJg8bYadZRvTepDtnN+m2WQ3dXPAJlEeNbKOVemRV+JrNcKbCI/M41oCtB95lg/O4Q/8a7TaoTv0wIBE4MPI/bFWDbMXPadeSGs0hgRda6DIAAeQQmJg7q4pXoNXxUEnxu+k0R93tpGwTsT+IUAp/a0TTX/s3feP4r4WPffr1o6+eciqtud76IAGhAAvgjWfHPUg/PfeccB0HCl5w7R/1qGbpV4mlbGgWPe78vyKyM1fB3/5yG1172cVhV7XTrrvTp49OwXayQ0wNS/tBQMKOqbGsk27+7a/ogdtixUYBCL36sFXA1Jbou47pU0OhpFdefjmYxD//ta/T5jt8NLkxgK8AyOSgPNIpKL9C2XJhiwAQIIuBCyUJnVuckd+qtsqkkEd2zJpJf/jp2fTq88+GDI7PnvhtWnWjTXywo2k1mAUBbOhLdxSkS2upueaFe+6+v9CNl/w8XLPLHnvR1oceo0oT1yc2EsFJjGswAgtjSJMj8ssH/pqjP1eQmo0B1R3iM6QbBWUfprayrfIAItGaPs9pYV8uOW/KsXTGGLlMyCt3lfotpLU8HhNe1/YBGEicmmBDZTsPb7T5LoBQmukP2He80Gy6/8usJj09v0Hs9y+9OOiQYxQ4d5/PcOAAuz5ttWBWP2fCsnA6ovDKvoProY6AvITmH+9o0pVTfBYFR/N/aUQb9Y5hAJXSr8KYsulW6SioF3SdBlKGg1DMh39/OmESCzRu1jcGIHK6ofJkk4LS/9lEA0xs+ub4ho8MqBMfoTB7WZPeWkz0zPwGvbwoWjVazdeYHhSA1Ua9szRSZz0QIRZ7wcrK8I7sfsVO4HfvNuO2CQ33B1NkYnfQanmEeWRyL8DkGm9BOJvYxWCRTMkyURFKsa1lSxbTFeefS39/5BGq1eu0yyf2pv0OPiz525PiTJOuQZ7c54Xz6IQvf5EWLFgQWj72lO/RRmO3hhgGl/hlO9Sc0EDBxsck4JCmT+jkb3++ja69PAKEj+62O+13lACE6P5QCtKgPYj+r1EonHT52afThNdeCT0wgFB1MYR+dC6jP158Af31vnvD9RuO3YYOOvGbYV5y4ZwrKBwiEmz0n0dwK2snK+oBwseIXQyJynwsghxUJNYXIR2JnE1gle+d8sYrdO15Z9KMKZNp9JiV6ICTvk2DVloldq/gK49fmypTpQ0aEa0NEpOSfFApXqZBD1z9K/rrbTeFx+z2qf1p7AGHKviwNbZZQp5WGlfrCGg1F/cT+SF2zVZAqE45RUAGsI/54G17rzguO48C3QqR5xMwCY+tZjRgdKJX/GXZo3ztXCje/1BR8KkpxCc4h5XKpWgxkHuxcwWXRd7bLoBQXr8PzLeIQDm97/kFjVB/gHfaku6Xd5bVPtcwGNG9FoIC2a1w3xzLiuAdNx8EtWqy/SPBsVueiwWNm2s1CNgdsU9+DDQAf59HDVQse7Ry7I+yN2cl/HKyL940ojvR0aO60TCuxSA6N6nKpY1obcCAy9V71mjLvjV6cSERp2DOXFqN3ZB54vkZ2V6jLfvVaGMGUt0h1cokht9xJcAQ5QTsPQMTYqqW50oUYZh6YsGJFnbmfJ1oQFBZKGAktooWBK6DEACCvlIMgQR34S6Wm2k06LH776bfXHpJSFscOmIEHf+902nkmDFpXSyY0MIqokK+7qKf0j133x2etP6mm9OhXzuJ+g+IJXa92BZhnmYh/EmHZcmF6lFBaWUwdNyfb6VrL48lgzmg8uATvqn0EJoTcKWaD4AYEf3lut/R3X+8LhxNzS8GCEdyqWXJYsgCCfnJU198hs76zjfD9d26daNPfvlo2mbXPSo+W9stikoHKKfgSskoAQTJ34+dn/6qT3MMMQhyb2E+dczqnhP7dlKatSb945676NbLLgxuGc70YAtCrWcfDQLhNiIASxQH1j2Fd5qrDwwhwX6OR2JjHXNm0w3nn0lvvfBcmLNDTvgmjd58myyl0jYXFqZodnTvCovzo4rUgQEDlKK3KwHaidbin9SO0J8DQ0CIrgS1QRADHbaWanWA/QDq3jIv+PgDvUatrIl/MAVRucpbcnQJCvE3LugQaahqKFmOqyU+oQsggEj9IL1FHlTCS8KMwwiens+m9ga9uMBj3dIYcrpgXzub5PuzLyLmurpgPq5eeOEkPvLYWuN4ghNHt9Gq6RC8oBRRF8K5SE5HVSzlMZBQYqPYYsBBhxwfIC+2GOw7uEY7DeQsa8k9ECUc4xvumtWgP89qaLBiUj0Vgs/ngyvA7TAgHhLFY/Iv78tNXnFzmJaEQeUcCBMN4rrxShMDCC1QSs3tweRqO4mygIwdyWMQVl+XsxhwJmCNnDKIrXbMnE7nfO87ITWNX/sd/EXa89P7q851Ag8E0VvPP0Pn/+h0PbTns4cfRR/da2+wdOR2Jr/jM8VO9OBf7qDV1vowrbz6Gm4pRFG9/MSj9POzzgjKrk/fvvTDS38TTn/0c2omfQSrLz37NP3i+6e4oK8cIDhlnJiOLXHXnPcjGjcuRuS39+hJR/3gLPrQWmuBtm8h7HOKEkbOMJL4LLgOwk+Si2HNddalL51+HhwMlcAjAgbXDgYTWnjar7//TXrt+WdDTz5+wOdpm/0OjBkbqEzUbx5/iArW+BKVczR+WC4hxqXI+6fuu5PuvOLiUMxq9TXWoE8efwr1GjYy7vbVtGjWNjOnG/q3tRPKs5SPGDrl7QQl3nCui2S5ieItk5MSAwTzGanWhBq6oHLQFruDeVHLpweT4QaQw8gLa5L2HK7BHHwoMEr05oILYUOlhlBoIPPOVXlJ2gynaHZVUsxY+oPz0QEDiCkQYl3QScGEzrEFnEUwYzm7ZhwVC8Ch3WuhkiEXORnZXqeh3eIR073aatRea9Lf5jYrAYvsuuDaAFzPQFVpitx1AWLA31GwJIrVzUIUSJ3NGj08pxEqJmJgJAcmHjAsnirJAY+cFTG7s0nTllKodMgAZvqy1q4DHCs/mbMn+MyGDXpzeiiFgEfgIW9cRTTvfMe2o4g62BzdNlwEGPit9Cj9DvMTf4kaQBUnOHGMr/NgxaazIHw3lFreQF0Mqi5ga2UCLwopxke3X3sV3fD734deDBw8mL53/oXUf8BAqDJnPZSJaixdQrdefQXdceutQXGwAv3MYYfT5tttbztzcxXrzlVmgQ+QeuOVl+mB22+lp/4+jo448Ru0wdbboYFF40sWz5pBPzj+WJo3L5ZS3m7XPWifQw4LNRzCzImAh5rdnPHw9GOP0nWX/JwWzZ9Pm262OT3//HN6WJOzIGQOHGmv16K5dN73vhMOvOLX6FVXp32+eDitvu76VK9z5I53/Ojn9Gb+3Ln00j/H07pbjKUevXqZVSAtclwfou7NZXTqoZ8LLpv2nj3pq+dcEAoMCVmEy1VnAZ3g4BPtLFrQQfffcB2Nu+3GcDsf6f2N835GNHhUZtqIjUoBNf704qN/pb/f/Wfaeq9P0sprr0O9QuYGKmTRGnIoUlTeCzs66LlH/0oPXPsbWjBvbojb+NSBB9OGe+1Hy9q6QRICqjgEjAImIWAyV1mJhvOtUK40dc5KO2U9GKnknshkPrhh5BwKdMK4qzFgFDwE2IUcaLuYYZtWbTY7Fwo2PWmuLHY663gim8LElOYK4yXsd9zWdNVBKE7wB+nLXBAhkhUlx0qUj4l+ZVGT/jW/GU6EnJ3iDd5pLKwkeMcuGQdcVbFvNyI+ZPHZhU1iECIvvmavQZxyWKM24kqIUe7oX7X4+iOKg7OiWSP+ywVtOEWN/7Fr4drpvvARt8duEVbqPAYe28JGdKcwiJD0xncaFwdusouFgzfX6R2LS3HAZenl5hhQWUTldlCN2jKcUPArpLsacEkYAMhgvAgHEQGwdYitoq+zKth8kOKPaY1gQYBdjaZ4CrixHZy8W9Yxj0444jCNKdj9k/vR/od+ybbkaOY1XwMtnTuTzvvh9+i1pEC7t7fTxltuTTt9Yh9aY511AXTZGJYt7aSXn3uaxt17F736wvM0c9rUMAPHfvPbtN5W28V7MuHOtPXUnbfSpRfH9DlWQNvuugft8ZnP0cBBQ8I9iLemTZ5Mf73rdnry4QdpzswZtOqqq9KhRx1LPzv3bK2kmAMEpQmIi2C+ePufj9EVv7hQD7kaNHwEcW2EbXbdi/g990Ve0gc+OOrFp56g8Q/dT688+y866dwLaMDI0VADwCgw9L3RoD/95Ax6/LFHqVar0+Y770p7Hfwl6tm7twLrV559mhbO76B1NhsbgN3ihQupZ+++kfHCLq9G0ydPpIduup6eeuCeYG3h15HHHEur7LRXAt8apJEsRJBOV6vRG4/9LRxzzcBgxIdWpTU23YLW2nRLGjp6Ja2WGbFNfOaiBfPplX+Np6cfvp9ee3o8LVsSI5u322472uvwr9KCnv2SvvbAwLkNUpCi2zEH3krB0InehKcqgb8CHNTQALyYvY2zXsgmUh70ksECHu2CXMmWPjvyzawDiCpzl4jGZmUCqiL/S/21pTU3UupcS6DinuMtp7qnYyDSZUF4J1Xz/v7uCFWoJTCq+eY1uD59N21JkzhlkPP92bKAhz/9X0fDMomtDT3rbGmIwIL/cfB/txA0FmlUCJOBQCcDg2ZU8NwXjolg18KsZf/lvhHRiHYGBUQb9KkHd0h3qGjoxYO5LAwTYER1nGTLp45AwaINZIuMSsIWSDMcpLgLnsKXHiiuFpC7oHCyxRZFmL7mfp3wxYNo9qyZ4Z5gQQiVFBMYkG6p1q3ugaLAJ3rgxt/T1VddFdoZOnwEnXTG2TRk+HBVBoX08zCa/p0L6TvfOJlee+01Z8Yfs+rqtN4mm9HAIUNpwKBBNGf2LHrzlZfDAUu8s5YXK9j11luPvnTiydRjMD8Pq+6Z4u/dVqPLz/kRPTJunD6HYwhYWbNrgtMzWYG+9sLz9NwTj9PSJYuDQh44cCCd/ZPzaUaj7iopCkBAAR+mVdclzguDzEn/+geddfppGsMgfV99/Q1pg622oz79+ofCUYsXLaQJr7xMzz3+iCpLvvY7F15K/UYki4BYirKYnNceuZ+uvPCCcKolv/go6tU22DiMa8KnBUS+AAAgAElEQVTLL9DMyZNo7M670ce/dDR1zJlDv/nRd6l7rz40aPhI6tbenWZPm0qvP/svN6877LADffKrJ9O8oInEggdpu5oYEQnqzcf+Rr8+78yieFh77LYBOHArfCjW7CmTaNqbr7s15/neZttt6cvf+A69slD2+gjd5Ghxy3BqKBAwXooBklGZBxmX5szjxtjnyGNiNPOFwcIV6SZ1iUgaZwZC1a0ALOfjqrzkqAZle5CKMlt4zKwGceKlC2Luz7MKEmsW10NmVWcXgG1oR8BBljGdAxps3PGCMANno3UBhP+rynz37i8zR4Z0kZJMVwWKndUZ/fuYOsgWAlbm8zvLPrN3bzT/3ZYZlDBAwYwOFugHDa/Thr3zMyQyxS3CB3ce6sRL/VThEj/bEbAoXeR9JkDcRlj26rm51ufJxaAns8vneePm1DFWrlgQgotB7BVRYBr4UbWsG5lIOk3qmDaFzvzOt2jq1KmhGBFbED6yx15Ur2OWSxqH+qJTAaZ5s+i2G/5A9993n8YkvNNK8wmS66yzDm2z/Q603cd2pYVt7WoZKgkx/q45ewbdfM1v6eGHHlJF2uo5bFrfaqut6VOfO5BqQ0YES8K5UGqZAUKpDoIL7kpLyzQ1f8Jr9Kdrf0fjx49f4ZMs+/btSx/+8Idpv+NOprbesptOtOQ63qTawg564Lqr6b6772o5tm122Z32OuyoABCu+tGpNHHCW8Xh8/ptv8OOtOsBB9LSgcOyGhhGmKhkWJEunfI23XfNFQHsMR2IFeKd1pJ/Hz16NG259Ta0/T770eye/c1dBsbxSGvGLzoTqNwEF2AGgnbZeEw5UK+LoCOOCV1/Rk1RAsQ7c2DYSlEqL4GijdkcFu8h94qEWV7buKnDTrRS3JXvC5YCFf+pAy7mIJNh+TjdZgfBkTTadRbDipD/+3NNiWgUdWKolOx6Em+gvZULAl082Zvwdx9YDymQE5Y0aeKSZvDpc+yCmPCXhzLfn5lILpAaUb9uNeLsBs5AGNMe2f2aaZ2azcHZFp/kg6D6czln89nHMVVHFpE+brVB4Zc4XloxCVVJW/OKHK0UslBJ0WpwqORhRxASc8DLHk+xZoggHH/fXcRFcfi13thtqd+QaHL3QzWXg+ykbD7isxocE/D0k+FAJH7xYTsrrbs+UQ2iOOX0OxDC3A5fUV+2ONRV+Mdjj4XAvokTJxZJZc011wwWg00324xGrLoGdR8wiJZKClm6Q/yiuQgOp20v7KDJLz1Hd915Z1DWixcvds8ZMGAAbbPNNrTt9jvQ0NXXos6efeL5DIsX0uuP/ZWWLlpEvfv1pzGbb0u1lLaoAj7bVYKMDIC6bWEHTXnpWXr6n/+kRx99lCZPnlwcI58guckmm9CGm2xKg1ZZgxb14HMi/CunRH50z8XzaeK/nqB77rmbnnnmGQUKrHzZGvDhLbehHiuvSfNmz6BrzvoBvfn6a67Rnj170lZbbUU77PgRGvzhDWhhO489PQlIvJqlEIUJJ3H27lxES6dNoqlvvE7PPvsMPf/88/TWW2+1BAtjx46lzTffnFbl7Jlho2l+rXsCepF5KjEDosRyoJARbSslaztz0XzZM9RQUl1M87fbbz4hF8ADKEtTwHhfFWjpYsAYpYKpt0YIodvyhfFCl1uNX+V/1r8K2AgXpsBzJOQ0zy5bJNVz0YRhWYvA710uhvdL563wcyu+MFAAxU2vEijXAWjSr6Z0ah0ArrTIxyyvl6onivzgcwkmL2nQxCW1UGOAqw6y/38B+/47o2uAQxrYXZC/UL2+06AKMljUTXJRxPLMXG+BCxYN6kY0PARS1mhkd/5cC2Whg/BpxtgErqr4ZiqewO1zfMSnhrZRdyhq5NPRTBPFevSRO9UoisfKhrlOzwsX+qhxF1Vnxn03DZHJ0u6pcuZ0MotKl9Kz42N8/hIKM3kfz+yKs7q0UaNGOtFSl6l4Ml01loEfzwktfDwvt8XBo5xK6gpDgRTi50dTsES9xydyjEffthrNnTWT5sye7eZh9OgxVGvvEQJO54WCVX43mSe0VfBZ2mlyF/kMkfZlS2ni2xO0V231NhoxejQtrHULlrOcVuVwMG53EVvPRJmgbIaHCnbUIMgUqzOgjYhLkM+dMZ3mzjN3Sb1WpyFDh1Jb776hIBfzDwOD8Bjd1EoxLZPwyFI9as0QMMzxN8JXTNrTlzRpdicFhd+9TjS6uZjmTJviFPfIMSvR/Hp3mrSEr1NHU1oDC5qR0tnYg7ie9mIrI9dQ4VTp+tIlNGni224t2QI0eswYmrWsTlOWNmhuqs6qbQq9qy4E65m4kWT9k41dLWhIZ5jYL9e5IJVU60MDVH3tDzXfq/XChKfxSOxkVNIeBEQWhCJV4AKL9OHrKcgkeZmdAQuwjlTkYYu6BLY2CcTgYikoStJIsJPHHDpGxQ4STqJrlO6XtlO7XS6Gd9Jq7/HvBR1c7kELc5PYj5lI753ToOunWyogZy58Y0ydBnHefzHXNj6K4wVYkLMCjkGCFNIQuRQzZhuwsOYyx3xgEguyEHyIerQZ46g4NpB3Yd1rNXp6QaNSuIjTLncdyEGEtRDPwAKKQQJfry8APrpFbhL9fnojZFzIiwMSubhSn6DscqQPjUCBGYfYg94z/6ZURLLUoLJwFyHjmd5rHDwnIsEOE04s+FLup9/ZiADLo7wNvESPifgWsuwKBTZ+KhXcJCEoEAk3nZbGCoLXDRB2XUClPPUJx8XxFU5YzOm8RPfhO0QKKYBNfLjd5KTpdHM4xTEzWbfiJxHiJUWRC+5SGxFQWf+4PeYNpX9Z2VIabPYAa1/SGlPQmMavJAgLIIl5A7gj8KkbSypfbuEH1dB33OHHe3PqZUtck9qFl9ID+A8XPJUdsj04U4YOePiFtLVNAc2CpIRgiu6AKncZ+spthHF2SkngZdrz4MJnEpTbqiju8EDooypvmBc4kVHIGwW8o/nMGJj/tjw3RUt+aqHPtO30u3k8u9Ic32MI8M6Py0CcKRHUb7KQhR2QLPbV0zrpwTlGKuxa4MOX0kYRect1qkRcHFjIBZQenWcFlJjsWSEfOKxOvVKjuuMC5c7XsSwNqZOzOvU8CH7oyO5Eh41sCy6DnFHUOK4TYlEZohD/OrdJN8wwEMRpm1zjgUGQMBAKYEENy2OgKPhAIUtRGSgek5+viMlBaB73QtvGGKspol9W3sssJGWRFH9kWBFUsvhY5cdbIyLRmLVAxHMulOL3YKrVnZoXdu8kcHJFK0FXsmNxuh53OZVdE4IzoIgsItz1Bz7g9y37DIqulWnXViELTFW+gxkt+tGhBQAJQsGoLpMttxovEJYcrQ6RBmL3Ywv6XhGsT180nZUCQF00XCFQF3yUtqagZlXX5f3wlJTzg1jfNJYnrHv1/GJPpygJLemysvbKVgmwYhyOs40IoAWF7RYCAC/QaFViIxDyoKgCLrE+TE4nBVUgY9Nu5TIfN4YiEt4BFAvNFYW8bC6UUOJVXQDhnfX0B+KKkpBTxZcdHatWO3YH1Ih+/nZnyGQQOuJSxAcOj0fkVqzdXharAFKC5xLHy5p0+WQz6Uu7Ow+s0z6D69Re9+WTUYg9t6BBV0z1h06x2Xe/IXXapn86iVFssaicRRh6eazn5v57YYMum9wIFg9+sZmbq0TyCZSh70EGmQnVLCfVjAUT6WBWTG4FFcTSaDKxW/lcn/Fg0wkpRKERAR9euUvsgold3LWgQJP39lcjv8McWfoayHINXrR+pfYlqgmAiMjb1N3qHKb4CZStmpqGJmIzu8THOjCQhLEaTrxotfgQU4cquZLSDFACbqsI15IAhk6n6YJaCngGAa6gfy9Fvhy4wO7jOMNkRtrgtwyvo2Egj5Gx/XuFRhHQZGNCsKDWlmBJ8cXPshE4h5GyGJ6JoPwmdCI7EZhz4AXv44+mHJU8iaB8TRSTbLhumRFDulZdSVCK9hzTniW5mWcrSMChmmIQHJsbX61YeGYDtu8wRkZfSvjuVEuMCyoMDVGSCSWrKFugB9hOFPWW59XMViSDCXSbrkz03OVi+EDAgNgJJLociWI3lX6ESRRBWyNLmkQ/eqsznOHALzbx7z+kTrsM9OcvlIYP9OL6xC4ETp+8alqnq4/Qp43ok4PrtP0AOPIxKITIsFzv4KppDXqND0pIL+4yBxPuO6QeTnx0DJ0GqN9hh3CemkThgKlJfIy1jfOQ4XXahP0eKDEzW7WrDJeEtwpbLeyEQjZ1QrBDZfePTCfbj4jgvADxSi2uu68XKQKvaB4VrQatqjKFDANj9LgGtovwolMDlrDMrLZjWj0XuEUB7AQbApC4FHoP7M48nVcD20A+mqDWuI6yEldeygRteH74DmJJMkYrAQ7HI5klQ5Ur0JrNjRHuO86XtmuddlkVqRPYjl9T1cKuvHG+e1Qaz61ROkjdfjuLRtxRGmNWAhDB4aF7/YxWlSbdXHlp4yVEfJ66z8TtAAhWHwHuJX8mQQKiRWDloHDF7Vpas1xOu88gt8JTYWguUBH6UnYnugtUhjgdkHVO6DbXG072qJZJ8hZ/TDzhZGBXHYQPEDrIAEIulCJvpBUF/QMWQYuhSymOZ7zVSXM5YomPXq4RHT6yjTZOpzK2Iv4SA6CQ5uYemtOgG2fY2Q78OwdWse9/fS7HCITIByex5eBlzY2Ov3IBoy+OaKN+bbDDBiGVnxanO+wM5XIQ5UWTOukNOOVp78F12nUgW0q88EETfcWNkA089EpdCvHOELcHys0sJDmbA2KTgMPQflKa/B62oUVBrybkqrqJ0yvm2WQxyE5qURdJWgufYgZKyJmU01Vgrra4CKNIkysmjkz5wmFWLoq2ClGqwiv3I1f0edUS4tajej/SrvYWiD+8FRAnAj79nvOI/+y1gQUzgnFdLQl+viV6oNo+XFeaHJARcb7NCpZTugbXpvGpbncPxdBQA08GGrO4BgSlgZTzlEJTuPYYjYaPgEMBdno2VCSNv5VVWlxHoXVwf2n8ZXp2gT8xEiG0XgJ5IF71bBXtT77VaGEBAPO/GEGFL5T2ckCaqaBWcjkHGxm7Ry52bSe5aiSl+gFVSTKQgsiON8geocuC8MHCCH63mffNwL3qiGDpBp+RLPirC5v0PxM7aXEyvfMBTV8Z1UaryJHIrm0UYMuZEJWJTbp6apPGzWu4aHEuwXzEyDZanUvl12q0oLNJ101rEJ8QiS/OSjhiZD1UN8zVjrN4o0RPAgnNryxwODbiyqnmSuH2+HTG/YfwDaWdMwgZt+vJIL8o6BbSBNWdirTwxsakJlUx96qtQIR79MNGUzloKajxnmcvWGBYElLiUnASyLIgzHProyaqgCHFQOBgQODEHYrsxuQHVAiIWqFuhIaCONOLcw0sLw4A1QUaNvj7qlD01FSiZKHE+DdJdHVZiEJMQvKdhLez4IFVIt1nVG9CV8eaTijM3RW5V8alvjrJninvsBRxtcP/CkbR+OwzWCo0IOcTpKmJf1DrmBIWgIIWKFHicLt2UudbrXNCTgIUzMqkh8q7QGzT/EKLMjcCc+IzvAYu4SyHQSTwVQFX0pUtNDVmKDiwIcSY1R7xO/t0DoPwfCb9MHBYRFOlr9ivLMGiFb27OXD3m3TQzQuGhQQw1RWk+IGCCCWC1g6qgkbhJpISqqQR0fj5Tbp0cmdIeeIXlx0+dnQ9pAuaWM/Vc2sBK0g4bAKaRFOXxjLJeMgSt7t2OkdhWPca3TGzQffOblDycoTGGUTsP7ROm/XlfiBA8KZ4w+gmbVUhiATiAi8Nouumd9Jj88xesGmfGh06okVdZZgu3DmiaVl2HLbTQxiOSgQFUu4mgR1SBtM1dSpNpqV4wcAKJ9nlPlTfrAmf6j46N90nRZ9oA0cX5xjTt6oCN2cYD2JAO7rdXPo+LXncESHAqLKhZlQkkGHgsEq3KPcq7/3yOUubf6q3ZpV0RPE5wpfyo8dCjn3znrtnIH9DDEG26QxNVF0H+HABT0ktFzKW/DighJBEp+kywpWudHdcu6qVDqnP84TObpYGmXOUD8Q0w6n3USUQKixTscAKmG0t0+IvaJVIMkitEul37wCN485pqvKdz4pAOnsnuhJ3nMvyrLJHmv/SD0DH0E+0QsgYuMCUWEysX3ZTF0BoMfHv59fLAwnht1wgSWeBsB+e26Crp9kOf+UeNTp6ZD0c0hQ3gz6gUPYZwG8qACKrWVaAmAk5voELMYn/n29gB8MGfWrEqYt3zGq4Ms8SB7Fd/3o4/0F2PPlcewaK2zTMKjAzS5OWNWt088wGPTjHsisYpBwzik+LqLKl7nhSpoIZKdJTNe9ZdjQmCL1pOC6C/O/7DCbIpAhjzYV0rryuF55ZkYS5U5umGiygCr4LdRNsF2BKF3tTBQd5fEKMlHe4QH0pTqgkwc4thjK54j4Jk2BWBd1zOKtDlaNyQRmsKVAON/wObetn8UUD3aMMd8I7NyfnEd+p20UljMI1634+L2pth+v8isonoMrEzCXeis0gYDEO1XlDQKFzle6Ei2yeTWGb+swyGdIkR3dA4r1Ak2iNEzBfBVRuHgOPRSUr2szmRJQvShzoVbZusvbWL7FmJKgEGTuyBDjuEDSpJCrINQc56c4ssya2Y3wU+RjUqRc0SgHmdopflYFelS9kroJLE70p0K8cIOIs4viTmPVxDGI4A6Op40XoaBdAaLE+7/fXTgikzsh3zv+E8iYJDObru2bHGghyz2o9a3TkyDoNYc0s/GGkDIFN+hTP1EJpmv8SqYsPiPrVlEYIFlzeix/7sZTtYNeJBMZnSjZARdKmsfjTITubTbpjVqzRkLwptFqPGh2n6Zzop4XUQqcRQfjJfAbZKNXIYuQ5+mZxrLaLkilDcz5GKXolEXVfNYgwV5y6o1KFBb4m7RdkR5gdO9v72PPjeKLQNJBUFWHesmImZxGaHn6kXRMWnKkmayRpGYUs6GDXV7UWAK3GpcEnpvfQ7Xzu3GdnskYp6dPXc2Gb77zC7wgecnClsFHoAVNaY+vxdlFQmbsAYKdWuAO4UI0RABqSrB1R7pARBEcr6lzbMCCrIjPVeMUa4wRsLUwdxduyEt86xsRDWdaKzEyEz1XrXB65olaloDgToNBFFoAR/0p7NhwJGkZ+NtmDzpjcCsdtIK/knsdID9kIkPgKoKPovUQAK7iqKhAihsjY1UvTxOuyJnA2ZyhwljJrVCKodUjFfuS2LhfD+w0F/POLtAD6s7RzEW7He/88u0E3TheVSbRGAghSJKkEZ72ars5LLmxl1/RoR5NunN5JXJGx9GLLwVb9avSpIbGAkbWTgZFsx+SC+iK1WkRZEiYMge6cxf8MIHwoAQQX4lAwC8bWzMQWma6w04/smP43BCFCvmpmTZYCx+BprAnd2b0gYCuThwIv9cFPAcgxyX8vrZtunfw4kuTU9ciITz6WaDJ8JxJTbKJRf8eZSgJTs0WgkZJgw17b/fAt+vuxrXRJyz7mDbv+5Yq56pzJrVyluVqRZ3vegTK4Gf2VLBEIWIQi4nf57iAugI+P8Vok9gO3vGCBAmBpVrr4JLzP07v8Xt2pRIAttJAscgr4qmDUxmk35R5wD45sVhUMtFpvZTOcwfhliYxXZE3DvYkf4wSVebBVW24GXDyL+UtK9yI95O+V9awJlV4VyzOA76rUSCzcBRBKU/MefQdmNFM7IPEynoM0ZaFH7ajQqfil/zwzZhrISwACl4mtCGM1f6E3OUpSdEkK6szBBcc5PNrRoGumWcEifAbHBHxmWFuIPxDje1U8JPyeMYoZMcE8r0UcaqGc7V2zGvSXdwAIAgZM0IHJVjRSmuBSOpYZVVXSKOPFbyyiG4W8JRv4I7DR6mD7HfTpJuGVBE+4JvwnsQ0iAQxEWLBjbtPwfmHN4EgCLm4ykyiSP6GMcvzWCylcOfPfOjkprpeEZpWGMvN+Sbjp7PoGHb17oWyUlgOLiqtBLhXB6IcS6T1jfW0TFEn5GqSwKuPGe9Kg5A8MRCL8rQ/SXinsLikjbQ7WzgjFuFq/SzQFYNdoQbbI6LJK4wArV/gmkDrSnShKsWwlkAIThcGMXq0bFbh5zV1DGisAi5bcCgKJErRPM22nr7rAzzQkmXoZR8Tt1nZFMRcUONJ1rjFE8lbkOlyoz6iMFdapEhOSP0koy2hOxhb5FyzG4RIzo/lMJ5Rw5nbqsiC8R1ig+BgvLyrCydlfPRBXWSMCRdPvkgnv7tkN+kPBxTDYAQQfeeBN6FXCS/oJY8vCe84keLwjxjyAa06HvHnfWqjB0L+bCDsfz+BUbqaslWwVAempwGF6GCAwGEIXw6o9a3TcqLZQ+8Gr86r0r+xm1e4HD6wEDMIOpyL0ky9f5Z64OBKzJu6NQsv7mGV2THCkwEMchBsTCsu0o5T+iy/fDRnM86CAxVQrOixhkqQtCzsuUT2hDVMUqmHFSpKhwEzn+02qgBVRQErvEpVvJtXYPwyk9OuaP8cBEdCl4S4/hS3oxZS1oygowIXfCx8ZZDCzhZrSRVEBblABIAAmNargQkkS6E9iacQlBib9MDitxJg/CDMakkLACqL6bEuTqjqEDO5bESQBwrZGcYduLiW/Wp5IIvunvoF2dZAXUiNL7r1IxxL/EBc5uEWyeY1FxRx1lNdfCQrdJ2Kmj7eUaDIjf7sOJ6DgUlCQmPU3b8/RudA1yAccTC7ncstYKznZBRAynfF+fawg1qwjxd+dsgFCJQopiL+dajv6lVKQImcXZPSZy0kQDegXhLvABc4K+oE5jWDiX56LYeM+Ndp3cJ2Gdc9MoygEFfralxWUjgKv1qRlDaKbZjbpYQhS5BoLR4/iLAZT8pUIXihPhEFUZiIHgFAQsiosHciToK7EyiXlozsY3FvYe1tnFOBRyKmIz3a6VXtBHpgoO+OCMAbJEJ9twWleaFTvLQksR1seY1UBcMU6UfXtxw0QWCoKjFDiDfyuIkid4AUa8SRezpdPc6+hOJW1sEa8QoXvYV7MP17uR0l96dgSwIyBnUJzEgciJieRC7gYoEAhpsgF3kGERAhIdacaIO2imd2DjkhOCIylLyU6BCAqA1RekWC9zJGf3Cxm8zCw6s6JQJGXUoj1EWD4a2VBCq0in7tYlrI7IKfJCo1Ce8gYEWhUGaN1e7EhR+Ohv2ZPeSc+VblS4McugPB+IYJMGLXsBpqfMh7HHUf4Ccxgz85vhgJCcrgSK2aug8A1CEoEIXuBvB9mpvUP50+cYnj7rAbdlx3iVBoLZzdwoOTBwxkkQM6/+kMhOFGYR84rcEFvHOluBVWWENG1UzvpCai1sGXfOh00PBZsCoyV25rTziGa5BNHJg4MwkZ2FiqPMk0HjBSFh+30HTOqGdYUvBnyvBQs+nXDY61F7UXIVxdhG8dnV5k0ROCgyl/mQ8fWKlodFJobFAjyJKArJeicAjbvS/xaGsssA+lxcb1gbMgnKQDP+8TjxU6A5m6qEt+4iPAqxWI/oqIrKFXpcz5eZwrAssdwYBLmsGcDWJ4y0HWU+BE5fTQLTvImfci7TM8SujeLn+9bJBOjUe1TtjM3C18WbyDnRCynXzbsEkCOk278W6YJW7lIT7Ju1UBuBE5A24KjXG0Co3EfSFgGMRVaQXqE4Ea3zLnLQrqUuRtKFtmw9GCExbXROiwqQ3PA4eNJKryDm6quIMWSKnvvvkPUVwCN2pFcYKBEDL+5TV+knilLmnT2W53UkZxhXOCQDzHiA5tKAqj8/NhDI0Cbm+nLmvTnWf4kRf6VPRjr9a7Rh9pr4TRJPgkSX2N61OjTQ+qhXoIVQ0ZTe3KTgW7UA16c+TS2yu1fOrkRsinkteegOu0xSIAQbh/EsIanWSY3i+5W0qqkgic+e0FcMrY3jAwsCttrIi8bZS6jqRP9nZFJ3TansiNQpamAJgnk3DcL1h2nJPQYa7vAr2vV6uCFh1fsSJxKx2DDRchSpN9MqUchK2mboAwgQ6AV3VaFHACGAtgQnmkFRHJBLktjfmsQukUQaf1HH78LsMsGEygKighJH2RvKEpIAWwSAnmQHPa9Sq3xV6FZ1UkiPwQEqUBBMGjrL64kdI9X40KWZ8WS+fHAVhUtbNmN99M9qhnjBFZoK/fnq6KUsYhPXqCW9RN7o6768BQvHYWvY9MeMFufANirdcckYW7RVFdxGhPqBpSfDgDF1YxnzbgNQ7wDYE6UJxUgm/FJDlpD212FknD+3/v3QsClJ8NvLQGEwMm0UZbruPLwWXAWAx+2yCb+PQfH8xLK4ESkqZ0h4Ngj3cdljW+d2aAXF3IdAus4P5sLIPFzOBjyobmNACLmQ3YDXzOkO9GuA9toy7416iEV5ZTZIbBGiD+bGxQNU5cQXTS5QbNSRzjuIJ7FwE/CiG6wJOSpha4Oec6OudlUnm4cGZnTiRe1KsSDomy2y8pSwAyKPMiEsKgj3SGZWdEMrNILswZZjIkXp744TNLNaeCtffumtCL9hFGpiT1RXjiECMahVSFljDYD8q4iDFWoy1qAsIXlwbkstgHEi6AA/bGl9XDfWeyeG1cpwCsOO6WbpvdWWTP2EEevBbJQMSdakfFIMwpS0vjFNaEuMdVotkP0AMFAKAapap8zRViNo4gPLtOvWOry1LtMsTq1lVX2rKQSJHqBWgxeDGTgxXw1qWZKSuGt0FI+BuQWG2Mubys7efR2gIGm5fzkcl5EbaJRwERqkGs13/qMgu6oAjWTV2JVgW/ceuZ0H7rWBRBKmvm9+U4WpKXyF2EQF6paLEiEiVAX5DzzwUpcSRFN7+v2qtHxY6yAUCsfqUoCjW6PzMo6+B/zGnTd9FgAKWcGBgcHDK1TPzYjNGMxncfnNULFRQ5kxBdfwq6AfQbX4vXyUDHXW/h/+ikdV5tF9Y6b26TrZ3RSZ+oMl5Tm0xy5jDOqR1NociyyuDmSUE+7AVVuaS5FrOemcRPTFEUAACAASURBVL+rAAUPkiS2ZWMTpRKWS9G8XAUm0rDePmXKqi/K1gBdA60FsYIknc/Yp7D2aS6dQs9dAKrUbCbigpiLICqpZMJNKyk9chHksBMrKmYUmkIsYfrKwWQ5QIgCDeiysGPKhW4FWOSWDWfBSO4n6VvGwPLRgYAsv19OdQz9yPvnlhGBn9CQuSvUzRIehsrSJg774bqs6MMHTwoPLg9A+XUTOhIytwHZukvfAOQh+kEZJxgex+PmyI+zosSF9gINRP5x9AACyMN5L8ucAk7Ta9VO84ifsuUN6Uz7mbmLBRM58AGDqtITSB3hFQx2lrnK2rBZEzmVLQD4LFQnCOjpAghecb1Xn1C2KPPCuoW3+Tpi5xyBqHrVK/hnjuzHQ5X4eOWjwc2gqsv5tFKgXSqmwSTJwICrJXK1wkfmNStuAz7NcYf+ddpzUI26SxEOMJk/vaBJt85o0MQlDBrsxS6G1XvVaPeBdVqtB1HPNlQEdsKh6lk8QpaI5jeILpvcSa+Ce4FdKBznwC4VrVyYBmonOPosClWWKE20XoFwm/11IgIUUlT8sCOpBI7Bc8OgcteKuTt84JW5XeJc+Mg4ryhLYEGksNmSo0nbpDNG15eMik6Rpg9OWbh4C6PHolkzI34LEWnlJ86D5Kr0nuvsNL32x3RhhcVLQAMZCQV1ZuEGj6031zrzu+NK9KsngV3RYgZuQzGpfBIhRsZMSj5QzQMfc4SbmyQdRgZ+ewWhyQWG6ljowxSfPUHAYWUN5EhrADFm604QRy1sBjKivoLAy2J9AVDMgEIV3Dg+FHqp8kYOMsL4dGgwA3lmTi4WAFh6EJV4N/GaLHUJmBbEO5KxmX2NbfW78MxCSe3wtQukyK2KZTdNwvtdFoT3ChAs7zk5QSk4AELAoBSUSnJthSiJwvHKl07ho5Dt6ez7//LIOg2EHMDK81WAN2leZ40em9cIWRGTl5Du1KXFAW012ntIjbboW6d2RTReA3AxozcWUSi9/OyCak/5JMgN+9Ro+/514pLQJQmOWIlJvLMZXRg3z7ACSWyIYLDBFRvDSQypXoKaS9UMKdyaKV6ZWNi1wL6n6O+UaCFv2BCQJVIDpQkypM1TfAeCHBZZTcWOMLyiyYVASdhIXLMIE0kV1N0UFHEq3V/ZsaHgl0Oj4Ma4Zn6HpasPC1qiXRXUKAwLTGRjyQQdBoFlmQZ5M9yGE9i5HxuWxmpSVwWrriFmnKjCsQFrn3VsOXV7elGlnHZ6OGbwLCQKQlUuSliKAVktEZ1z4RGouGcgQGYqARntJjrNsgWH9XZWL3dZUrzWCQ0C1dTDlq4FUfaBwXXlBLSrPMS4LIiJRlrzVgToE4ggt1bVJAqvwAuKO36FYCb1H8B5hdcKVoQSzQrRgrhORsEIrnI4VAV5aocyS2daY5E5XS6GgtB5t7/yoiILAgyEAwtc2ObH+9P/WgdDVtZa5zgETnVkBS8vxgU7D2DTfj0cAW0+TJOS3AK7EJ5f0AhljN9e7Hf+0hZXLOQjnjkzorpTzAQiNWlxsxZiFzglEWMXhNX7thFt279GfFYDA5gwdFDW8lwm3hcWEl0ztZPmQHwDAw0+JfJDPeSoZ+PCWOc/C8pJpyiy+0bnQZWeCCIU+z6eQLbgzjJhnYxtOrOiU0Ng6k9CJKxlns1hFh3LFihbM2JPZcLElQJbG4wPkB1/NdzbJbRVhBeQGd6qQioJwyCM5GS7DAFgP53P1LquRhKdsRURmircKkYWXQtRfqW9pCneuGi2MU00kBMQuKEq1iC1D2UWg0r2BNKEhSTGeUmKWWkqVWCESUPXV0WJJG0Zd/jeJKlLkt6oRUnpX+je+hDmrCJmTBoZgrZzD3Se5TkuI0moNQkxpX17iJGOaW2FJ1A0DNezOrYyULV7cr5O4wzsVEUFuhnAMeWuRaBFhyIK8gxY1hkHM7bRQA8NdkWQARayvH8okmJfRN5VD+6T1ZRA1i6A8G6jgeW0n6sLDR5E97iIfC9HRHv5nY/oB5GCRPTywpjuyOZ4eXGm48Z9a7R1vzoN70bUPZU/XtRohjMVXl/EpzRGC0QWOhCaYEXMxY92HdRGg9OhiV6uSGeznRk1aWmT4xKaoXYCuxwqTEBEg7sRrdu7Tmv2JBrRXqNedSKOnGAs0NHZpBcWNOhv85o0G85/YHfFzgPZzREPgsrdAIY2IH0LswlU54pAQOFsvawKZAsKE/hhUeJ+HvxsVIWSrT+CRgm2igoLU8+S51/DI31qG4CFBByqc+J3crG3BWGJwCPRVniWVrRMI/datxAA1cJVYNNkFnPxQ2dtVoSd9McwUwVHoU+9AniyL8quAXuIUEKJbkX2im9QdLLOuwMUwsItaCS3FuQuIXADGLvntJgBjKAbII03IxGjjywwN+AlRAbxxvgdbCxARlXnJ9Ga0hIoKgyaBoXs5aOMxbfseC08AmN3fApvq7XP5XB4gjymFTAFRY9Aw8WGIBjI6LOkFqpzBi7IQnaGylzlSat94MdaUh4qrSCGJVZP1eHH+IZKfGap713f/ZdnoJWAyQlTBBaidxNEPqIqkFN26AYreD5y+aYZDa2JIENhRc8uAlbArHw5ZZAV8IJG1ZXA97D1gU9p3GUgK+8a9Uy1iCpAB+ZKECkGxvGz+Ljoh+Y26YkOn+WA08wxExzfwOc3MKjhmg7cv9md1f5xcaSDh7cRWyGQv6MJFlKBktSOJjiTAib4BQLIyYLZzkUHmwQWulVAqCiQADgff86BB0gOrNiIUkqBTByZ+Yr97gZpCp9lqsgkFooSGzucpgimmzgEeBb6851rAbc0uQk+D2gr+D7T4rsUsBbuAe5zLvaCtSa1kXRFpIVM2OdBeDlvGX8l6q2YOTyN6VLB8F1wZmnXKGPN5EpOh1hVMMbKGA21slqg2Y1pJbqggdZhQjAUMo7Wg4Mi0Ia4gRhoh6cboiJvodTBOSALZs8GBVWRI5kFUC2CpqJxLeL79JusQQFwRixmboAkIpSWLK4hd0laBysyMH2BtFfNMFgOD7SgCyWBAp3nv2ETOqsCoJzpGErqw0AiDXcBhP+y6l+x5jxAkFUBqSdaLgkdvT6jRCfsYFNnDqh4JDKf7Pjg3PJZCSvSYw76231QnXYcUKee4taoIGTrnPq7IO1LgmVRsLGF48YZnfTW4hXpRfmaMe1EXx7ZRlxGGnugSg2Y3xRdSuVEDoZgMadg9ahYMYWadDdxZtohynBTqNaWrboGBeZqTgMxxT4gQYlSNhfmIBN2+BwvHNPuTYOYUoS34EsgRqRLFdoSNJZo0ukoUMAV2ZuZ0/PfkabFJSFkL4Ie73E8UxDAiA7QFI6wBTgN6meZW0efq6WqQcmBiwHXvUoDCUCgsM1JNw/Cg/iTBAP9KUJJoFczDHKew8DXpN4DQIDSwK74VvJVy8ADTSR6CX3OHPgCCMUaUkobURDs+6ambaverBrSLDeSDZNWLZsns9IVXFjFbBqv+N0yCA3plwB0QLYpDYosToTYkjYx0FFEhQsgjA9GUS607bcLVTqCsAsoE21tCf8oDWEksqyt0yFyoqu4wtCt21UH4T/XSv/BnZluty1QoS3NPHESLRFMZUecWxLidUjA8zpjVsPf5zWCad4J2xZj4R08Vz3kwkdj+9VoDJdJhlTKcFtlhyfiEkuIiIg28o3VB+OD2WIxvqNBT3U06e0lHBi54v3jQ6j2GCTBjThZiUVS7EHsK55Pb2Ld78oy9wQKD7c/zdwn4tfDiVUhgyshCkfWx4RFnEwQEejDz/zd0i0PNESgY+R7truy6JUKDaCLAkkipxX5HHWK33NavxKtWviT7chyRsgEbynuBAUf7johWcZPnw4gKcySwBcrdyU2BegPQbAyFe6rRZkCjVfONJDYAZsTz3LoGjDtYsYnoBEljxSbAhNQ4mnbtUpcAPr7sRcAhIDmxQJXjLfR47rNLQVclYqZGz9ZOWh4buq0BcqaLLPxWEqtHvHcgkBlzjQeOZNtbo7EEoLiKV1ftGK1CFJ0NG9xxt7FVhH+3iiX843IVkf3jk9M1i1Plld/Q7eFRHNUaVgBS5cFoYV2fBe+Luj6XE7gpld0mtf0JdPq8pgAflvS5PiCJj06r0nPL2zSjGVwsEq6jqsgD+lWo9V61WjtnkSr96yFnXmsjpyVYw0DAuGWpFFJ/kdlIteL1AVhRTWau6xJk5YQvbiQKyMSTVpSTankZtglwgcybdKnTuv1pnBKpCJymORokk3IGLaRJsQ0wtOpE4yODt1O/TYhGdOw4pAsYESvy2ySZQbGnQ3MR/I1W+qYdTy2Y378ONRSLIP3D4f7NMPR/AN5LniuhH1mhgEXM3VnICnNB6oaowUASVmGgQpHWCPXl4zmnfD0zTpe0eyPqj7CJhxQLwVNlvpS0U9Id/o+KXZtVJQl7hNjS0Yj5pDX7BsJZ00L4ujXVfuwlgJwxMPAdNkxvTVV4FO+FW0tFqYsgFpLk3u3TRiNHlzlRmLThFYMGLCTFc46kbdTBbriO3JBeXk6ot87qUUkHuvuNyK5s72k0xG0hNVEa0gaLdKQ473EhyvyHCUKDIlKHfL3Z+ASrYICKHKXDnyv1Ie+7LQ+nH3W5WLIlOu7/RFBguy+XXB0K2EIgYsqUOVAjlzeKPwDRgYVyAWM5nU2QyDivxc2ac6yZgjsG9leo7V7Ea3co059OOoPiDMKgdRIIa/Wm0OSYMx3jxBoI5jVgoowLadJS5o1mrG0QS8tInprcbQqMDAY3R4tGmzZ6A5+VXk+niqXK/DcGZ0L4Dg6EIq6Fgl1B9kdQRLEmyfhnny9CqJsEURIqEDDAq2y45ByqQKiwt9MOmQfBTA49aKWGVA0qSuxOV9qFttQ4aeCKBEW4rnU35I/NVekNpeieERS6erHTIEsTkCELoY9tFLSePimzbMnvIaLpzQOTFMd/PNmifH2YVMIIkqrcT6isDW1DE7U1GyI1Gzy6yrNoBIK7cAhO2IckO99/AqagiXCJwoJnVNnxAaXlVo4UBpZNIJZkuKs6zwZykzfC32Iad4XHo40kgFc3WNIpVBLCcaYR7Ov5WpcYllsUfOy5TpvSna+DRuP0Ymcp1KxTkkbrpy9l6tYoRCfhO6g8H22D1guyEwEL5zi18QDwVxnaZZHQhlorUWScPwS+hfXwkVndVkQ3m1I4NvPBU7p6Y6Ak8JRl0NVCiPY1PetRlV6fq4YfIOm7M3CbgozMgcKmipUANHqT8gzHRqbxs4lZZiMi344hWj+ChgQEaZmROFOATmWEy6PzkWRiccIHPBQosjssKvB3S88Kr41BIeR4rafxFoBsSG9Trk422Wqnxh3VlVzv05x4P30HA0ss5HnwWoVs1XaJWIeVh68VSLNIr0LAElL4cy5aPYHXFEVgvaNKlkgw3yX5vqmQBU60kJ4VwFCC35GxYzjU98z8JFjMIwZSCtvGt5OQww/QRuKqjJ6yco5x9sQIWEQYqLrzIIReVHuMb98JHkj7kiacq4JUpBwvP218wIEuOaBjT52wnz0kRN0jUOTBjAduBR60iWy6+JX+VxZw45eWgbhAs15kRdXNCOWEu04AFFwv0XOF2Hin1fJSJYNyzu5maQZADsVfgJZHFyxaRPTZUHIZ+o9+OzWInteZM7suC6NEwLiKWizdwYfmSJPz/ECNs+nESZPce/Zcz1azcGBsbVkDWhEvN/qRAZDoecKpfhdiCldVBJoMkyCAFK6+JtG2tnpEFRvgytCRZGNW5WlTh/uYkSoJ+Qt/Zbo8Uy0yV4P3Rhm9Yhrr5hAFU0EJyWwYcthrgaNWgcFK9dZ8RoTlohtNDAEBdVy4ytkDRDkyNx5YmkJFkBBafR/q3S3PJAflYLpnoqwjqsEFzslkPq7HAEff/JpZK69pH98TQyoaSE5/iV+TzSiLhE1/pgcCErSgQLjZembKk4lILjHKfa09ro8KJGQ7sUrCGubiCWSRO4myzRRmvM8tiX0PKFLkQe52TzwSbwwzXyqbZHG4WVWDlqyzQZYb3T6gTesQIo9C5epFd3CNGsfK+IbgKNYjEsqRp5RpimhXuHZspIq9dPJ54x3UM3kxTyVIrosCO8BIqgg4BbPzANcMiSBJit0oGUbBHfss9uVV/jGAIcT5WIRyIQongehLisMUjQ+NbNxXi9a+5D5G+SUOQyCTFKjiKhBWEc5YqfhocCU37CNXAGL+cIYLEfwaRcTGsPiIskHKQWIjKvsnAO0gbsUMtUo0a2hwEKEJ8Z8WOEZVOCRirIobdMbitZQ6MT3HhKI6osCTM4b8NGnzs8rygrlFkgnL+w8UYTfRDhXu+HGk6ubwvR6eQ9CP9+pyahRiKLhS/sF3fVwtxRvAYBDrT6SbQI05Nqsqh5+tkAPjD3RvsI8VZUABp2piz3NsR0k4cadZylUxFHVpaaIy40lfsj7lNOYAwiJ+ayGwjsDS3VDJtqpykEDuw54V8C5TUtoCudVY6ajZaNEP1X4YxMnAKdkVQOSz/GJj4MoyFK9F4BZTsso72TI9p2XEeimijUPJA4lPil+g5uNrjTH9wYhgCwx4kNpnpm7kELBuu39kuhDKxmF40OdzsgeWfndcQGcTKcXWpXHCsMsRxCWlLx0zgRhImspE+o3oG4Gq4LSyBsHjDsTf3iLNG6C3NpMkwTR6GBxBZeKTaYhdavKGHU+gg1g29SgCVNDh44lQzdzFwQGJnlRECcJxgQT0LIvFQ7wNQt0XmS4oIjtVt9HrzYyJQA0qIrZ61rXo8yD5UJJcsWeC+MynUClRRG8eiNkHCxXMZtFQocj8RnIVNABpK9qv7LYF2cxMj42jWKLwe9ce/qTtZmvhyl2j9J8vyT1DXqubJPiHSpxDqC+Qj8yEKFHEwOPudXOXSCghGFxKyGGWanvVuuOjxK6QhdX6G2RvmENZFwpK6pylAZaxAraJWMjvUItJhAdXB1HvFu+z9cdvVNe8AuNeLrxmwVPg2EluywI7z4+CEsi/JDeAw0YgRSC+hxB50H32mYsBBT4Ryk83wVH7nJKQlwMqZ1ssxvbSxRYKVO8nJQfJFoR4BZv57WDebtsx1zyH1dlLtru0r3AHVr5TTyWyPRZkCXuwhFm2Tg8pBMfgBVgqmqB+E0JfMiKxiv0Oncoj/l/NTUzj3cIN1YRFM8dyC8f6Kg55dYHt3Ot7AZTKGYiYFXUaZ4RyFTWPGOriqDzBgqYC3+jaxckK+7+8mq4OjUFv7BwAUTymZ9fXSkWMOt2qwVLoBrb0nji3PuDhoQUhBcEsuvnFCRZUV7yRQV4Gw95K4jMVnacN9zPbzlI2cf2qHMD5EMeExDpza85gosUi6CpucmSkgkwBSpSRjp3/qMlRuQVDlIDkyUkQ+omeCAhnAEkky4oHHWecZLNogdeFRpOLSrQKMmaFgDBTUv2Afvsypln62jyIzaQu3u1WTHWwjzm82IUIIOSMJQuC0JhCf+7XyHBuUUFXYmLKZlzmTs8fqzqIhWuqsSRkjNOsZ9ANad+5CZXBDUuitAVjIk3+//9wOS32L4HLoGo1V+RZifjUAU1SbEbCEIJGqW3KQcxk2IOetp3qFxL/XZgB4SvWxQRkKmPmk4F6SXqOxYoJq6DUmAYBHVl6yWKw01DsiSYKMB0xwwoiH83djnZnXEP6a/3gq+wg9NdX9S4sfkCOAG2EVo1IJzvJLNdbzKzV7/1O/WKEhULABzLLNdUlUMuSBNlYmdFCAut5YwpghjBqCqY9MRKESTUQHG2MZtE/PAR26ffZd1MXjv7eLwK1kCsVcq0djx6ZLuULZDuM2owrRMDEEVCeSuS8Fa8GgGzvBcwKbVGUksoCtCi5vqDfJx6lir+uU1LxUVqvc3BcpWmZd7TlRndYHxAS7pROZnGnLNABciVaNxNscp0ZCffd1iRJKd8/0zywtLhMlaPcAnsW401SzOUgGBUNl0WBJQ479L7yoJnTBNY0koCmG/MeNWBA20PiLxV1zNda5dBH0QhoWtaFG0rQCJdQ2FsIgsHmLk4Munt5yZ9qpjYoqvDTHnWvt6PDcm8OG2CzOr7Z2PJmE3ACyoNFcxpe4qlrYHpqp7ZkulUTLipo5gRErUF6GEDVtJLGbLNgTcxYa38gj53qk99k/+/vXdbk+W2gTXn/R/ae74mEIg/QOaSLNtzMbt1oVVdlcnkAQgEDmS2F73XlzHsLc+Ry/0QxCfoCXCvhz1owqM48RVpktx+9fdKV1w6llG2a6x7fOyXxPcoggySDWhEDvq5GUkURC8SzRh4ZP1BuhYo5HrvdilB2M2DfYa+n2Sg7U5sTX30VeT5zAOUUadThiG925ehi3C5okHgMC9se67XUndHwsyxeF+0QRmFbQ9oeQn3g8yoG6O3qpvCM1xgnPP6UJGr9uOls0qN/jzCq77WbMl0QOlviuF/xAo+Jn3UYRk04HI6Z6lf9tRhmM7C5y68HXyQzsFauwP1ycfJjSA/GPLEHbTFZh/iMMBn9Z325lAR7xqYR8TEtOH8LPAj6MKxgtd3/B+EVBxKF43xOxqYj52Q8QaknkFj9bCGKTCEranpHI8JoYXYapWHW0xMQQuqwk0BbXdOcD+AQOSJg2JAGBTGlof6EPsNkrU1Dd8iLTCre6bB5OcFrq9+hmF8pRsWqKu7BPcr/L/k9RVyPf2DZdl5309DofWPIiC8xOgRDqdekiZT80b3FlFRH9OoOOonwI9l1PY0pJJU/HoEcgyzW/XzlbKzGcmowQSi6gN009sol07MoiGVJmSKo6z1zCYg509ZzV183MT5L+T3lSqcAlA6ECneV6s5/4hSAjL/VIMQRGLPB8nOWR6lpnoeIkZkhTDJxTqOh5ks5tJppCK2bNWd2j3Sf/0ShP8dQbiE6+NRIpLSnTfDtYA0JhtzIrR9p6at8vsd4RZEMYh5CvILBFoZJx6mkZiL0Hm8Dml78NYwAf1pex+cQ49JBn86yW1kUowFKLMILOx7ew6cjTIk7kydZb/yfG1trIQiNjJCAFvkfdmTf6m73QgBe28Pgw05olIHxDSwkKgNACqsvE55QQZ6A8iAxPJPohaFNw0erQjJGTqKE3XP3l74AOjI628wJwnotr4iCbq0l6mDJDCyh7D+vLH0fu2tZdp6RzmfzzOuXusZDwkqW0sdTN2aZHHPKokyjWy1N6F+zG390hUGpzm661wjpQVFsHHC4pDjlvhhYtvbX8WzIcMwXhck6b7VHqcafa+vkfKYNEeuyEUAuj1AgBH4o4bqrQ8mlYCEaWvfs/2qQQEY8fsepURpJHTnTRhYQ1JtoSZrHfXtlSDupVxXtLL1ADULvymG/x0/eLZ8YSuEODAZ7FIN3WHDuohhpNdDv4pXLsXhMwnkq9GHfWgRXUilsNaMsQ3WvGGOcTi8NORpgL5GhmjCeQ7Mb1uGam5PaM+dDGyDzk0C/O70XQRiW+A+uOtS23W63AxDz2+Ynxtr21Eck4vgoAy4zEVWc8MAzOJqRATjhLCImkCg4oS6AdScob1UAXwLg7JGZHljQzSwziS+WzbXg18yeYE9+hO1L/nIEDS1keuqsPzLux1tvXaw2KDnEeMM95nspHFg2MNyB6+eco+E+lXtH6FvGngRznUUs4xPM/fqn03OxpAwoA5KTvfv/mQfZvZOw3MAjKFxRZu2DjLdNaUSJJnKDL7kbaUFPmUbaaWjDbjw78ihM5GOpL7RLb+9215Oz/UOkCYW2z/4SH8kDWkK+htB+N8zhLZbUTg9T33kVvmbbJtSEEdIgO8BXDiadwPabnPqAmVUuxANacgxq/TwB6cl5a0hN/g59J/Fk2aqMqFKb7yIjqFoKYsmlV+PQem9vWBcLgojwNVnz5U9G5rBehRf9GRUcMHe22RzS1KC/E8B0Cr4krfXMz/1w+MEggwh3KQiN52AVsVFerEWDU1KhU2ZPml1l1fZQnfXVQhS5Gka0yM8TScWBEnElSbiE5S1bE2IYaOCIG/TNeR45AWptKgvzbSXPXTDpr4LeiWZuyIjC7z/ZHxWHYNsYxbO8ZAmvUMlI1y0opscuc9JFDX3STrsXg/eoHK6ru3dAyMyeTJirsMbs17GtGZ7RZ4W0dBM/ER+XnHJjeirhKOc7Q/YP99356NeZQd3NAXrevXohVvz3frxSpX9wST93Jpr9SAReNC9tVlOxDVLUzjLRNZvBOF/xA+0RiM/d9HoeTJlZeCfAsytaakPLSh5upvzjFK1VIZzCMgonA2COrM9gMmF4tnn4yTeCqT2ccuZc8Vs7HPgQTQmjN3zcoGMKct4Z+Npc/IUgjxz3vOzX7c6+6abXvPA/lcIEwBxWsTplgpRvw0o8vNTgyGXxt5a5HEjZeS5C0I1q99IhXqFeLe9EJ4545B5UyEkqUscSFgalRLMlgdKxrG8Nj7yAl78eAH31hv1Q1GVXneavSFlVEJkfc46zTY7pNS7HznPLcnoB2vLythAB6+tpC9/uwgmU0j5llR6lkzZkawodKiDV1d7PZZTR/Lw+V174eCaIkZ3vY5jkCIHZUidH5uPo3sssF39nnnGTpzwWNIIlt+T2ybLYcqUiZ4ShODO2gRB2Ib8j8RBgP0gqfgptGsiLpQ3kQukF/Xc/fzqn/9PFSOTObK07EOSXMvHRD1eEZ5VC/FLEP5HBIHW/09CNyb6xVClSMzLP0nCPYgX8ZBOTwGQ8la2MbMnfB6DhlKZUnT3QUgcM9uSgUGww1P1YPYBvmuYOa/tVY1Rs3vosKgGuj0ImYR+A94yjKV8PV4c32xlvQOn/mZiLjPOUPIYRJq5V6FVAgQnRDlaxxOnacjMC4CmlbVoVWS5cCeiAejvudBkY2PV+fkrPPxFEHZ0rY2x00XP3Za3d4jn7nS6+FNEJP4oZ/NKBL8bYRC36y7WJG/zmlGlNmuhZ3vW6fVtY7HC1OiLu7HD+CsVJfI0JDuPOc6DugwWWIN1uQAAIABJREFUbL+wJQtqikTIbG/Z1iRDoGiwHqH71CQv0iXTeuaMZxjJFA9ziW+dSOmdcXzo0aUjeFzYgUsu0Atuq/3UV6w92vqAkNGDG7dfOIgIGtbhlyD8LwkCBYWrBEkPTN6FM07BBegJ1JgOoEi7TZmpoSGuZemchQrdfKYPCv+2QH9oqIfWn5rsXIRWTFjWIk4ZfOekaYRnK94YLXXQ7up0ecBBnUER0JnXdAlZBKw2jic1nl6PraMlPIfeOLjIwLChUkhFbxTirOfgUCSlOzZiMeSq7RFnDAgF9wuYZmskwfleiASP7R2PhwTDsonp/L2KEwXsvF7djHt6kDgJhsO+pqDHM+mubust91K8PgOjjVdFVkCxWpEiGjZJp1rLVz9cRFy/khxTFzZplvJ5ZwhIbBhTsSn1ga1C8lj0JivWoS31zP0HBoycwfMI7GmiN/NlhrULZ10YWGOZ+pnThPVBSLRhkN/XyvSzsUyvdchxxapOP/biPdfy0xiDHD9wkGR3tzt/Gw7FkkqisEYP1fx//nXXmZecafLCZq2dD6t+KWeGhalurD6tIklHSF81wP8fWM3/vz+iV2YiZyt3xGKaS0heQstCExCHCCN9GILrawruyAkEJkQigdJtGRyz/QRNpwAkhss1aANZxrgBmYd4DHBRoOszi30GuLYyB8yz98MgxiSY7TdIYfH0HooIzR4822+zAxYMQvWzVpjUuVCBIgjGMqb1p6+bsGN7bXN+POzApdmPym2C2ZlVHFkbeASvYr9el6A/uK6Guz+yXzsFRhh4AviyKGrnE5TFDfrfqPbmTVgShcpd55NIzGdGPU2k1gyzEeGY0MTKHa/0ooT5POv0zRMojZKhHFlYtQt3Pp7G1no83x6D3oSjmRdramQinTrzbErfRtuHZOZug9PnOFgtKgxcy6Bxg9uBL1yF2Ln+0GssHa+JGq499/tv4uNF3OzIvIx78BoQb6ZCrQsr+gNl4JqnPKmzLW/NN85uKJLb6VymnqJ2pBR+nnr+5PHy9fcvQfhfcRVi5BP82lFw/U9LJiUPxU/n60UeXkI6SjvZq4YOO9N/r2CyO82q+hBCCOSLhAwJWlpzeVYc04DjLqZJdPdfRoSLYXO8m3UXxUB+dudw4fbyLAAdN3v0ahVzzTMMxnOMGXKzFThBkVdMFE8qLHTKdIXi/qikXyDMN+DtEw89bzQetqrzuwy7LVZdtDxNGg/Ek4saMXIAGXgZd+DZ4KE9dZAuXfgnsvPy/Hf6SgSBBvyPutVg/hD0Gg+37lnYKJMVQdJRv5KRXt0rveYXeM3Ef+WiAeE17wYNGWdSHr9xkukS0gtMMnR81vpphBcZUToo5uuWuacszFw0DW7P4Wemvgtl16JTPpasPLGYYL2iYFsFwBnO0nBu+Zu+j10Ojx0F2R5xqMkIj50AgeLUxpji/BitKzDpPFD1T8Qqhy5qzL8nKf6vuEEj2uPFL5CoXawVRSZML1BfIQmxpadFtQqMaFju2pVpojuglxiVN5zizhqAh64jdQtDvUNkRU3xhkMpM+45nSblNlOnCrry/a4jcNfl1eMgm8e4zLnFors/7O9g7VQYFkhFEcVXIZnZOSM9MYZxbdLyHDCMcKHYWr6FbtIupxjz7aXCNg+gaezb3m13IQiDuwBgXKANUqmLBmCBS2qXuHw+YwmiAEKEBQCpcC29Q1dgp3zsaXZdAOGZRr46sg28tclFYRUSbhlYJANUoacjK8OkwxWqf6QWzncGcXt4r101JtXd+wdxwXsi5pyKJquBhm3ML9IkUl0rVz/r/p/i3fo+jpJGuzRkmttD1MOa5ttNv0mu6ySfsvP13IX60af+7YyLshxFzop0Jo6xD2n0G4/xErqMaNyY6y722uOSDhpm2pmDkI4Ah/NnOxk6/4DBTmLAbwThf0gRLvALga0Vf3lO0pZYVNqwhwDYCMg/d04wIt2yw0Jvgg8jm1uJLusjbwBGUOAuCd4Gv//exMbj7E8rj5oU544saCarrqBgy1sm7zqMwaKeGD+faNiQvw778b2CxzL99Z/rjdNce/EKRAoAYyuinrMUPdp51HaEjEHvVfNAIvPtffVaEqcEjk+Q9Tw9cEmSBYOodc094xSxF0iPTC9Fup7Z3Xm3UYNyaghnEEhWFqE9d/DlWaqW5wNWXcXuU62zd0uU6GtSuyJ/blryAf2eOTpr29c1mR5S0TNdzb3bekU4hvy3RXjffwPPEAJiAiKd040rKmLSNuSg0xxT4AjLufWyoiE508jE1FQ9ntlfP+tJ9BtlbYa15eqT/C0yKp4nhvuQz4aB7eWYIAtL1cHeHVNTwN0jOGdFp6hObLSxsq+vmQuQ8Jxc89bS8JtiWJbwv/xniDPwQY9R3p0H4Y1MUOCXMg7+PMKpX6D99M4mpSXzQRByJGreXLjmJw0mLYzTGpNfXUcnu6kVVhuAzPYGAeBxlOy36Dfg01uffO6cKPfaGlUTTa/H4XEQrUTrVq5cGM89rFobB285MxRfIAh0rdFnEWCG3VXgaOOh+Sjg/DIWjsmoJyQPAd4wVsERH0YsxjIhzEinb3y/QPsF+APij7TCBnjpxTDvZbhSXm9l1xgywkC7VC3kOidpjWdsnVfUTssjvB49/tIFg0EYyrDfmebgGF7kcDzkJWXED9NrRTF6/LoZxu981E4WectrhaNtqHfY/Q/C95K/WX8ZVKjdJgsvXPzEZ7U3zIFohYjRK53FFMXWEzzwr/pzfl/XPwnCHFsNEklyqjTRzE0LjQqwQVwzhf2bYvgv04FsLsKajyddoSIKwz5yWNqxUuMvIWtz99gnfOe3ro0EjqRnmioYJgO5Ak9ucUK17ELLyKf36W/nVdVR8CWvnBEWeGN4bbXgOpXJQMkA+Em/hJEh2BsR+JKjOi6YVrL+UqHeF2ixFKv6Js9V9KUBF9bY4WwvsoC9UkeE+Y5wKBrBkOhL1uAW9Qi6SKDcHQK0Dl6qwqoERv/VUYcZGw1H/1YW4xC4qcxeAsu5vWpWCK7bANQqgKQtAJ9sVcs85PB8hBy4S7AKh1hYznXNV2jYb8ejTLFPDv+MzM6De2VPn0ouWA44aaQZM61y1huk3UYR3LlFxz/XWSgV1chXOG/CxeXqJvrUh7JdZ4ZOF1iPA7CKGhoKJqRZxbv9sJofyVdq2KwDm0JETpmakOdoz0IV53zo6zGiSHc9ZW9h/dYTjAU8fbJmM8+QwxnpiKFlKXigbl4ynLP+0FvpQGRGXFtzbUOuFOeK2fxPTeb/HY0Di2rAwB3+HbOBxZvIfAirL7jaf4A4hS12UkwzbC+Bcfo4IXiJ57dShL4+chq5HWodVBP950Yqi/yA6sVolJOPkuEJGtPj3vOmeg1/j0I09UmKjimYqIUqvzsPe5MPkSd7+iMOQbgIhjZ89W1Wjh+6opcjTTrbaHQ+DfrX/UmSdk1KP/tDqGgg+HmmhzIK4sSCiGcbDy9xTXlJ0eOhf9kn2wDr30NHPppv8U80/Vnq6g8mag6/ofLykag2Wdtlp46l28wxEeo1BdRRRbskC946p6ffc+R1noOHzgvNVB6kLb3yQt1CfWprNPOQhDfqBER0priw7/9jNAFEYKcrXmIgdZ9uoqjTDnJNx78TeaLswCq/1CNEUykkstwhYS1pVzFyRyeXbN6UiLUwILwfMj1fQ2QiEnHGhQkcYpooe/76JQhp9P4rf8FWbdVYeNpgZA04iwIFiW1VUJQUoicO5pdSGrKVFpQJrQfq71y/4NSW8mUwBkM18MeEFsYWyHkcnhnm9G0h3lXiA/KITTNMNo/vOd3vOPAYalxXuSENuRjAC3CQ/4s+T6h9FmDGrn2dpZa7QI7GXQSCk8m8upPoIz8Tuua963PP2dPwb/B5CFwYodtG7doyyzpB+APkBpBX5/Yuni1ejsK0+Pf9L4CXgpCSXjtsdm4WxOZKQ4R/6BTbTwSF23Bpenetysh+L+S5s49Br5B5kpFqiy2SVIseTh6xU9B9zUOOhwxc2nBrqnXPKBfyR5kREzk3OWIykDOFjv3NkjeNcEYK48dd0YUp72qbn1uechA6fkcOJm2/iErD2Mj56dtFKtaupM85T0UIGWH+eZGuqSMZOXitfxqkKYzdp8vC+Rpq+0sQHhbsP/hq0gYbMNmmQAte6ZZcKtq59elxGSwo+JDReWoI8yIJSBePap390es4WIc6MzN5hKmLqEqWyU5LI8aTPeMgyVjV96OE6UVJtSNXfniG3rtA7QUgn2ZeAKqpyRz/aHuHXu2B4yhTtFkefv23w8IzD3ozpiIyOiZ2juVFXqfXhsHtE56njgscYStOH+ZvzTkEhz9jqi6QexWCXemN28sMYzFb+Rbx7T+rmzfpyfqK71MSJRmLO7yCDbMrx0WrqdxsI3UEx4eDSMf0zOl3NaIy5sXwRyfWPnN3Uve4Pzb2IquxqH2h00HbmFsKbXZlN2ZXzH6FuP52gGC6GNEn1Lb9rNPMW2zbW7r0DgA5MoR0KYFqr0mC2DowaPqyTxC1fAVP+cD2nZIg3g5koWMpe2Yrh4SsM2u4FeZzbBP2762wB7ZaU9arsSNNG6TnTokVJrSsTTrTOQYRV0hwIMVvBOE/IAOvW4HZCVgAdWHGgPoiAIgQ73hwPHIDJOEkflOnpjI7NffpcUvQ1zvKCWf0vAROYygekzMA/Gxb8EjWNJhYYULingjTGOsFECBU8inqK9KnF6Ctg2NoY4EUTk/kis+a9mMc2ECOVofT9GSpPMEHEKUPlOvcxn9Nkzyne/5XW7FDs0GUD/ib4VjWWAwf3GsOnngZYvh5MWdcZNV/9HcjxhALPjIM7BWCZqgZBDIa6Bw9xY5eOw3aRF+S5c87NWZRW25BMkx2b4G20Tdk87Xju0DS83oX39a8rtqd0ywJJAXcxC+l2soW9Tkg86wGUZ9CXzWnZx7ERkykFqURr5kI41tG6q7z20QI9bdrKzbnVVsv0ojpcduQkS2DmuIQoxX9eI2N39msL4wbOdRMroJl7oLDjDnKxN7yDaRmMVGYvc7yKML7W4PwMGX/7CsvI4PMj0WX8ZB0h5FLr+sGwAcKv4weNXwJ+PyJKkkp2daKNE5SyN24/76qkSXkE1FBUcw492S+Hx1fR4HWS5iw33oDfYTLvudswII4qfXgKYmj9Ix+DDw9KttdyCiWN0WSE8FpWN1kggn8JjU/0Rzh6hRXrXBqbgPLeMYFbKqZoyENEvZ4p8MVonXHh2ReYwGID+CB97p2z54lQF+scMvhWy5BfGHMz9h7AiSfO1TPlbx0bu5FyP4ZKoYeOOgHmBchc7Hs07tVcaiMKez8GP3HwUz3HEGXRn4cCUvHwIQkyUGCB9d5jmlH1Cs1LUlLRNQ0p4OBOkBKEcadJoA8c6CrUO8LL0f+OSVaI7Q3H+FgbAPvnjTVWyllyVu1lTKhJKbXvaOvWOt53nRGtSKlXD8zc9VPjR6RqjH5ZAnPNIx6chPMA4m/BOGfkYGXyZGN0SI6IZVXP9MQAOw0O/fpiae1xVIvAzCPNAJ/5WefxXVtYG0XbUm2F27akN65wR3AKjCZhhletyoyF+y6ALgJA7uMjbaQ64wBkYRzyaZvyPmvyVNFurwlHwFtq7NZeuQCBcZ6l8OcNdF9WCh0AzuVdqMhQoZK7SgdBBIzOcROGokIjeCcqVz52p3G4Bxj54hgJ/q9gHfWHvWZ5/qvHCwiGzZCqFOBvOd8bQBuaZxwqtpQdECFfUsnqS/aRjsKnefdu1IF8oqIwamvwdHhLgQse2Fxo0yu+oIVuTi/xsB3zcryLmdaPrz/WAfrbT1i6YaKGfX9aVseqfrN+dyeLuEqcxmSCdlSrf026OpXFNxS5tZBRjTqVG+JkebyvZvlK6W7JH92TzjNWc/y67hfsjpYMfrWmtgyOxnY5cARXWHukd7CbrDW7xK4/l4psHY6pq+7Bgo48EsQ/jv8YJcQyGbWv4gYGPpb2C7jJLcaOe+f1uPwoLvT2/zxCujReGlHSMdwpWs4XerOtt/jVyw/cos2QC266u8esGoUOClrODUWwmiyIRZ8BVm6WL9UIGdj5mM4Dw7PIbIwCqGows93OPrVkIGBTljX1GaiCNj5MCWaH16QZwCEQa/rHuQJX6SELQqZPHaBbMAcECzBTCL8aB9u/Wtr4rSDsWqdItd7FTZivTYh+CQIy0vqSdv1DGnGXgW4qbIDwKc919iouLbGU4aAJwHW5UhV7Nebt2y/U13qQxcmNnaUbnGyOppkKxHpTI693rVggnxhQYvHGOquJZqe9A2hgX3xD4Gu9bzPDx4PV8BwZNyAYhnZXm61t+MHgy+UA+GqImkPpymRJIEmMSvXf+YDcxwfd2EjcKMci3JmbOw90daZlvdlA9YjB23vglYKgAo/a1L4YrifvvzUMUlmTRgeQD7yWevwSxBSZv7RX19K92qM0YOVGYhzB9JbaOFdCgCZnEe9LhlvcuVliyR473UJUHo5t7C+FHoVDg2g8chVz4aVb0U3JMNrfzu99fHMGhxEXqqfipEnmNowUqH0Eplu/TTUnkAvUgcC6gS8RrR9mpvaHv4w3ta9xZGAdGRmERobaHhZ0uG+YV7KdNbKhXGFvSASj5K9TQAIuhqrPXyC9CIJI/BrD/3DiDuMvUmeZWZ+QQfn41fEgcgPnJs1c5q1IS+1kXPhz03o9MXifGyhLslERcjZEW0ZgLSyupcl7xkxIz9WFbwcDRwj3mvM59rW0PiM8E6fqdf2otu4zNs/UCsAnZi3qk1ATS9ag1kfJe/weEdlfIJoGqefy0P+MTZy8ws/NbQHAsYaE6Tlg2FBSXQpQy+M3Zi4uVujdbzl0+JaMuZ1WrgopaRDuNhZzpOe1u1gnNuG1JKYtUSKSes7Ay4S+ksQ/hElWIvaq4+C5ferOXvxBn/AQhv/JwS5u7Uxy2KR3lDbzYgUlOEHyJ/Da3BK4hacBr+6w6Dxc9M+TGOUoTVMW7rKkMHI+GSWKSqqx3hkhhdbzvGAXgYBYWQrcqYBXKDIkKyh/U5fYG0fC5Vvv0soKN1WmA/KuF6eMocGyagTAZfvVKRnHUIV7nGvz06rwBQkGHnhxyMZkCXdug9m2sHkaXejXfO0DbRxGXUBwh2gBr73Sk1soC5x6lgzIlRRH0HPD2BYdR29ngGyesGSJewuzl16AuX1HFszswo9feUhudMdpUTWu0BKqWFUaQ7L2NYwoL/cXvg0rE6eqI8pI9RnEWqQ5wmWFnEcMj1z2xEXyMcr4kV7GKM6U5EsdMs2Y3aEDMCMYWcR9FHfJSO7D1EwbbGYaIGxb4HWV+S1Lxu6eZbMCrJrRTZB0G6Hc/8csAeyN2Sj2qz7aVGWbCvV8VukCE3+hx+BJe80A5wB2cNh7OlU1bLxBMX1+wjG474NlpETl0AoGTolv44W7OG/irhegFzfKYe2c3dILC8hfT+vQO/6rSwvQpkyiqmdpSAvgtDAP90jrCRxOs8J8pR7lrbPmLDcBhah1KOQtHoiBRElgZe4Bp/t5zk9WYV9C4XuDZ4jUFze8QblDxEz8cT9yqu3zZrJvvpu8ZhR7muiLQRXJRfX9RNhqbUf8IOsR8h9wNED4DwNV2tRPOsdeRSCrBdLcvFpTFoG6neBNxc7q1r8C9/aCZIL0mn16OjCpPEcxTrXxF5Z6wSNBelKklOkRKUjCxDSWNc4Jfvz25fcrLQC51FrEvjXE3TaHYN+pyY+0xXd942pL/l64Z5UOq5HiVS2I9pyQVucuxUk+EFenvi70hi1zpDLEf6+u/FHUmwHcBmqc/nvLoZ7xf7hN7dyoCGQtRGcSwNgXFdKT6BXr4p9dXDnumE4JxfG/IIBqk1agNbS4Qek3mmGJCR4rwGnAX0/PYjce80gK4Q9ClD6ucdMSl5Ojeon31bGooDDk/+5Ru112suw6/ppkCa6ggIjhfwn3WE1vIpK55wJe3oJzijsAoox3TF1Dc8ccDghPZVebbJZk1L8vjscBWrvNJNsqbdrpqxyLseojSFuXOulnrTYAKVmB4ZdC7pUYt5IygiEpqPlZwNk4WE3GC9IkSecPtfkdEc7Kp3GM22yTTttJBPUv5oT9aE+O3WUVTmQjozytVJ5p4twhS+IIkHZpswWpsiRROc+kvlpOJfc0D7FmsPAl9pW+zUflENfGMav+7Vz/OpuhP3VBHB4hgZDLLt6yemWLw4c95+Ve6bEek3nH31oKZzTLLH+QY5rTWZslwnQOvVpkoieVVdvRZE2Oc5L50ZP+61B+Id04H3byB9YHQX16ZWlDs6hQl+1ANugUwDSuAoC/zBEyunoYY3CfQUdHVF7vdO+BViHItELn4OCunjmR9j/6M30M2W4R+ABntz2qAOHVEy2kvt84ZEhCN6GwAYjFxjVC5bqAqkZZ2jP1ngsDAURNGZid44/A/gB29DvHSodmwKQ5epVv7OmYYPjuQassJ7xlNaMIHBSxpMvQUqzA5DX0uoJMfd46jLud4rhlu/qt1fJa+PvZyW1PrPLw0cNTySCC35NoZ6vFpkK2kZNWxdoZDM9IE9OBY4ha4o+PJaEYwwpnXscdZiDzyCPlkKRhrFiNTMqZJ6UoVeXqZargO4U03brKwjzzvEnzkzg5nQHWyDbhm4HQygXRjQV1nLpIOMlrC+5FckJ0jEXgriGnis19MBf23PXNkHl7pRYDUTL74htkdfZAg1n8Lzf5tJDyCr1db+sadIbvxGE/wpBWDjyTjW8QH4zu5Vz5Qo/Adc4NOMghgxeLrwX/j/rCcCIDbbpPW0PSP10iB+AfNprMO3PR9SPMnlSAty6wczVVpuzh5ck4LQFCxesmc/gLGY8cGzi6W6e84elexQe5a9hjLvosbiQn+0oEH2WHR5dBEayAeaY+JdQ//ObnjgyMYNsz3QRB4ZNwxbtKLuWVHLVy805DID/IAxbphkdQ1ejcHYrLNsgeTogqndWdD+v9klSZn5zMNE+Hr69soucRB6x1z8mSOvTujF+c2vd1AvYyNbj5SJwhcoyVfPWg1IvGqp9YmeRR0aubGipT2XRVFOw5S6prSMAQTIRwJw5Dazhyt7kfROAs0p3F0M89Jzp71L/dzrLTWxMggb34t27Ye7oUErstNEfHAEBTmFp45katFJIc0uSuxzvLth240PwxHwygFGuxe85CP8VjmBbTnthO2kqsKILFR3mtig4b8tjeHndbTZX4skV1GElONRdrAWn/XtGGOZF7cGM3qw1zFXkX+843HhPbdgV9pqwmoBuDA2QJbZ/dh5adWpDoBLSwjA1aF9v4xtik6kQxhCrnQRqAwBhV4cBlBVybwxBBP+MQrTAiFDNOikuUjN91yPoOQn/O5pwehDT8zYYTMXPPTK8agOG+BV/2PM+9rKfvwmKmj0/P0O3NWvRLj3MIYoyWh9grdNCJVYrusXpYcGYiVddofHsTEWuOA28e0/iG6mmfhsmT7yz3Fn7XdfQtHom5U0o5hkWrwxht0BJ9bhWMR89BK1PXfcmL/aA8fv5eMsc1/SKmq3rU/YhD0uunlEoHIZ2hfF78I6UQH7G6dFDUg4TcXb0sYRW2l9RAMmy7tztsRcZwdXC/cyDogtsvyDK2Gy47tR0p2KzLLmcuF+C8B/ygy0I05zX+QYxSr+cSHp8DEG1Al4eCxVzjcGgX514gbVEycbBIJfXq7O7Yrq9Fh8hUK+ObadlzNOw/Pb+P3J07zRAeiOVE1WeV+rVtQZj0H0oyH5bkID159J/HS6B2o15bTIY9rVtcLksLDZjHcOyZgZ0ee5a7M3mLRiFPxIOHJLjr5ZhlCEwaXFrCH9PXruJDyws+5k57mVY6bqtMxc+wRpEJHRmgDFrcGYUm1BtoKPnD4MQMgzZ+Lnk1lnJgYB7Ke8QTc8DVqr0W65gpNas1NRfSa7n2EY8fgOxritS/lxglgF+Ac6/+kjv+lsEJg/xcVrSk1dDkS4LF0i+k/zO2JDWYPzKBv7xFspFsWdtRv4VvcBcYnEJpSViOVNasbluhffz/rdxvkhoA+yJvmyuA1mhDA4md9qm/i5XSLuaBpNb+AtSjFHWzyWHo0NZjWUXoSWtdd87W8a4VKqCRFnp5N8Iwn/GECh4IGpXozKcIZBb0Nff2xyJY8pb4EOiXYb0CcyXZ72Av/98EQqOs1NdqgywoepISEVEzFovJcVjX2A95xHABAaLV2e6o8IShnkNtIQqzyDBxC9oMpAe8jCDvsP/DquKmaNTRoMCWnmkUyPRL5kaH2KJy0SZPEB0JVwLrvsLLEvpASgUKqYKAEovjcjnRBK7RmH78lSor36OXnwSH6yZnvF4wt1+lndvLzAI9wAsgbcfxn3jAP+tOfEejVEg7ogRwbbE08BXe5Cl0yeZh6xXSV0EyYWiychrce75sSB4LszGHM0hGoCEjn5T07RWZklDXRSRoCw+Kl0unHmckPgnmZcoXvKojCIjTjuKunCp2nI8c6fN/grXTEU37mRBbnEak1QjSUZsZ2ynuf5N4Nd6bkerPLV8Y+7SJZEVbEl30WJL5C9BeOLZv/Uli1eIDVMHJfykQIYVLtB4GoFPtrzucRLDUtCgG4ZjWZE/K5vA7A7jtoyilqCnjDnQI8c8Rxye2ijfHf51pEAhsC7GEcM9gq0+reKwqGvw6KrC3J7PXLZqF47iwVidIUxp+o1WzxwuG1CB1Xg3VnObCoI1rO1M8q6xECjndpebIMjowHrDttP7kX0aY/8yhjTQMqpRgY0owMtTf4Wz12mKJDMXAL8IAiyKzjJg7n3PtsHXFI+prB0BYbGwQWGB+QMAIHmt1zCus8R4Zfew7tbrNRE/3yZ4S0htxlzTQ73tnoBMe17T+I+pX5OgsZx/P/Fo1Uoc/czqXJq73AUCEj+1Ck2OWs/PiCBzUo0v/DIxQfZ1EYKtLw1Xs8xTZwzLHPdEfUfD7nQ12N5sAAAgAElEQVTU6wMRbbzckiRiuKNbWMeWMUnRpJzY6djldkd5iocw5KsCUBfjiFgq7f2bYvi3qMD74pegMfdfx15aCID7IzCGD1+3uTvkNDoyoP7BkgX+I0vnERttG5iIARcYWEPrZUnwcLm/i0U0ABV6ccHMA3eQc5+Jcu6+1XCOnjYGEZLTTc4s/BrUAJkKyXDvvI7ZCuSZW14dEawvOl+xklurFt5XtpORCa0JDTwL0mzFbxnMqMcFmLOUmlt4Sit5QQPRzk5JD8nGn7zBpTZRTPhQnjBIZAl6Hli4pdBzRS/qbQRQnS+lmDWRhAmc/44XlwRvUled23XEzzoms35FA1XQ+qhCf6Up6skmyTbybXSlor1Y6mn1xDKSL/BRynpubrRwRKRUU9Exn98y9TPcFkuvHUQ5JBRFjMKrz6LVxpRNJnOtjaizkpL5h6xSzMwQ4Bjt1KiwFp7/xufCZb++eWoFiImAm85SVmyA3uXMH/HXXmetPzA95vstx8bE7Zx0TVxPwi9B+F8RhKUU4eBDUL8ev4GNZOGLKLCtuV8fCK4PbdjPw233Pto2hiOYOHs8mhaJ/huhvOy7hFqWVi9DYUJ610RI64ZCDAm6g7CdX8VhReMEosJMABRAuooSadDLeA5EG4ba+IRSDvlYM6/jnlemnFdtz0wwFtfIggvar3c4cJ4+IkSQ4ZehLSNR9xqGbomOexv7Bs9Amq7vzH+M2SMaTiHEuJeivPptIyoTxfeecDYzLcCV1RrwmOJd6LpJAO+XZ+CTAeFxAuzdf0bfOKouUhWgK23UzV1GNubUkxVz34NihMlPfBexpnziTKZXMfRXUSIa2dGt89PlsLT8AWeU93SEMKNaWzp3vzM1keGt69rVGNdqFwUqKGPsVk2HsS6NtvQTSDzYkkXPb3uw5cWEyREzS6TO2NmO6i9B+IcE4QsQtyEPg8mbqMAUcPQnwO3FENQGH2Kc6d2FyMVOWL47Atk7hi5eH1wN3UJb924FtDFdOzIESGDKzouis4v12kkEeKuS/7TZ/SurLFuFEiVPZEYQ+t45CrbVS86S/Ko4+dHoVE9KREoD2HM7pL7n69ySaKm2RikHRWC4pkjJi/wKwxMkIhTdyDoHLL1AdsaEFAzlkCc9/xR46rczJgBP2q093Ot9Q6fPm0Q+jcDy+CHvcrT+Ffv0Ba63OTCpBSlq63h+GzngLPYYZbU66hRg2u5frc1d0Bs1D1F7somB5JEnKL4IHEL6vQ4sFvQxx90fkA4tDI9CjnslD6idob4TxtTsRMoUxt5RqMe6sjC5Rp3RsTGdKzVrTxs6bjubTxbUkXxssRD2MAW2sHpOQ1Xh8MPpIVa+CQqwYbKVJiGBI6p+WEWVb51x+CVrbRp7diGoih/PmrSzpIJtyMmhGL81CA9p+RtfyeOUZbpS2QQx42iy4Ekhw1L/BXE4S77s+7KOA7p8BUABcYPeg91IlP6UBpCfWDIEjRSoXocf6SAPGDfk860QSRRo7Bxt45vjzCYy7Grz7XEomaEui0zoLXfdN9QnvIpBFKLPPrNt1CfM4TIYCWoRsBI4V2G/GY/vSW5jMMZrGeYlr5Vn7J4OQK56BRLOTBVHceZY+Z2+OsAFckDSkI+e6Ryx0++b9EL2EywfOep+XqQrQnAgc9xtItmdY5kR/uj7f1b1aMoipO5TyxB3LkiMpigUL/6K52M3j/qrgtgBbM2sTz/cU5WhfP+lgltrQpH8vYXNdqA1nxMpXcA6ErhmHmbnj+Eg19i91j3UUJJLnckCDjaRqRcch3wgPTHlEx84uqMi6iF7arnGDing+ZlRpFQDTjtFVG/4fEUgjJscQ0Ky0BgjVypjXgCGFQldzuJqrb7jYqtmizIofT5QNrtYvvyRv2Elfy+ZGfgCtJgiXbSlcue3KBePbUBfbZJZz/aYER4V+smRbZEcRVrVYjtFstd6lJKnrcWrEKIyN7wtMJqtJH4MJosGBdzERynXIGT6g4WdXxgqHprUgQzd29B11sLfNWaHCzf5fMQzuWsj+oHTqAjakRaYA5VQIBn1HbKG9W/uEGGOHIZrgATzyL6AbOSxUBwqYJOko9dgG63vtcSqUgcoY/+ggCyUDym0p4e5SVTGkvscCXv+BGynqMCSyJFXHjpsyZV+MaWNaMaE4OBFD6XvdUciZ2RJNQst53Ng0jq0XNeXV5gvPbqMrcTtZiVrqyUjjN1Hqu1jB4L19J3WMnHBe9w++rMxd9lwYEKiCof1V7ht65jOzlvWW1IgPOe6NY/vZ4I4aBJmm7NKDHgno1T3OiTmKdrUhdrBohTxZcrOz/mNIPyXSM4WmIuZLmBUvJWO+IrK5e67j346NPjI0U1KwTJqGwGC8G/UCHgYzVQjTMWXCRFiX4V4fO9CX8sDo4IkZZpkv5BilJAhSoUssVmsvGHXM9RcsB6BkQxEBy5CE7PQgRVPdr3SdqUJ8G6IOwwoEnNDXmEFPUkUlsWSW+JEGc6sYm23d1Xyll7eF+hOdgRTJBzjSm/jGMW65Dnio/3ASTWMBbnB1uSouu26kW1A33lnGh9FpkYP93MRfkM5LupaNumBgsfR3ztnn6mBmjsfJWyDpInOXLKul0mYkpmf/fS2MSWxUXeSRLh6n2mM2HTQ6ZZ40dhFWkX7USTZk6wjgCOyqrUO3b6BTWOa9boIwrg/JgGACKhrbvFdjxq5RTh4CgQ7vXrWRsP7cJq08qM7EIUag50oFyrW0y99ExRKHhUuZqpxbyMPB1PtIgr1ShV/kNpd9P1LEP4BQViRI1dosa1ViBqCYHtYPmhUZ6eW8/REtnF5b3cAIGjzaTWKXVXwp/fLE4hGOlc+T9sL8SKkdThSeLcM88lQI7cfe3YhxDU2vpnO/QkDFJZpK4aXxR6/DInMYlqZ9MxpdHyfi00BjrKeQZZwIM35np11PKVGtsgSQCJv7fuwfSBAiW8z7CmbrVr9oQzQT2W1PbRt4C1nuAhkU5gX4g6BvEAPOV7YmNA833MD5xiK7YkpSjLWvtcpsimQa84ralDSoWLFCtdYVkqV/DbgVUReExTjULFfG+ORoiGpeDdJ40AZE0X5zMYq7dHnZ4xe6VXUOG8Bz6y+JAH8aaRUUP3V4Sg9VghDfTTRrfb6/6edNtT/56cupZ+zPCPNx5YJy20uqgjFlsnzZK7rJgRaHgDEecbMZVcOPY2pb45+ap53mw0Cno9kzXouszYI/mAWaz4zrZuE4m7DRQmxHutFd0V0GvRne3igZ/sHNj5yNk2/fmsQAqT+yR8vMKQ5K6VutfpQHoagaOY2CbB6PnqKPJzxSGrWgPNqcHQD18JPEsg4j6l8J5SiRX4AqY0h5PNiygy0TsFhlLzZ8zreOOeuvaNdLPicHwIJXM53QZpIhVTPD6UyhmFMneu/sP3reGJ3KbfGT3M4skJiBTv0BHx0ZoBGRqYnZGQUYPllqF9zmCDV0Qzg2GkfihA60X9EhEB8SbL3eHtp+ogKsY6J9agfxITPV9/WqxHc3Z70OQlxparq/iySNL1DNOB6pwGN+y0kWivquw/LsS7SUDrVcROIOhQn62enCDGWh4SBhi3P/9Ac+uqMhOw1HpJLGQuYunc/TBvErnO/Z5gzl3UUkAkacjlmf5GyCl3r9d3J9o3tWe+UGMx1cnTK15y2FnF9RRBGl2ZMGT3l+2tuXXWPWYM1R1lHgSVXOImKZfL3qOV/wgning3qZIoykKnkmZIaBSThEyZZV3DTGzwMnc43iSgwj1Y+QelgREKorcqtxzGf5XH87PGe0CQMmfUaJe+zT1oKv9MKrTVNMEpM4dm0B3NYNhB+gJJnL8xmzO3xwErqIBEYXbWteoZ5Oxo8p5sQWLnqkxZPL3qyF1peD99eedcMlA1yYeFVFUTCsCQ2QWyB+EJ5gRQDHhFWXl6Zw9ePaMPpU+fLP4inj5A1f5C+ZDg789EzpyOHd75aQBrAHGSJMOeIkQA2jby0Rx65oHeln5Tv50NRkFr6vo8yrr5rTPMCqYl+MLqElzpNUat1JgjAeLGUAK0HvUKOhdgBY3Jbr6g1sMSuVAhlQHPf31WB3p8dkzl9EjzlpEl20j75Z2lcD2W4G1NpAuEHebyMKiK9mhFF2cqiZy3EljcnIr3GPMMgdLlTT16Fih8cciWn6sxFp0I5p+N0dS+HiJHkmSBK3lznkgbmSYaiyHz6dcHRf2w0/29q4BaYGr3Wue3dIFxej0RsnIKFGVzgmwahr4OyAFNtdmkojBdRROgnsiRr1w60h012fvq30xMl+IeMMDRtOzqA6SjACs+efur95mJKDDNiJvk62AGYh1FpgmNP2/3cV7/SEhd0sdgLdQJ6WU2BV77it6Z/gzrTTB7X9EHPOVv5TO5G0LqWQmaOkRUZUslF/b08tE+v72G40fULy/8mIBN0/06OWs2G7kCmYYuukO0YBKJyW5ifsHjBa8vvxzyEzqFO5uT4ediQJnnVL9y6JRuATjUMO7IliCeasoiye0W5y9FAynK9fapofy9bbpbf95IghbWa3P5XXUvKeBN/nKgyxpgWe2Pdo3h7ZICYF+TkUdz4oBxDMJaxSoNuZvLC3Z/vRvZgp0u8QDZnHF7vXF2vQ+hpK3g9o2d0Xi4lbaciYNswTIMjYAXAJWOLhNha9Kd2CH+3Of57dOZla3cLwWqX4GQccBsowdXdp01E/tTrMgIojGklnL3wl2e20ZNmzAM4V41i9ofrwJ996AzbFhBvhvEwmurzscoCw8qpzfj+ysMcofeRtlP3oNfjqjZjJpjFhYleAj0XrSE22uB6vRVyQko3NdAaDviMcK3iMb7PoY+C3lmLuhVhIYGUCIWGomjE+ft2/aMvD3Knx8j6EDhfIDrhVgyW6Ya/Mu5cATdxy+vXq8OvPq10H8PGJPOhbyP4IkwyuKYH+3Xjnu6SedLuas5V8aePZ+n41FXkunJCJBLnrjFCXlOSXJNNkG7IgPpgVpHFsKVK2D7btnPkrsNSrBOo0eQ4al5Q9ScbjKH/lUztNWUK7K/TBLCcq65mMHXB05/adF/kcefZHpf8bhLaClDPaGwjhO70dGPadmB2uuKW33buGhcCe9aWzfqtV++XIIxY/PGDMGKKvvrqa+s/5E/zHDAsgN5bgB7f3/DtaDayAOMwJr7ozWkrYIe8AmyiXzm9bR5nZafSK+cw4mS5aqYKj+SOFIw1HEzyXFbPbKxyK+VXUcdV7EONH86EFEyHeYpwNEqff8S05XoYSfziJfmd3u9c7aDoa4UFPeIN/hQaJyoFAg87HjGIBEx4i/MDvoOcacS6jED7MswDKgNaBfSU0wyDI8SsIXoSIvIUXy9NtBw8okLb63ze68R0rRFvYiV5yZnmgc8dj6vJ6rwEB57YtHo+1N00oGMYaTTFv0e3pJU1kErTrLQUJuvqa9RCbLJQPXI/arvjaT8sSklGhb8zu1n4R/IAYz9GLkISS1bz+vFme7K28X/JofUV8pCcA2mdFIg9TMsrPOrGhes0xFUjpclRf07b84ZYYPWkg6ovo43zhs2lHIKbyQpkASwli9IhjJ14Lmu3Vgq2zT/Wxq1W/0owf3cxLED5d/58CbOFBor+UOjEtb52gwXY5tvXUwiwes2gAUF/mp0P/euV1iAQtSAnXoWy66HyZmJL3UxkqiSNuJTfw0aeDESlR5ekYaBOBMXPceBXLaOFqV6v6xvTgDT6ngNnCsU5wzitri+XJyAotmvHflLKVhpHkY1OTdzrTtB3O0ybIBvqCxYx2LJ72YeoR3Csl7b11QZHNr/H3PQVkO3nPQ/PMvPBaczTwW6wF9A34I0fr/5IaYTPA98PIjKK3c8dhWtjisFec9ntRth9CAHkIrYZuQ9BwWYudd9tQr0uIIaYZP6ubYznylgT3fuWNwbGbLBFtvyEwaF5fmj7NdGfMsU1e43ligylY/Rak/Md7ptx/BF3uS4QnIgACW/21jJgzvjouHbkxOTCK4i5jbytsU1ev+WsmcYznTAIBaSGAWpl+yUIRKe/+fkFpvToz+9ggeNicf4DlNaDQ1FtqLbynLtgxwKQ5d2js6G2IAcOT76eRUO57eh6neikArbRpiHLsb7H1M/kHHK+YlsIzaHA7EEazoPgnc/HdergsGfOhSB6geUKJ03onN7j3LJDrQTv3W739eL3CBOOMasZrP/b07AnY6bl/rVRS/+w/gIx+Iwo2CH/QySj+0ShZJEoAd0ON8AKsk3eSHl/CE+AY5PILKbEccoz7QncA7T7WSAcxQ9aoefkQcufjc1dnzNplxXNI9THms44et0QluZ21bqHsrTcatUowJOYYkKwr5++Z1zoIZ8f9QHU7k9jLx96XfCKlM08BGGFbBErwaZfuKLvMO2YcpyO+CCvG/MnttI/PG3C6OWWrw88DJ1QpKcNORkcC83oSLV8ckdOpq6qCLZg2oQj+w7i+RMd/E0x/E1WgMtC+NJ+IizeN4gUCBX675Vu3NhwVc8aMB79hZCqIeXJ7fjY6JJYOL+mUU2HJ7Apj/wIlToeimkEn59XOqJsKY8B1ThWpXiAYYczMeEl2248y8RsWMdghp0xyri4qhtvsM+gKpQlkI9bwhSFSBfmzhHmEqt/lYvu36ZmFfuhLiDOnQoIWPay7pCvn6t960MElkzTXt6A6FjzBYZbNy7Q2vlPvXI2d0egp36PCM/DAIOZPlxkUXXlANg5uEjCgAjDWbZqLb21BnUViMkSS+4HsFE4O6kpLmgZ23O5iOP5WXrm56QH6LqFgg6QDxRunLb7ufWOjAdBOF/7eZO6orw1cqVhNamtqdc5KJZXPnKiWEzRXdiEtBMEic8N+doGmEQB2Ms6gbOeLy+bxDanP45Fbvu5ohsmelOA2KBcxIaGoNcUGGlzzBSnBuf+5nbu3BGTq9vEYV5jv3B7yOvr8DrJPImClDhrKX4Jwr/JD/4KHNdOkWodwjjCt8JbYhZ/2f6wUsuvoePNrLeXccRjTvZbNQorX3bEsIE5C45ARdqTPmNbob7ALIC5ACGKxBpEdXrZLI1seM/ldyrDk30BzjoYx7lzIgWPMW4l352g9zM62SRn0gMVr02wTaVs9T7zVeN1esdEaqUfui93hfiKVz7X4ZFThr0cB5JRyZ5OrWs3a5EGebnHmor1RUoMS+t6KgKANogdqx1DL2g5XDRW83qTPvVdJlkrP9eCr40xkJEXN+7cPuV52llG2ybcpIH5Y85EyLFepobDkNwWw/smF5Py4vsVhr+ATHCP/sz3JjHedUUco6BbrzdZGeH15QAuGnjK2fdcgAt9FdP6kSFc8SzNxehMy87MAQ2/m6FORH8n6pn3ucBZNRyrc5OiKDKX5x2QcAgM62wYcZOQNRghy0992ile65/JSqlITcAvQUhc+uNfXPLLAC1Jnt+JBsjznSVogM3i4LtQ6iIAW2seofjxss8zyC5Z8fwA8TBCvq+lq/9xId4L+K0wW7lodC3SCo3PFok4VpQiDMDCiYyb4nh7JABwGZMLhOj1ICfk6vMb8FjsVbcQcLGjAGiy5Saj/HjBzyOEm9GC5TFgQFeo9gmg1dexw8YHT6dAUt6rsGlpyR/Jgdo9/eP636omCHP401Y/0yM6L6DngARigqfeuTJvKV26UONPIzjT2ILtSFCB9myMjNtMPChXm/zWb3JjO14wc5qRj9GrWWa95EnP6sjTIShlKXSWx124ZteZhi1kcePUFHUUeZ2fG6woN7n+lisKkl5cxPMRjgS0bN3FlpCPV3rhIe/qh/q65RIieKVmaWi3ZGY7Lv62U2e5jmmEXDo6tNBqgqHA/Ym2EvlXKvXMybDTPkvBejHr0zJncaXgvlJJTVrbOP0ShL9JEDjhYyzf9rMghyF2rDPZq21Ktz6ADHcoU7EfFt2GeIR5gBlhdQUzZq9iRtEE0NcRyOre7AFfQE+0kHejCAU0JoXWhr8+cadAbwNjri3NWd+MExYn8uGESF3UfRXiigCdv8sKRyV3PFPj9PwOyKvP7ZUenw1nHiy8nZ7YyENRZSSwvYn5bb8TOZ9egLe2nl1/9xOnQx2V+Mt1seC5AHJVtQcAWjQDUJFuGEIcgXCkHx7Ew6AvYN51L384yKbP53A9EOS2PTafhHCrFqW8DGsWivnQpSzu3Wkq6VW8Tj3O7pBRTbJSZEKi7mvm+yBuGW2SuCvicRMsgM0c7mSNeacqqn8cHzWjusqx9MhpuYGNf6w54HIwZSWoEL4BVCh3L7xeJUPrlS7G4ExXCDCUv9e7XBytRTIIeh7ok8cp6wFjABTl6pkVHsjjv7bKWd6ucXJ9tjGYLelaRRKQbOlfjSO/BGGB0v4zTcNKS21AQ/HPSo2mMD6sRyqa/1p4/xG2bmB5SMt8dXkINyC+jJok/rBVgSRCWzKMw2/PZT6IQ2pS4wDAMi0RXYFRFoLocBCcUjftRgUogHoGrrzpBl95tArpNXJd87TYXbzvQEWBPTdzaX5v4HIfaHTTi8pYL9MJd11DgnE56Gm1AzRnDW5BGQMYZ04gZTVrtGsgXiQzyUJMqYC9pxv/zE1RHPlKWf3hYKM9ssDIiBjY1F3h/VE6GUQI6HhuOmVvrT0O99KcJueU589T+rxK9cl1JEUAbVVpVLdBXDa1/7T8uiCRUUVKGMer1ptEq3FFtgA5rxRD9AVNnZGsRdLPHM8lF6/ag13rAsOq59dXwFNP5Qr6PYpJgwwJcRZuYiw5LD95csyUHS1zdhQBxZy0n95V+5tMyhlFHQNoWg03sY+S7/y3olvjRdYW5t8ixVzwz78IbClz4QIFS6WOLa+pcs+5JfuG7V1nkII+uDHrj9/lWD62uFD0qJzVnormtjFzaHSUVycTwj0pb1yG5e7vDWrZrp0mHBQR4fbu13mIlNDekHPUqQaDEx2OHS8IOw6qlWQIlUYQ1kLpz9C8Z96HOXVIdhdphmDBAPT3DGUTQc8TZ/wvCseTGtdJalcfvj2GJ0hL5hdyZ6X80hgAedW0aVsgAPi024WCAO/BSovNzM6QH6x5hvBxU4/bOVpuTewAfJxLf9eHLNwuUzHGuvUkUlE3csy07Xkc2d11Ay2zOoFz9FFnFcg4fD3L8nHrWYYiuUW31snEb1Jnqx5l49MSC6sYAqCXxG7C91E/cM0dhwzIYNH0VcfADn/tiBoJeyN/4OOWK9iB2RmBSYlIUpxJgGhE63fI12mDBh+4M6mfurHwIaPEkT/pVXnq9wvrlJLo1NUvQfgb/IB4RVsRCmIbFXxtyXW+t4cL26CR4f168sug3wDWBnMUrgzpPGLCrd1mCLJ7WdfziQwpCmSYR+2QvoT6OjktQVCAoZHhtjHEm/HO/E8hn8K9eJvdIx0xhkzFXTDGA7XpcHf0YxhOzf1EMqqBmp2OEsC7q19RR4Dn3Uorxg5PtBnjLkI0QdhALnSxKzUeJriA+puv7s0e/VwDu20626IQAPMskuPc2EKcNmEENohfctwCUQZsHa0985NKO30/KrAP76I10VLaGzP0ppzWQiMidbpDIM5U1iYrkSKK1/pCdy5ymnP4gwU+KImEXYK1C2GJF85P91BadnH64zPV020ynUgA1E6mS29yTU6/ZVDjSGsS3qyHCmMMkqH+R7H1qtF5YSTxOTYZkCvFMfGeP/rcrjXoQTEdOqnNLZM71bkiJ9N/SaDck5p/912Tz2ooRXX0Xp3+zTWkE/ug8nF0pWYgzoNsZoUnJfYbQfgbDEH62GsFB+BCKjnTZM4vdilDg91HMD5u9psc0EijGx+GP563PMuCPqnEng+CzsMIrNtmBxY8/Hr2bt9C7Z/kVXYfuo0rRDYVvw9vH3RqpoI5v9ELv3jmVS8yxABkKdqb+oUF1mef8V1R7jCjCjwV5m0jNIjkmgIWQXpZA7qawHQ0I5AMRKa/J2BehnkBMlnpX1WYBxDL6IhYvI6NHeJ0657n+D5X3sMLizVz4Oidf2d7Jlpf4WTqUe+LF9SyyLVJIVM6nqNenyHaZmpROzCGScWJpYUZwbLODJEJD/yOGMyWSnmC29AeZez71NXADB4ffZ/nchndj7WMdJdtEeS1seSBV5ecYrmnmHGFJvY99fzGLttYRvsjN5YEbzlF9hegxtno39ItGWT07YoWnmmphZk1f/6NWhy+yTNDqKteBJEoybCeN/ra4+q/fwnCn/gBwqVh3pgPg4LQ8Q5g0ppDuaPiuA1hvuuwt85RARMXyfmyNkGLPc8lYNbn59bHCDlJSL8fusN7epOdtu35qNK7Dc0PyZb0xnlW7uiwQgZhuM4Rf6BBqwlBPDPpr2LHrAXXOfT2RHYuHoTj8jAWjxzhIMDD8AdwY8tagAfHCeK2vqZd+zT0iQmNTH5l9WDIAwX5uBewx3f0mq4dBQWJWttLf2TXOJVBdG1o9RbJ08YIGsmn5UorEB6m5mPEFmT26FTtTz/3XvLnDk7EIYrDFKGjp8aSQMmVXPTXm0CXPEEumCLkIUgzs8AG61k9i2uluRMmRUEhjPPP90pR+Nkw/gROrNdDBeb59Rv6FGARdj1x7yK5WucVVeJia5rJDTtS9CKcI1JQppdzRcJBOfCrl2uMGdXTmE0qmWQe0sOX2JE8QNadGt24WRe1FajPAt4+c4Qz/EsQ/kQQ1m8PfJw47ZJhokQTdhzesdjvWaQ8GyeUJS6HrR0AHCVcoX+e9Q1gKGBLbaLYEKqPR0Ig3qz85WEhr1zd3flnhrMdCrXHDFTh/u1TP9AtvhZDXlsUmemceVZXFborDFqLZa9fwUECVWydhPWqedwAy7+h7DgUKavEyQIJEjZGm9HV2td8ZNQmRI+PGWAY6nOmEiSFc8qcLUD0PrnP5GSfAeIagJdBc4pDAFpkBoKK0HwN1R621mYM/MgZmYSjAJMdwEu6bIRaxuf5lj+B59QfTDTKL9SigTAca8waj1+SpBc7pZz1yH0yNmwAAAdCSURBVB8FknqxU40BqYP4mOkGRSv8NtElo7HXPiMXMwZizXw2cTGh60JgyY8zXqifgZws/IE6eW+/rVilmpozDOZJZe6DUE0aph8eiNqR0sSpgxF1KRmo5+XBS1eh6BNLMYBet3qLJrcRSr9d9S3DLTx2RAipMqU1hui8Ik9Ij8W7PHodNJHXke5ZJP1LEP5LBCHD1GnF8VcyXjLxj37kvUvQ+SOwtRxYJnBdMZ2ynA2Y9Qp5/pDjHE3tts+hGi9DaWBg1lsKMDDKArCZC+R8Pw//sAG+OQO9ItRyMEzbAOB7Oeaen3N9f5bt0Hd/cw29vPQQNTdXzmd5RjmvOU5WvHOuu6Ngd7xPn2lgY9rlw63xpUGGr/GKqq0F2evz/rvmeRw0Dw8EJ73IsCVodD72VDCC4sv6eRz8sQnOjZickEiSAHhNacAi3YgBRYRMho4eM+pbihSpkIMEiWWF9DPfRIHwoJReRpQyIhaGeJNFnqj6kb4iPJicwTFJnhFrqz+ETlzHkOH+g5gWnvsC3hsfSFI5h/X5ur4N8kuPLA3UrLecjv8keKFshB3w1t7cbVCrmVEsz1YUPE9sCI5AxZAROajBqucc3y9B+DsE4QF+gSc0GvjMgtMwzGFkqqVFQgc2vmoDqDwuBsIut8fJaEeovCl8cl0BHhN+orHhJCmUyzfAMUTf136ctdCirYtaMnH07niQ/q5seEI6FSY8mSEaPqYU76jGKWUE+5jNCHWDGqyoTh+cEzsMSCQQ0u7IQRGovkZG63yR20JrpKRrlI7c7z47OcyTZuHSsKSgGwxOIZLfEY+w55M8jGSiPQEdbGYaxxdQEr3VZX9Xy93Gm7K8HquZiuLeyNPzigb+iEY8ng19zFcwS1NtQLCivWpe2Cr2XfsCsbJByGe4IJA9B7WOklcjOQ3B+Iv/pyNjZ/G0Z9+HK9VjbjcBQb+4rwflozg4JJCaNNJepNHakBGwvsWNZ9lhoAlZLyOWkr0M3XluPYSnxxoz7vWHGHumEK35V8uP5/ItQ0E/pPvcLq7JPf/KCaDDA31QUiBe5saeUscSDBhfkD0ZFOl5qa7ohF07Vr8EYUvXx98rynSWU7lO3gJc6zmv8NRZsqBm6X29CYLB7aUEwzNeITABzo9gQcOSFasFCfg9eKbrpGtKscupT0+EDBqphdV09qPHua1Kg5mD/2TBZGJbOTzZmUrZ0QEDryvWHwA6nYXiTQq5toUqbHwUfVUos5qh5ICpkiUUh8QJHQUaOXm8oyAkCy5n6XVbVHxvT7F+nNTBqg4fu7U8KlKq63ndwQHzZeDb7Ee9wWWycFT11FGQNMANm3zrHyJnR0LmPI0aTL27oP9D6sAhbdUeWKbrk0e/9SkNog3T8F4/MMzDyITYgFJpcO2YhszC3SRgrJ8Pg8vdJ3+QCULHzD0WmUZ6E4OjlUgxFF8v+Tyz1jdsGb7xIPFxp0TPYx6gGe3avnaqID2xz2f2fZnzbxNO2cbz3VZLt8Ay0i3AL2CKq2c0Zkd/67Ly9vcuDg1KW1a9ddWklP1SWwcB4PRWUXXOxkj87y6GPzMEyJihoSd3fqMQ1HqmxX2Abq/7aMEG3MEtfkh7fgu9nRdr118okToauS6yWcWxxgjJV/N2KBtFHu4A7F1TbAMh71l5Oc9bXaP0RbKrHVVJ4bZPlw5cf7+Ki45qrDki+HqrZC9sewBuxoti4/Fi8/LoblgSCas2yf4TdsKeiYXcDmoBMUOGTyBjaw0QtEBtBv+OXK4ASOkJbvwj+FNVXpE63PzzcbgVCIvlid6Xw6amWSv6stR0gHr1w2vNFd5kdSB19NJTkIfYTGQkKILWoDsVZ2y0d/fQI9ttggPqbub8BqQN+8ho6s2Z22i/t9KhRuUmOYQ5VRqZrE57PRHn74cw6Kv901z/QVpTH24cjzQVn/3cIgmkjxSkOy+c2Kb0XaSY+HfV58xESDpvZ62ciQ5CXf3f22wvi9EvCatVrloyHNLVUONInQhX9uM3gnDLVXzjgPqfL9zKEHa9f0y4hzd7GXFB3n4mhLgL/yxE6OnjRUFHvh5k4SVWd/FWA+M5T4Dn4Ks6mCFMsiMX0WVKIM/7PqPq/Z6MWIxONH0uw5cFjxF0aKVzGwplGhG8BuobjQrLxjyO6NOEKpmuUdpgM3eaV+5GeKcJPvDzAm4VoI13Jo+2EfGOmmzoXVEEvRFOcroIxfYSSWPU57mGxpXGfXmOrzaZXQr87Id8GRKHi1tvmqcqQiAIPqt7il7b+ImERti/UXn2H6+isrXTQt7Y5PUnrwjZP5ENJfJND/TdpCKaMNgwLhJ++XlPe2sPnvYY6a19KJKkoeRcC9XyivoDSnN95s6d7ssStdvo0yBuU2vCcRvU2/H6locVfZh6mo5iBD4yAN+eOgN4M4cgCiB23FYqYuyNLY8IajtcdgY05m3wNTrYCeDgOicaKaBNOGB1sL6SMRexas7SQfl/AUlHx55wkP1FAAAAAElFTkSuQmCC;" vertex="1" parent="1">
          <mxGeometry x="233.88" y="-870" width="342.25" height="146.77" as="geometry" />
        </mxCell>
        <mxCell id="KMIFBZsHz-1hRJetGuWt-50" value="" style="shape=singleArrow;direction=south;whiteSpace=wrap;html=1;gradientColor=#97d077;fillColor=#d5e8d4;strokeColor=#82b366;" vertex="1" parent="1">
          <mxGeometry x="460" y="-710" width="30" height="70" as="geometry" />
        </mxCell>
      </root>
    </mxGraphModel>
  </diagram>
</mxfile>
